<svg width="115" height="115" viewBox="0 0 115 115" fill="none" xmlns="http://www.w3.org/2000/svg">
<rect x="1.5" y="1.5" width="112" height="112" rx="31.5" fill="#E8EAED" stroke="#6D905C" stroke-width="3"/>
<path opacity="0.12" fill-rule="evenodd" clip-rule="evenodd" d="M42.0675 52.28C42 52.6867 42 53.1516 42 54.0812L42 65C42 67.8003 42 69.2004 42.545 70.2699C43.0243 71.2108 43.7892 71.9757 44.73 72.455C45.7996 73 47.1997 73 50 73L64 73C66.8003 73 68.2004 73 69.27 72.455C70.2108 71.9757 70.9757 71.2108 71.455 70.27C72 69.2004 72 67.8003 72 65L72 54.0812C72 53.1516 72 52.6867 71.9325 52.28C71.6407 50.5229 70.4362 49.0537 68.7704 48.423C68.3849 48.277 67.9291 48.1858 67.0175 48.0035L66.8138 47.9628C66.5357 47.9071 66.3967 47.8793 66.2642 47.8452C65.1627 47.5615 64.1908 46.9106 63.5091 46.0001C63.4271 45.8906 63.3484 45.7727 63.1912 45.5368L63.1911 45.5367C62.9899 45.2349 62.8894 45.084 62.7849 44.9484C61.9114 43.8147 60.5939 43.1096 59.1661 43.0117C58.9953 43 58.814 43 58.4513 43L55.5487 43C55.186 43 55.0047 43 54.8339 43.0117C53.4061 43.1096 52.0886 43.8147 51.2151 44.9484C51.1106 45.084 51.0101 45.2349 50.8089 45.5367C50.6516 45.7726 50.5729 45.8906 50.4909 46.0001C49.8092 46.9106 48.8373 47.5615 47.7358 47.8452C47.6033 47.8793 47.4643 47.9071 47.1862 47.9628L46.9825 48.0035L46.9825 48.0035C46.0709 48.1858 45.6151 48.277 45.2296 48.423C43.5638 49.0537 42.3593 50.5229 42.0675 52.28ZM57 65.5C60.3137 65.5 63 62.8137 63 59.5C63 56.1863 60.3137 53.5 57 53.5C53.6863 53.5 51 56.1863 51 59.5C51 62.8137 53.6863 65.5 57 65.5Z" fill="white"/>
<path fill-rule="evenodd" clip-rule="evenodd" d="M55.5487 42.25L55.519 42.25C55.1846 42.25 54.9793 42.25 54.7826 42.2635C53.1406 42.3761 51.6255 43.1869 50.621 44.4907C50.5007 44.6469 50.3868 44.8177 50.2014 45.0959L50.1848 45.1207C50.023 45.3634 49.9574 45.4613 49.8906 45.5506C49.3111 46.3245 48.485 46.8777 47.5487 47.1189C47.4407 47.1467 47.3252 47.1701 47.0391 47.2273L46.8355 47.2681L46.758 47.2836C45.9203 47.451 45.4081 47.5534 44.964 47.7216C43.0484 48.4469 41.6632 50.1365 41.3277 52.1572C41.2499 52.6256 41.2499 53.1479 41.25 54.0022L41.25 54.0812L41.25 65L41.25 65.0336C41.25 66.4053 41.25 67.4807 41.3206 68.3451C41.3925 69.2252 41.5414 69.9523 41.8767 70.6104C42.428 71.6924 43.3076 72.572 44.3896 73.1233C45.0477 73.4586 45.7748 73.6075 46.6549 73.6794C47.5193 73.75 48.5947 73.75 49.9664 73.75L49.9664 73.75L50 73.75L64 73.75L64.0336 73.75L64.0336 73.75C65.4053 73.75 66.4807 73.75 67.3451 73.6794C68.2252 73.6075 68.9523 73.4586 69.6105 73.1233C70.6924 72.572 71.572 71.6924 72.1233 70.6104C72.4586 69.9523 72.6075 69.2252 72.6794 68.3451C72.75 67.4807 72.75 66.4053 72.75 65.0336L72.75 65.0336L72.75 65L72.75 54.0812L72.75 54.0022C72.7501 53.1479 72.7501 52.6256 72.6723 52.1572C72.3368 50.1365 70.9517 48.4469 69.036 47.7216C68.5919 47.5534 68.0798 47.451 67.2421 47.2836L67.1646 47.2681L66.9609 47.2273C66.6748 47.1701 66.5593 47.1467 66.4513 47.1189C65.515 46.8777 64.6889 46.3245 64.1094 45.5506C64.0426 45.4613 63.977 45.3634 63.8152 45.1207L63.7987 45.0959L63.7986 45.0958C63.6132 44.8177 63.4993 44.6469 63.379 44.4907C62.3745 43.1869 60.8594 42.3761 59.2174 42.2635C59.0207 42.25 58.8154 42.25 58.4811 42.25L58.4513 42.25L55.5487 42.25ZM54.8852 43.76C55.0243 43.7504 55.1755 43.75 55.5487 43.75L58.4513 43.75C58.8246 43.75 58.9757 43.7504 59.1148 43.76C60.3285 43.8432 61.4483 44.4425 62.1908 45.4061C62.2759 45.5166 62.36 45.6421 62.5671 45.9527L62.5798 45.9718C62.725 46.1896 62.8143 46.3235 62.9087 46.4496C63.6928 47.4967 64.8104 48.2452 66.0771 48.5715C66.2297 48.6108 66.3875 48.6424 66.6442 48.6937L66.6667 48.6982L66.8704 48.7389C67.8097 48.9268 68.1914 49.0057 68.5049 49.1244C69.9208 49.6605 70.9446 50.9093 71.1926 52.4029C71.2475 52.7336 71.25 53.1233 71.25 54.0812L71.25 65C71.25 66.4125 71.2494 67.4268 71.1844 68.2229C71.12 69.0103 70.9964 69.518 70.7868 69.9295C70.3793 70.7291 69.7292 71.3793 68.9295 71.7868C68.518 71.9964 68.0103 72.12 67.2229 72.1844C66.4268 72.2494 65.4125 72.25 64 72.25L50 72.25C48.5875 72.25 47.5732 72.2494 46.7771 72.1844C45.9897 72.12 45.482 71.9964 45.0705 71.7868C44.2709 71.3793 43.6207 70.7291 43.2132 69.9295C43.0036 69.518 42.88 69.0103 42.8156 68.2229C42.7506 67.4268 42.75 66.4125 42.75 65L42.75 54.0812C42.75 53.1233 42.7525 52.7336 42.8074 52.4029C43.0554 50.9093 44.0792 49.6605 45.4951 49.1244C45.8087 49.0057 46.1904 48.9268 47.1296 48.7389L47.3333 48.6982L47.3558 48.6937L47.3559 48.6937C47.6125 48.6424 47.7703 48.6108 47.9229 48.5715C49.1896 48.2452 50.3073 47.4967 51.0913 46.4496C51.1857 46.3235 51.275 46.1896 51.4202 45.9718L51.4329 45.9527C51.64 45.6421 51.7241 45.5166 51.8093 45.4061C52.5517 44.4425 53.6715 43.8432 54.8852 43.76ZM51.75 59.5C51.75 56.6005 54.1005 54.25 57 54.25C59.8995 54.25 62.25 56.6005 62.25 59.5C62.25 62.3995 59.8995 64.75 57 64.75C54.1005 64.75 51.75 62.3995 51.75 59.5ZM57 52.75C53.2721 52.75 50.25 55.7721 50.25 59.5C50.25 63.2279 53.2721 66.25 57 66.25C60.7279 66.25 63.75 63.2279 63.75 59.5C63.75 55.7721 60.7279 52.75 57 52.75Z" fill="#6D905C"/>
</svg>
