<svg width="36" height="36" viewBox="0 0 36 36" fill="none" xmlns="http://www.w3.org/2000/svg">
<path opacity="0.12" fill-rule="evenodd" clip-rule="evenodd" d="M3.06753 12.28C3 12.6867 3 13.1516 3 14.0812L3 25C3 27.8003 3 29.2004 3.54497 30.2699C4.02433 31.2108 4.78924 31.9757 5.73005 32.455C6.7996 33 8.19974 33 11 33L25 33C27.8003 33 29.2004 33 30.27 32.455C31.2108 31.9757 31.9757 31.2108 32.455 30.27C33 29.2004 33 27.8003 33 25L33 14.0812C33 13.1516 33 12.6867 32.9325 12.28C32.6407 10.5229 31.4362 9.05366 29.7704 8.42296C29.3849 8.27697 28.9291 8.18582 28.0175 8.0035L27.8138 7.96276C27.5357 7.90715 27.3967 7.87934 27.2642 7.84522C26.1627 7.56148 25.1908 6.91064 24.5091 6.00011C24.4271 5.89061 24.3484 5.77266 24.1912 5.53677L24.1911 5.53669C23.9899 5.23492 23.8894 5.08404 23.7849 4.94841C22.9114 3.81469 21.5939 3.10962 20.1661 3.01172C19.9953 3 19.814 3 19.4513 3L16.5487 3C16.186 3 16.0047 3 15.8339 3.01172C14.4061 3.10962 13.0886 3.81469 12.2151 4.94841C12.1106 5.08404 12.0101 5.23492 11.8089 5.53669C11.6516 5.77263 11.5729 5.8906 11.4909 6.00011C10.8092 6.91064 9.83731 7.56148 8.73579 7.84522C8.6033 7.87934 8.46427 7.90715 8.18622 7.96276L7.98253 8.0035L7.98251 8.0035C7.07093 8.18582 6.61513 8.27698 6.22956 8.42296C4.56378 9.05366 3.35929 10.5229 3.06753 12.28ZM18 25.5C21.3137 25.5 24 22.8137 24 19.5C24 16.1863 21.3137 13.5 18 13.5C14.6863 13.5 12 16.1863 12 19.5C12 22.8137 14.6863 25.5 18 25.5Z" fill="white"/>
<path fill-rule="evenodd" clip-rule="evenodd" d="M16.5487 2.25L16.519 2.25C16.1846 2.24999 15.9793 2.24999 15.7826 2.26347C14.1406 2.37606 12.6255 3.18689 11.621 4.49067C11.5007 4.64687 11.3868 4.81768 11.2014 5.09589L11.1848 5.12067C11.023 5.3634 10.9574 5.46132 10.8906 5.55059C10.3111 6.32453 9.48501 6.87775 8.54871 7.11892C8.44072 7.14674 8.3252 7.17011 8.03914 7.22732L7.83545 7.26806L7.75795 7.28356C6.92025 7.45102 6.40809 7.55341 5.964 7.72155C4.04835 8.44685 2.66319 10.1365 2.32767 12.1572C2.24989 12.6256 2.24993 13.1479 2.25 14.0022L2.25001 14.0812L2.25001 25L2.25001 25.0336C2.25 26.4053 2.25 27.4807 2.32062 28.3451C2.39253 29.2252 2.54138 29.9523 2.87672 30.6104C3.42799 31.6924 4.30763 32.572 5.38956 33.1233C6.04769 33.4586 6.7748 33.6075 7.65494 33.6794C8.51928 33.75 9.59469 33.75 10.9664 33.75L10.9664 33.75L11 33.75L25 33.75L25.0336 33.75L25.0336 33.75C26.4053 33.75 27.4807 33.75 28.3451 33.6794C29.2252 33.6075 29.9523 33.4586 30.6105 33.1233C31.6924 32.572 32.572 31.6924 33.1233 30.6104C33.4586 29.9523 33.6075 29.2252 33.6794 28.3451C33.75 27.4807 33.75 26.4053 33.75 25.0336L33.75 25.0336L33.75 25L33.75 14.0812L33.75 14.0022C33.7501 13.1479 33.7501 12.6256 33.6723 12.1572C33.3368 10.1365 31.9517 8.44685 30.036 7.72155C29.5919 7.55341 29.0798 7.45102 28.2421 7.28356L28.1646 7.26806L27.9609 7.22732C27.6748 7.17011 27.5593 7.14674 27.4513 7.11892C26.515 6.87775 25.6889 6.32453 25.1094 5.55059C25.0426 5.46132 24.977 5.3634 24.8152 5.12067L24.7987 5.09591L24.7986 5.09582C24.6132 4.81765 24.4993 4.64685 24.379 4.49067C23.3745 3.18689 21.8594 2.37606 20.2174 2.26347C20.0207 2.24999 19.8154 2.24999 19.4811 2.25L19.4513 2.25L16.5487 2.25ZM15.8852 3.75996C16.0243 3.75042 16.1755 3.75 16.5487 3.75L19.4513 3.75C19.8246 3.75 19.9757 3.75042 20.1148 3.75996C21.3285 3.84318 22.4483 4.44249 23.1908 5.40615C23.2759 5.51663 23.36 5.64213 23.5671 5.95272L23.5798 5.97181C23.725 6.18961 23.8143 6.32353 23.9087 6.44964C24.6928 7.49674 25.8104 8.24521 27.0771 8.57151C27.2297 8.61081 27.3875 8.64237 27.6442 8.69369L27.6667 8.69819L27.8704 8.73893C28.8097 8.92679 29.1914 9.00566 29.5049 9.12437C30.9208 9.66046 31.9446 10.9093 32.1926 12.4029C32.2475 12.7336 32.25 13.1233 32.25 14.0812L32.25 25C32.25 26.4125 32.2494 27.4268 32.1844 28.2229C32.12 29.0103 31.9964 29.518 31.7868 29.9295C31.3793 30.7291 30.7292 31.3793 29.9295 31.7868C29.518 31.9964 29.0103 32.12 28.2229 32.1844C27.4268 32.2494 26.4125 32.25 25 32.25L11 32.25C9.5875 32.25 8.57323 32.2494 7.77709 32.1844C6.98971 32.12 6.48198 31.9964 6.07055 31.7868C5.27086 31.3793 4.62069 30.7291 4.21323 29.9295C4.0036 29.518 3.87997 29.0103 3.81564 28.2229C3.75059 27.4268 3.75001 26.4125 3.75001 25L3.75001 14.0812C3.75001 13.1233 3.7525 12.7336 3.80741 12.4029C4.05541 10.9093 5.07922 9.66046 6.49513 9.12437C6.80866 9.00566 7.19035 8.92679 8.12962 8.73893L8.33331 8.69819L8.35583 8.69369L8.35585 8.69369C8.6125 8.64236 8.77031 8.61081 8.92288 8.57151C10.1896 8.24521 11.3073 7.49674 12.0913 6.44964C12.1857 6.32353 12.275 6.18961 12.4202 5.97181L12.4329 5.95272C12.64 5.64213 12.7241 5.51663 12.8093 5.40615C13.5517 4.44249 14.6715 3.84318 15.8852 3.75996ZM12.75 19.5C12.75 16.6005 15.1005 14.25 18 14.25C20.8995 14.25 23.25 16.6005 23.25 19.5C23.25 22.3995 20.8995 24.75 18 24.75C15.1005 24.75 12.75 22.3995 12.75 19.5ZM18 12.75C14.2721 12.75 11.25 15.7721 11.25 19.5C11.25 23.2279 14.2721 26.25 18 26.25C21.7279 26.25 24.75 23.2279 24.75 19.5C24.75 15.7721 21.7279 12.75 18 12.75Z" fill="white"/>
</svg>
