<svg width="161" height="165" viewBox="0 0 161 165" fill="none" xmlns="http://www.w3.org/2000/svg">
<path d="M119.146 66.4791C114.702 50.4227 101.545 29.0143 101.545 29.0143C101.545 29.0143 106.076 44.0378 82.4629 72.3946C72.0941 85.1645 63.1194 95.3054 63.1194 104.226C63.1194 112.113 66.1234 118.002 72.4428 122.629C77.3221 126.203 87.078 125.693 95.7073 122.629C103.636 119.155 111.034 114.02 116.358 104.132C123.169 91.4791 122.628 79.0612 119.146 66.4791Z" fill="#C5C5C5"/>
<path d="M119.304 68.13C115.269 52.6941 103.323 32.1127 103.323 32.1127C103.323 32.1127 107.437 46.5557 85.9975 73.8169C76.5832 86.0935 68.4345 95.8426 68.4345 104.418C68.4345 112.001 71.1619 117.662 76.8996 122.111C81.3298 125.546 90.1879 125.056 98.0228 122.111C105.222 118.771 111.939 113.834 116.772 104.328C122.957 92.1641 122.466 80.2261 119.304 68.13Z" fill="#D2D2D2"/>
<path d="M119.596 69.8361C116.077 55.2785 105.659 35.8686 105.659 35.8686C105.659 35.8686 109.246 49.4896 90.5481 75.1994C82.3376 86.7773 75.2309 95.9716 75.2309 104.059C75.2309 111.21 77.6096 116.549 82.6136 120.745C86.4773 123.985 94.2027 123.522 101.036 120.745C107.314 117.595 113.172 112.94 117.388 103.974C122.782 92.5024 122.353 81.2438 119.596 69.8361Z" fill="#E7E7E7"/>
<path d="M120.563 71.6488C117.948 57.5978 107.589 39.452 107.589 39.452C107.589 39.452 110.787 52.4273 94.123 76.9182C86.8058 87.9471 80.4724 96.7054 80.4724 104.409C80.4724 111.221 82.5924 116.307 87.0518 120.304C90.4952 123.39 97.3799 122.95 103.469 120.304C109.065 117.303 114.285 112.869 118.042 104.328C122.849 93.4008 123.021 82.5157 120.563 71.6488Z" fill="white"/>
<path d="M122.888 109.557C121.677 111.642 120.982 115.218 120.982 115.218C120.982 115.218 122.003 113.193 126.758 112.239C128.876 111.785 130.623 111.491 131.466 110.529C132.211 109.678 132.503 108.775 132.385 107.712C132.293 106.892 131.387 106.077 130.34 105.639C129.314 105.307 128.179 105.201 126.777 105.793C124.983 106.551 123.77 107.889 122.888 109.557Z" fill="white"/>
<path d="M38.5634 114.486C40.0328 114.774 42.2629 114.295 42.2629 114.295C42.2629 114.295 40.8687 114.124 39.3176 111.032C38.6103 109.663 38.0734 108.511 37.336 108.178C36.6839 107.883 36.0962 107.922 35.5013 108.293C35.042 108.58 34.7564 109.439 34.7198 110.296C34.7406 111.108 34.9166 111.937 35.5553 112.765C36.3724 113.824 37.4062 114.316 38.5634 114.486Z" fill="white"/>
<path d="M68.3474 80.8457C50.2237 102.442 56.323 114.461 56.323 114.461C56.323 114.461 44.7242 106.386 43.2531 87.1368C42.0332 71.1743 46.477 65.8222 51.1822 57.5593C60.5925 43.7565 65.5591 39.1555 72.5297 28.1696C80.9816 14.0852 82.2886 0.0946045 82.2886 0.0946045C82.2886 0.0946045 90.2796 9.33574 92.8317 16.1509C97.6136 28.9208 95.0972 38.1227 92.8317 44.6016C89.9563 54.3668 79.0647 67.4185 68.3474 80.8457Z" fill="#D0D0D0"/>
<path d="M65.68 84.582C51.4239 103.838 56.2216 114.554 56.2216 114.554C56.2216 114.554 47.0979 107.354 45.9408 90.1912C44.9811 75.9587 48.4767 71.1867 52.1777 63.8192C59.58 51.5123 64.9 47.0423 71.4841 36.8075C81.3302 21.5023 82.2886 0.0946045 82.2886 0.0946045C82.2886 0.0946045 91.1727 10.7309 93.1802 16.8075C97.624 30.3286 95.0972 40.6573 90.3048 50.6103C85.5125 60.5634 74.1103 72.6099 65.68 84.582Z" fill="#F3F3F3"/>
<path d="M66.5176 83.2864C51.407 103.005 56.0616 114.46 56.0616 114.46C56.0616 114.46 49.091 105.933 49.091 88.7324C49.091 74.6479 52.6634 71.3615 57.1943 63.2864C65.2806 51.5493 67.8245 49.9531 75.7536 37.7465C84.3798 23.7559 82.2015 0.187798 82.2015 0.187798C82.2015 0.187798 91.0139 10.2347 93.2674 17.277C97.624 30.892 94.8358 40.2817 90.7405 49.9531C86.3839 58.3099 77.6706 68.7324 66.5176 83.2864Z" fill="white"/>
<path d="M79.5826 130.707C165.879 130.707 111.334 122.74 111.334 122.74C111.334 122.74 150.051 128.994 79.5826 128.994C9.11413 128.994 49.7034 122.74 49.7034 122.74C49.7034 122.74 -6.71446 130.707 79.5826 130.707Z" fill="#CACACA"/>
<path d="M79.8395 135.89C223.365 135.89 132.646 122.74 132.646 122.74C132.646 122.74 197.039 133.063 79.8395 133.063C-37.3607 133.063 30.1456 122.74 30.1456 122.74C30.1456 122.74 -63.6863 135.89 79.8395 135.89Z" fill="white"/>
<path d="M41.9824 147.676L37.7344 160H35.166L40.5176 145.781H42.1582L41.9824 147.676ZM45.5371 160L41.2793 147.676L41.0938 145.781H42.7442L48.1153 160H45.5371ZM45.3321 154.727V156.67H37.5977V154.727H45.3321Z" fill="white"/>
<path d="M55.9082 164.062V151.533L56.1817 149.434H58.2813V164.062H55.9082ZM49.043 154.824V154.619C49.043 153.818 49.1341 153.089 49.3164 152.432C49.4987 151.768 49.7689 151.198 50.127 150.723C50.4851 150.247 50.9213 149.883 51.4356 149.629C51.9499 149.368 52.5423 149.238 53.2129 149.238C53.864 149.238 54.4304 149.362 54.9121 149.609C55.4004 149.857 55.8106 150.212 56.1426 150.674C56.4811 151.13 56.7513 151.673 56.9532 152.305C57.155 152.936 57.3015 153.639 57.3926 154.414V155.068C57.308 155.824 57.1647 156.514 56.9629 157.139C56.7611 157.764 56.4909 158.304 56.1524 158.76C55.8138 159.215 55.4004 159.57 54.9121 159.824C54.4239 160.072 53.8509 160.195 53.1934 160.195C52.5358 160.195 51.9499 160.062 51.4356 159.795C50.9213 159.528 50.4851 159.154 50.127 158.672C49.7754 158.184 49.5052 157.614 49.3164 156.963C49.1341 156.305 49.043 155.592 49.043 154.824ZM51.3965 154.619V154.824C51.3965 155.306 51.4388 155.758 51.5235 156.182C51.6146 156.598 51.7578 156.969 51.9532 157.295C52.1485 157.614 52.3959 157.865 52.6953 158.047C52.9948 158.229 53.3561 158.32 53.7793 158.32C54.3327 158.32 54.7852 158.2 55.1367 157.959C55.4948 157.718 55.7683 157.396 55.9571 156.992C56.1524 156.582 56.2891 156.13 56.3672 155.635V153.867C56.3216 153.483 56.2403 153.125 56.1231 152.793C56.0059 152.454 55.8431 152.161 55.6348 151.914C55.433 151.66 55.1791 151.465 54.8731 151.328C54.5736 151.185 54.2155 151.113 53.7989 151.113C53.3757 151.113 53.0111 151.204 52.7051 151.387C52.3991 151.569 52.1485 151.823 51.9532 152.148C51.7643 152.467 51.6244 152.839 51.5332 153.262C51.4421 153.685 51.3965 154.137 51.3965 154.619Z" fill="white"/>
<path d="M67.1582 157.51V149.434H69.5215V160H67.295L67.1582 157.51ZM67.4903 155.312L68.2813 155.293C68.2813 156.003 68.2032 156.657 68.0469 157.256C67.8907 157.848 67.6498 158.366 67.3242 158.809C66.9987 159.245 66.5821 159.587 66.0742 159.834C65.5664 160.075 64.9577 160.195 64.2481 160.195C63.7338 160.195 63.2617 160.12 62.8321 159.971C62.4024 159.821 62.0313 159.59 61.7188 159.277C61.4128 158.965 61.1752 158.558 61.0059 158.057C60.8366 157.555 60.752 156.956 60.752 156.26V149.434H63.1055V156.279C63.1055 156.663 63.1511 156.986 63.2422 157.246C63.3334 157.5 63.4571 157.705 63.6133 157.861C63.7696 158.018 63.9519 158.128 64.1602 158.193C64.3685 158.258 64.5899 158.291 64.8242 158.291C65.4948 158.291 66.0222 158.161 66.4063 157.9C66.7969 157.633 67.0736 157.275 67.2364 156.826C67.4056 156.377 67.4903 155.872 67.4903 155.312Z" fill="white"/>
<path d="M77.8907 157.881V152.842C77.8907 152.464 77.8223 152.139 77.6856 151.865C77.5489 151.592 77.3405 151.38 77.0606 151.23C76.7871 151.081 76.4421 151.006 76.0254 151.006C75.6413 151.006 75.3093 151.071 75.0293 151.201C74.7494 151.331 74.5313 151.507 74.375 151.729C74.2188 151.95 74.1407 152.201 74.1407 152.48H71.7969C71.7969 152.064 71.8978 151.66 72.0996 151.27C72.3015 150.879 72.5944 150.531 72.9785 150.225C73.3627 149.919 73.8216 149.678 74.3555 149.502C74.8894 149.326 75.4883 149.238 76.1524 149.238C76.9466 149.238 77.6498 149.372 78.2617 149.639C78.8802 149.906 79.3653 150.309 79.7168 150.85C80.0749 151.383 80.2539 152.054 80.2539 152.861V157.559C80.2539 158.04 80.2865 158.473 80.3516 158.857C80.4232 159.235 80.5241 159.564 80.6543 159.844V160H78.2422C78.1315 159.746 78.0437 159.424 77.9785 159.033C77.92 158.636 77.8907 158.252 77.8907 157.881ZM78.2325 153.574L78.252 155.029H76.5625C76.1263 155.029 75.7422 155.072 75.4102 155.156C75.0782 155.234 74.8015 155.352 74.5801 155.508C74.3588 155.664 74.1927 155.853 74.0821 156.074C73.9714 156.296 73.916 156.546 73.916 156.826C73.916 157.106 73.9812 157.363 74.1114 157.598C74.2416 157.826 74.4304 158.005 74.6778 158.135C74.9317 158.265 75.2377 158.33 75.5957 158.33C76.0775 158.33 76.4974 158.232 76.8555 158.037C77.2201 157.835 77.5065 157.591 77.7149 157.305C77.9232 157.012 78.0339 156.735 78.0469 156.475L78.8086 157.52C78.7305 157.786 78.597 158.073 78.4082 158.379C78.2194 158.685 77.972 158.978 77.666 159.258C77.3666 159.531 77.0052 159.756 76.5821 159.932C76.1654 160.107 75.6836 160.195 75.1367 160.195C74.4466 160.195 73.8314 160.059 73.291 159.785C72.7507 159.505 72.3275 159.131 72.0215 158.662C71.7155 158.187 71.5625 157.65 71.5625 157.051C71.5625 156.491 71.6667 155.996 71.875 155.566C72.0899 155.13 72.4024 154.766 72.8125 154.473C73.2292 154.18 73.737 153.958 74.336 153.809C74.9349 153.652 75.6185 153.574 76.3867 153.574H78.2325Z" fill="white"/>
<path d="M87.8223 157.402L91.5625 145.781H94.2676L89.17 160H87.3438L87.8223 157.402ZM84.3653 145.781L88.0762 157.402L88.584 160H86.7481L81.67 145.781H84.3653Z" fill="white"/>
<path d="M98.1446 149.434V160H95.7813V149.434H98.1446ZM95.625 146.66C95.625 146.302 95.7422 146.006 95.9766 145.771C96.2175 145.531 96.5495 145.41 96.9727 145.41C97.3894 145.41 97.7181 145.531 97.959 145.771C98.1999 146.006 98.3203 146.302 98.3203 146.66C98.3203 147.012 98.1999 147.305 97.959 147.539C97.7181 147.773 97.3894 147.891 96.9727 147.891C96.5495 147.891 96.2175 147.773 95.9766 147.539C95.7422 147.305 95.625 147.012 95.625 146.66Z" fill="white"/>
<path d="M106.65 157.139C106.65 156.904 106.592 156.693 106.475 156.504C106.357 156.309 106.133 156.133 105.801 155.977C105.475 155.82 104.994 155.677 104.355 155.547C103.796 155.423 103.281 155.277 102.813 155.107C102.35 154.932 101.953 154.72 101.621 154.473C101.289 154.225 101.032 153.932 100.85 153.594C100.667 153.255 100.576 152.865 100.576 152.422C100.576 151.992 100.671 151.585 100.859 151.201C101.048 150.817 101.318 150.479 101.67 150.186C102.022 149.893 102.448 149.661 102.949 149.492C103.457 149.323 104.023 149.238 104.648 149.238C105.534 149.238 106.292 149.388 106.924 149.687C107.562 149.98 108.05 150.381 108.389 150.889C108.727 151.39 108.897 151.956 108.897 152.588H106.543C106.543 152.308 106.471 152.048 106.328 151.807C106.191 151.559 105.983 151.361 105.703 151.211C105.423 151.055 105.072 150.977 104.648 150.977C104.245 150.977 103.91 151.042 103.643 151.172C103.382 151.296 103.187 151.458 103.057 151.66C102.933 151.862 102.871 152.083 102.871 152.324C102.871 152.5 102.904 152.659 102.969 152.803C103.04 152.939 103.158 153.066 103.32 153.184C103.483 153.294 103.704 153.398 103.984 153.496C104.271 153.594 104.629 153.688 105.059 153.779C105.866 153.949 106.559 154.167 107.139 154.434C107.725 154.694 108.174 155.033 108.486 155.449C108.799 155.859 108.955 156.38 108.955 157.012C108.955 157.48 108.854 157.91 108.652 158.301C108.457 158.685 108.171 159.02 107.793 159.307C107.415 159.587 106.963 159.805 106.436 159.961C105.915 160.117 105.329 160.195 104.678 160.195C103.721 160.195 102.91 160.026 102.246 159.687C101.582 159.342 101.078 158.903 100.732 158.369C100.394 157.829 100.225 157.269 100.225 156.689H102.5C102.526 157.126 102.647 157.474 102.861 157.734C103.083 157.988 103.356 158.174 103.682 158.291C104.014 158.402 104.355 158.457 104.707 158.457C105.13 158.457 105.485 158.402 105.772 158.291C106.058 158.174 106.276 158.018 106.426 157.822C106.576 157.62 106.65 157.393 106.65 157.139Z" fill="white"/>
<path d="M113.535 149.434V160H111.172V149.434H113.535ZM111.016 146.66C111.016 146.302 111.133 146.006 111.367 145.771C111.608 145.531 111.94 145.41 112.363 145.41C112.78 145.41 113.109 145.531 113.35 145.771C113.591 146.006 113.711 146.302 113.711 146.66C113.711 147.012 113.591 147.305 113.35 147.539C113.109 147.773 112.78 147.891 112.363 147.891C111.94 147.891 111.608 147.773 111.367 147.539C111.133 147.305 111.016 147.012 111.016 146.66Z" fill="white"/>
<path d="M115.664 154.834V154.609C115.664 153.848 115.775 153.141 115.996 152.49C116.217 151.833 116.536 151.263 116.953 150.781C117.376 150.293 117.891 149.915 118.496 149.648C119.108 149.375 119.798 149.238 120.566 149.238C121.341 149.238 122.031 149.375 122.637 149.648C123.249 149.915 123.766 150.293 124.189 150.781C124.613 151.263 124.935 151.833 125.156 152.49C125.378 153.141 125.488 153.848 125.488 154.609V154.834C125.488 155.596 125.378 156.302 125.156 156.953C124.935 157.604 124.613 158.174 124.189 158.662C123.766 159.144 123.252 159.521 122.647 159.795C122.041 160.062 121.354 160.195 120.586 160.195C119.811 160.195 119.118 160.062 118.506 159.795C117.9 159.521 117.386 159.144 116.963 158.662C116.54 158.174 116.217 157.604 115.996 156.953C115.775 156.302 115.664 155.596 115.664 154.834ZM118.018 154.609V154.834C118.018 155.309 118.066 155.758 118.164 156.182C118.262 156.605 118.415 156.976 118.623 157.295C118.831 157.614 119.098 157.865 119.424 158.047C119.749 158.229 120.137 158.32 120.586 158.32C121.022 158.32 121.4 158.229 121.719 158.047C122.044 157.865 122.311 157.614 122.52 157.295C122.728 156.976 122.881 156.605 122.979 156.182C123.083 155.758 123.135 155.309 123.135 154.834V154.609C123.135 154.141 123.083 153.698 122.979 153.281C122.881 152.858 122.725 152.484 122.51 152.158C122.301 151.833 122.035 151.579 121.709 151.396C121.39 151.208 121.009 151.113 120.566 151.113C120.124 151.113 119.74 151.208 119.414 151.396C119.095 151.579 118.831 151.833 118.623 152.158C118.415 152.484 118.262 152.858 118.164 153.281C118.066 153.698 118.018 154.141 118.018 154.609Z" fill="white"/>
<path d="M129.795 151.689V160H127.441V149.434H129.658L129.795 151.689ZM129.375 154.326L128.613 154.316C128.62 153.568 128.724 152.881 128.926 152.256C129.134 151.631 129.421 151.094 129.785 150.645C130.156 150.195 130.599 149.85 131.113 149.609C131.628 149.362 132.201 149.238 132.832 149.238C133.34 149.238 133.799 149.31 134.209 149.453C134.626 149.59 134.98 149.814 135.273 150.127C135.573 150.439 135.801 150.846 135.957 151.348C136.113 151.842 136.191 152.451 136.191 153.174V160H133.828V153.164C133.828 152.656 133.753 152.256 133.604 151.963C133.46 151.663 133.249 151.452 132.969 151.328C132.695 151.198 132.354 151.133 131.943 151.133C131.54 151.133 131.178 151.217 130.859 151.387C130.54 151.556 130.27 151.787 130.049 152.08C129.834 152.373 129.668 152.712 129.551 153.096C129.434 153.48 129.375 153.89 129.375 154.326Z" fill="white"/>
</svg>
