<svg width="403" height="86" viewBox="0 0 403 86" fill="none" xmlns="http://www.w3.org/2000/svg">
<g filter="url(#filter0_b_20_4)">
<path d="M0 43.0654C0 26.0246 13.8143 12.2103 30.8551 12.2103H157.863C163.559 12.2103 169.191 11.0237 174.403 8.72605L184.578 4.23991C195.047 -0.375304 206.967 -0.406809 217.46 4.15301L228.182 8.81295C233.339 11.0539 238.901 12.2103 244.524 12.2103H372.145C389.186 12.2103 403 26.0246 403 43.0654C403 60.1062 389.186 73.9206 372.145 73.9206H244.967C239.059 73.9206 233.22 75.1976 227.851 77.6641L218.24 82.0798C207.304 87.104 194.712 87.0695 183.804 81.9853L174.735 77.7586C169.311 75.2306 163.399 73.9206 157.415 73.9206H30.8551C13.8143 73.9206 0 60.1062 0 43.0654Z" fill="#003656" fill-opacity="0.61"/>
<path d="M0.25 43.0654C0.25 26.1627 13.9524 12.4603 30.8551 12.4603H157.863C163.593 12.4603 169.261 11.2664 174.504 8.9548L184.679 4.46867C195.084 -0.118408 206.931 -0.14972 217.36 4.3823L228.083 9.04223C233.271 11.2968 238.867 12.4603 244.524 12.4603H372.145C389.048 12.4603 402.75 26.1627 402.75 43.0654C402.75 59.9682 389.048 73.6706 372.145 73.6706H244.967C239.023 73.6706 233.149 74.9554 227.747 77.437L218.136 81.8526C207.266 86.8462 194.751 86.8119 183.909 81.7587L174.84 77.532C169.383 74.9885 163.435 73.6706 157.415 73.6706H30.8551C13.9524 73.6706 0.25 59.9682 0.25 43.0654Z" stroke="white" stroke-width="0.5"/>
</g>
<defs>
<filter id="filter0_b_20_4" x="-25" y="-24.2443" width="453" height="135.068" filterUnits="userSpaceOnUse" color-interpolation-filters="sRGB">
<feFlood flood-opacity="0" result="BackgroundImageFix"/>
<feGaussianBlur in="BackgroundImageFix" stdDeviation="12.5"/>
<feComposite in2="SourceAlpha" operator="in" result="effect1_backgroundBlur_20_4"/>
<feBlend mode="normal" in="SourceGraphic" in2="effect1_backgroundBlur_20_4" result="shape"/>
</filter>
</defs>
</svg>
