<svg width="428" height="309" viewBox="0 0 428 309" fill="none" xmlns="http://www.w3.org/2000/svg">
<g filter="url(#filter0_b_262_1470)">
<path d="M0 12.5528C0 12.5528 19.5911 19.9581 305.923 0.981803C387.301 -4.4114 430 14.1728 430 14.1728V309H0V12.5528Z" fill="#004994" fill-opacity="0.5"/>
</g>
<g filter="url(#filter1_b_262_1470)">
<path d="M0 16.0659C0 16.0659 90.5 -0.883217 170 9.20554C352 32.3019 428 17.6667 428 17.6667V309H0V16.0659Z" fill="#377ABE" fill-opacity="0.5"/>
</g>
<g filter="url(#filter2_bd_262_1470)">
<path d="M0 34.7682C0 34.7682 176.487 17.2539 281.5 26.8986C383.5 36.2666 428 36.2667 428 36.2667V309H0V34.7682Z" fill="#396C21" fill-opacity="0.5" shape-rendering="crispEdges"/>
</g>
<defs>
<filter id="filter0_b_262_1470" x="-4" y="-4" width="438" height="317" filterUnits="userSpaceOnUse" color-interpolation-filters="sRGB">
<feFlood flood-opacity="0" result="BackgroundImageFix"/>
<feGaussianBlur in="BackgroundImageFix" stdDeviation="2"/>
<feComposite in2="SourceAlpha" operator="in" result="effect1_backgroundBlur_262_1470"/>
<feBlend mode="normal" in="SourceGraphic" in2="effect1_backgroundBlur_262_1470" result="shape"/>
</filter>
<filter id="filter1_b_262_1470" x="-4" y="2" width="436" height="311" filterUnits="userSpaceOnUse" color-interpolation-filters="sRGB">
<feFlood flood-opacity="0" result="BackgroundImageFix"/>
<feGaussianBlur in="BackgroundImageFix" stdDeviation="2"/>
<feComposite in2="SourceAlpha" operator="in" result="effect1_backgroundBlur_262_1470"/>
<feBlend mode="normal" in="SourceGraphic" in2="effect1_backgroundBlur_262_1470" result="shape"/>
</filter>
<filter id="filter2_bd_262_1470" x="-17" y="7" width="462" height="319" filterUnits="userSpaceOnUse" color-interpolation-filters="sRGB">
<feFlood flood-opacity="0" result="BackgroundImageFix"/>
<feGaussianBlur in="BackgroundImageFix" stdDeviation="8.5"/>
<feComposite in2="SourceAlpha" operator="in" result="effect1_backgroundBlur_262_1470"/>
<feColorMatrix in="SourceAlpha" type="matrix" values="0 0 0 0 0 0 0 0 0 0 0 0 0 0 0 0 0 0 127 0" result="hardAlpha"/>
<feOffset dy="4"/>
<feGaussianBlur stdDeviation="2"/>
<feComposite in2="hardAlpha" operator="out"/>
<feColorMatrix type="matrix" values="0 0 0 0 0 0 0 0 0 0 0 0 0 0 0 0 0 0 0.25 0"/>
<feBlend mode="normal" in2="effect1_backgroundBlur_262_1470" result="effect2_dropShadow_262_1470"/>
<feBlend mode="normal" in="SourceGraphic" in2="effect2_dropShadow_262_1470" result="shape"/>
</filter>
</defs>
</svg>
