<svg width="42" height="40" viewBox="0 0 42 40" fill="none" xmlns="http://www.w3.org/2000/svg">
<path opacity="0.12" d="M14.02 9.71436L5.50232 24.9245C3.30943 28.8404 2.21299 30.7983 2.39639 32.4016C2.5564 33.8004 3.29873 35.0669 4.441 35.8899C5.75026 36.8333 7.99429 36.8333 12.4824 36.8333H29.5177C34.0058 36.8333 36.2498 36.8333 37.5591 35.8899C38.7014 35.0669 39.4437 33.8004 39.6037 32.4016C39.7871 30.7983 38.6907 28.8404 36.4978 24.9245L36.4978 24.9245L27.9801 9.71437C25.6988 5.64063 24.5582 3.60377 23.0577 2.92625C21.7495 2.33558 20.2506 2.33558 18.9424 2.92625C17.4419 3.60376 16.3013 5.64063 14.02 9.71435L14.02 9.71436Z" fill="#FD7171"/>
<path fill-rule="evenodd" clip-rule="evenodd" d="M22.3374 4.5211C21.4871 4.13717 20.5128 4.13717 19.6625 4.5211C19.3605 4.65747 18.925 5.00614 18.2163 6.0376C17.5147 7.05882 16.7044 8.50225 15.5468 10.5693L7.02912 25.7795C5.91586 27.7674 5.14166 29.1535 4.65677 30.2422C4.1688 31.3378 4.09752 31.8752 4.13497 32.2026C4.23898 33.1118 4.72149 33.935 5.46397 34.47C5.73134 34.6627 6.23507 34.8631 7.42939 34.9726C8.61616 35.0815 10.2038 35.0832 12.4823 35.0832H29.5176C31.7961 35.0832 33.3838 35.0815 34.5705 34.9726C35.7649 34.8631 36.2686 34.6627 36.536 34.47C37.2784 33.935 37.7609 33.1118 37.865 32.2026C37.9024 31.8752 37.8311 31.3378 37.3432 30.2422C36.8583 29.1535 36.0841 27.7674 34.9708 25.7795L26.4531 10.5693C25.2956 8.50225 24.4852 7.05882 23.7836 6.0376C23.075 5.00614 22.6394 4.65747 22.3374 4.5211ZM18.2222 1.3312C19.9882 0.533804 22.0117 0.533804 23.7777 1.3312C24.9762 1.87236 25.8613 2.88088 26.6684 4.05566C27.4719 5.22519 28.3596 6.81044 29.4629 8.78063L29.5069 8.85922L38.0246 24.0694L38.0682 24.1473L38.0683 24.1475C39.1277 26.0392 39.9823 27.5653 40.5404 28.8182C41.103 30.0813 41.4882 31.3245 41.3423 32.6004C41.1263 34.4887 40.1241 36.1985 38.5821 37.3097C37.5402 38.0604 36.2672 38.3317 34.8902 38.458C33.5243 38.5833 31.7752 38.5833 29.6068 38.5832H29.6068H29.6068H29.5176H12.4823H12.3931H12.3931H12.3931C10.2248 38.5833 8.4756 38.5833 7.1097 38.458C5.73268 38.3317 4.45976 38.0604 3.41787 37.3097C1.87581 36.1985 0.873663 34.4887 0.657649 32.6004C0.5117 31.3245 0.896943 30.0813 1.45956 28.8182C2.01763 27.5652 2.87229 26.0391 3.93175 24.1472L3.93176 24.1472L3.93178 24.1472L3.97535 24.0694L12.493 8.85921L12.537 8.78066C13.6403 6.81045 14.528 5.22519 15.3315 4.05566C16.1387 2.88087 17.0237 1.87236 18.2222 1.3312ZM21 14.4999C21.9665 14.4999 22.75 15.2834 22.75 16.2499V22.5832C22.75 23.5497 21.9665 24.3332 21 24.3332C20.0335 24.3332 19.25 23.5497 19.25 22.5832V16.2499C19.25 15.2834 20.0335 14.4999 21 14.4999ZM21 28.9166C21.8744 28.9166 22.5833 28.2077 22.5833 27.3332C22.5833 26.4588 21.8744 25.7499 21 25.7499C20.1255 25.7499 19.4166 26.4588 19.4166 27.3332C19.4166 28.2077 20.1255 28.9166 21 28.9166Z" fill="#FD7171"/>
</svg>
