<svg width="178" height="118" viewBox="0 0 178 118" fill="none" xmlns="http://www.w3.org/2000/svg">
<ellipse cx="76.5001" cy="59" rx="60.4681" ry="59" fill="#EDEDED"/>
<g clip-path="url(#clip0_1426_1213)">
<path d="M91.837 66.2972L91.7136 66.4191" stroke="black" stroke-width="3" stroke-linecap="round"/>
<g filter="url(#filter0_i_1426_1213)">
<path d="M101.18 50.987C98.3066 41.4714 89.7981 28.7841 89.7981 28.7841C89.7981 28.7841 92.7281 37.6875 77.4578 54.4927C70.7523 62.0606 64.9485 68.0704 64.9485 73.3568C64.9485 78.0311 66.8911 81.5209 70.9778 84.2635C74.1332 86.3812 80.4423 86.0791 86.0228 84.2635C91.1504 82.2046 95.9344 79.1615 99.3772 73.3012C103.782 65.8028 103.432 58.4436 101.18 50.987Z" fill="#004994"/>
<path d="M101.283 51.9654C98.6734 42.8176 90.9481 30.6204 90.9481 30.6204C90.9481 30.6204 93.6084 39.1798 79.7436 55.3357C73.6554 62.6112 68.3857 68.3889 68.3857 73.4711C68.3857 77.9647 70.1495 81.3197 73.8601 83.9563C76.725 85.9922 82.4535 85.7017 87.5202 83.9563C92.1759 81.977 96.5196 79.0514 99.6454 73.4175C103.645 66.2089 103.327 59.134 101.283 51.9654Z" fill="#074380"/>
<path d="M101.471 52.9765C99.1958 44.3492 92.4583 32.8462 92.4583 32.8462C92.4583 32.8462 94.7784 40.9185 82.6866 56.155C77.3769 63.0164 72.781 68.4653 72.781 73.2583C72.781 77.4962 74.3193 80.6602 77.5554 83.1468C80.054 85.0668 85.0499 84.7929 89.4687 83.1468C93.5291 81.28 97.3173 78.5211 100.044 73.2077C103.532 66.4093 103.255 59.7371 101.471 52.9765Z" fill="#0A3969"/>
<path d="M101.975 53.9304C100.285 45.6033 93.5853 34.8495 93.5853 34.8495C93.5853 34.8495 95.6529 42.539 84.8768 57.0532C80.1448 63.5893 76.0491 68.7798 76.0491 73.3454C76.0491 77.3825 77.42 80.3965 80.3039 82.7651C82.5307 84.5941 86.983 84.3331 90.921 82.7651C94.5395 80.9869 97.9155 78.3587 100.345 73.2973C103.454 66.8213 103.565 60.3705 101.975 53.9304Z" fill="#082E54"/>
<path d="M68.3294 59.5011C56.609 72.2998 60.5534 79.4225 60.5534 79.4225C60.5534 79.4225 53.0525 74.6369 52.1012 63.2294C51.3123 53.7695 54.186 50.5977 57.2288 45.7008C63.3144 37.5208 66.5263 34.7941 71.0341 28.2835C76.4999 19.9366 77.3451 11.6453 77.3451 11.6453C77.3451 11.6453 82.5128 17.1219 84.1632 21.1608C87.2556 28.7286 85.6283 34.182 84.1632 38.0216C82.3038 43.8088 75.2602 51.5437 68.3294 59.5011Z" fill="#377ABE"/>
<path d="M66.6046 61.7154C57.3852 73.127 60.4879 79.4778 60.4879 79.4778C60.4879 79.4778 54.5876 75.2109 53.8393 65.0396C53.2187 56.6049 55.4793 53.7769 57.8727 49.4106C62.6597 42.1172 66.1001 39.4681 70.358 33.4026C76.7254 24.3323 77.3452 11.6449 77.3452 11.6449C77.3452 11.6449 83.0904 17.9488 84.3887 21.55C87.2625 29.563 85.6284 35.6841 82.5292 41.5826C79.4301 47.4812 72.0564 54.6204 66.6046 61.7154Z" fill="#2B659F"/>
<path d="M67.1461 60.9476C57.3742 72.6334 60.3843 79.4222 60.3843 79.4222C60.3843 79.4222 55.8765 74.3685 55.8765 64.1751C55.8765 55.8281 58.1867 53.8805 61.1168 49.0949C66.3462 42.1391 67.9913 41.1931 73.119 33.9591C78.6975 25.6678 77.2888 11.7006 77.2888 11.7006C77.2888 11.7006 82.9877 17.6547 84.445 21.8282C87.2624 29.8969 85.4592 35.4616 82.8109 41.1931C79.9935 46.1457 74.3586 52.3224 67.1461 60.9476Z" fill="#1F558A"/>
</g>
<g filter="url(#filter1_i_1426_1213)">
<path d="M76.3172 90.0506C117.732 90.0506 91.5549 85.7102 91.5549 85.7102C91.5549 85.7102 110.136 89.1175 76.3172 89.1175C42.4984 89.1175 61.9778 85.7102 61.9778 85.7102C61.9778 85.7102 34.9021 90.0506 76.3172 90.0506Z" fill="#396C21"/>
</g>
<g filter="url(#filter2_i_1426_1213)">
<path d="M76.0007 93.7233C150.889 93.7233 103.554 87.0458 103.554 87.0458C103.554 87.0458 137.153 92.2878 76.0007 92.2878C14.8479 92.2878 50.0713 87.0458 50.0713 87.0458C50.0713 87.0458 1.11164 93.7233 76.0007 93.7233Z" fill="#1B5500"/>
</g>
<path d="M102.49 78.4473C101.732 79.644 101.298 81.6957 101.298 81.6957C101.298 81.6957 101.937 80.5338 104.91 79.9862C106.234 79.726 107.327 79.5573 107.854 79.005C108.32 78.5167 108.502 77.9985 108.428 77.3887C108.371 76.9179 107.805 76.4504 107.15 76.1986C106.508 76.0081 105.798 75.9475 104.922 76.2874C103.8 76.7223 103.042 77.4901 102.49 78.4473Z" fill="#07417D"/>
<path d="M50.6017 79.8052C51.3795 79.9455 52.5601 79.7128 52.5601 79.7128C52.5601 79.7128 51.822 79.6296 51.001 78.1274C50.6265 77.462 50.3423 76.9026 49.9519 76.7408C49.6067 76.5976 49.2956 76.6164 48.9807 76.7967C48.7376 76.936 48.5864 77.3533 48.567 77.7698C48.578 78.1645 48.6712 78.567 49.0093 78.9692C49.4419 79.4837 49.9891 79.7225 50.6017 79.8052Z" fill="#07417D"/>
</g>
<path d="M55.7852 99.7316L54.2383 104.446H52.9922L55.1055 98.7589H55.8984L55.7852 99.7316ZM57.0703 104.446L55.5195 99.7316L55.3945 98.7589H56.1953L58.3203 104.446H57.0703ZM57 102.329V103.247H53.9961V102.329H57ZM61.8672 103.603L63.4062 104.821L62.668 105.462L61.1523 104.243L61.8672 103.603ZM63.4453 101.47V101.739C63.4453 102.172 63.3867 102.56 63.2695 102.903C63.1549 103.247 62.9896 103.54 62.7734 103.782C62.5573 104.022 62.3021 104.206 62.0078 104.333C61.7135 104.461 61.3867 104.525 61.0273 104.525C60.6706 104.525 60.3438 104.461 60.0469 104.333C59.75 104.206 59.4935 104.022 59.2773 103.782C59.0612 103.54 58.8932 103.247 58.7734 102.903C58.6562 102.56 58.5977 102.172 58.5977 101.739V101.47C58.5977 101.035 58.6562 100.647 58.7734 100.306C58.8932 99.962 59.0599 99.6691 59.2734 99.4269C59.487 99.1847 59.7422 98.9998 60.0391 98.8722C60.3359 98.7446 60.6628 98.6808 61.0195 98.6808C61.3789 98.6808 61.7057 98.7446 62 98.8722C62.2969 98.9998 62.5534 99.1847 62.7695 99.4269C62.9857 99.6691 63.1523 99.962 63.2695 100.306C63.3867 100.647 63.4453 101.035 63.4453 101.47ZM62.2617 101.739V101.462C62.2617 101.16 62.2331 100.894 62.1758 100.665C62.1211 100.436 62.0404 100.243 61.9336 100.087C61.8294 99.9308 61.7005 99.8136 61.5469 99.7355C61.3932 99.6547 61.2174 99.6144 61.0195 99.6144C60.8216 99.6144 60.6458 99.6547 60.4922 99.7355C60.3385 99.8136 60.2096 99.9308 60.1055 100.087C60.0013 100.243 59.9219 100.436 59.8672 100.665C59.8125 100.894 59.7852 101.16 59.7852 101.462V101.739C59.7852 102.039 59.8125 102.304 59.8672 102.536C59.9219 102.765 60.0013 102.959 60.1055 103.118C60.2122 103.275 60.3424 103.393 60.4961 103.474C60.6523 103.554 60.8294 103.595 61.0273 103.595C61.2253 103.595 61.3997 103.554 61.5508 103.474C61.7044 103.393 61.8333 103.275 61.9375 103.118C62.0443 102.959 62.125 102.765 62.1797 102.536C62.2344 102.304 62.2617 102.039 62.2617 101.739ZM67.4336 98.7589H68.6016V102.517C68.6016 102.954 68.5078 103.323 68.3203 103.622C68.1354 103.922 67.8789 104.147 67.5508 104.298C67.2253 104.449 66.8503 104.525 66.4258 104.525C66.0013 104.525 65.6237 104.449 65.293 104.298C64.9648 104.147 64.707 103.922 64.5195 103.622C64.3346 103.323 64.2422 102.954 64.2422 102.517V98.7589H65.4141V102.517C65.4141 102.772 65.4544 102.98 65.5352 103.142C65.6159 103.303 65.7318 103.422 65.8828 103.497C66.0365 103.573 66.2174 103.61 66.4258 103.61C66.6393 103.61 66.8203 103.573 66.9688 103.497C67.1198 103.422 67.2344 103.303 67.3125 103.142C67.3932 102.98 67.4336 102.772 67.4336 102.517V98.7589ZM71.793 99.7316L70.2461 104.446H69L71.1133 98.7589H71.9062L71.793 99.7316ZM73.0781 104.446L71.5273 99.7316L71.4023 98.7589H72.2031L74.3281 104.446H73.0781ZM73.0078 102.329V103.247H70.0039V102.329H73.0078ZM76.5859 103.259L77.9258 98.7589H79.2305L77.25 104.446H76.3906L76.5859 103.259ZM75.3516 98.7589L76.6875 103.259L76.8906 104.446H76.0234L74.0547 98.7589H75.3516ZM81.0078 98.7589V104.446H79.8398V98.7589H81.0078ZM85.0664 102.958C85.0664 102.857 85.0508 102.765 85.0195 102.685C84.9909 102.601 84.9362 102.526 84.8555 102.458C84.7747 102.388 84.6615 102.319 84.5156 102.251C84.3698 102.183 84.181 102.113 83.9492 102.04C83.6914 101.957 83.4466 101.863 83.2148 101.759C82.9857 101.655 82.7826 101.534 82.6055 101.396C82.431 101.255 82.293 101.092 82.1914 100.907C82.0924 100.722 82.043 100.508 82.043 100.263C82.043 100.026 82.0951 99.811 82.1992 99.6183C82.3034 99.423 82.4492 99.2563 82.6367 99.1183C82.8242 98.9777 83.0456 98.8696 83.3008 98.7941C83.5586 98.7185 83.8411 98.6808 84.1484 98.6808C84.5677 98.6808 84.9336 98.7563 85.2461 98.9073C85.5586 99.0584 85.8008 99.2654 85.9727 99.5284C86.1471 99.7915 86.2344 100.092 86.2344 100.431H85.0703C85.0703 100.264 85.0352 100.118 84.9648 99.9933C84.8971 99.8657 84.793 99.7654 84.6523 99.6925C84.5143 99.6196 84.3398 99.5831 84.1289 99.5831C83.9258 99.5831 83.7565 99.6144 83.6211 99.6769C83.4857 99.7368 83.3841 99.8188 83.3164 99.923C83.2487 100.025 83.2148 100.139 83.2148 100.267C83.2148 100.363 83.2383 100.45 83.2852 100.528C83.3346 100.607 83.4076 100.679 83.5039 100.747C83.6003 100.815 83.7188 100.879 83.8594 100.939C84 100.998 84.1628 101.057 84.3477 101.114C84.6576 101.208 84.9297 101.314 85.1641 101.431C85.401 101.548 85.599 101.679 85.7578 101.825C85.9167 101.971 86.0365 102.137 86.1172 102.321C86.1979 102.506 86.2383 102.716 86.2383 102.95C86.2383 103.198 86.1901 103.419 86.0938 103.614C85.9974 103.81 85.8581 103.975 85.6758 104.11C85.4935 104.246 85.276 104.349 85.0234 104.419C84.7708 104.489 84.4883 104.525 84.1758 104.525C83.8945 104.525 83.6172 104.488 83.3438 104.415C83.0703 104.34 82.8216 104.226 82.5977 104.075C82.3763 103.924 82.1992 103.732 82.0664 103.497C81.9336 103.263 81.8672 102.985 81.8672 102.665H83.043C83.043 102.842 83.0703 102.992 83.125 103.114C83.1797 103.237 83.2565 103.336 83.3555 103.411C83.457 103.487 83.5768 103.541 83.7148 103.575C83.8555 103.609 84.0091 103.626 84.1758 103.626C84.3789 103.626 84.5456 103.597 84.6758 103.54C84.8086 103.483 84.9062 103.403 84.9688 103.302C85.0339 103.2 85.0664 103.086 85.0664 102.958ZM88.2812 98.7589V104.446H87.1133V98.7589H88.2812ZM94.0508 101.47V101.739C94.0508 102.172 93.9922 102.56 93.875 102.903C93.7578 103.247 93.5924 103.54 93.3789 103.782C93.1654 104.022 92.9102 104.206 92.6133 104.333C92.319 104.461 91.9922 104.525 91.6328 104.525C91.276 104.525 90.9492 104.461 90.6523 104.333C90.3581 104.206 90.1029 104.022 89.8867 103.782C89.6706 103.54 89.5026 103.247 89.3828 102.903C89.2656 102.56 89.207 102.172 89.207 101.739V101.47C89.207 101.035 89.2656 100.647 89.3828 100.306C89.5 99.962 89.6654 99.6691 89.8789 99.4269C90.0951 99.1847 90.3503 98.9998 90.6445 98.8722C90.9414 98.7446 91.2682 98.6808 91.625 98.6808C91.9844 98.6808 92.3112 98.7446 92.6055 98.8722C92.9023 98.9998 93.1576 99.1847 93.3711 99.4269C93.5872 99.6691 93.7539 99.962 93.8711 100.306C93.9909 100.647 94.0508 101.035 94.0508 101.47ZM92.8672 101.739V101.462C92.8672 101.16 92.8398 100.894 92.7852 100.665C92.7305 100.436 92.6497 100.243 92.543 100.087C92.4362 99.9308 92.306 99.8136 92.1523 99.7355C91.9987 99.6547 91.8229 99.6144 91.625 99.6144C91.4271 99.6144 91.2513 99.6547 91.0977 99.7355C90.9466 99.8136 90.8177 99.9308 90.7109 100.087C90.6068 100.243 90.5273 100.436 90.4727 100.665C90.418 100.894 90.3906 101.16 90.3906 101.462V101.739C90.3906 102.039 90.418 102.304 90.4727 102.536C90.5273 102.765 90.6081 102.959 90.7148 103.118C90.8216 103.275 90.9518 103.393 91.1055 103.474C91.2591 103.554 91.4349 103.595 91.6328 103.595C91.8307 103.595 92.0065 103.554 92.1602 103.474C92.3138 103.393 92.4427 103.275 92.5469 103.118C92.651 102.959 92.7305 102.765 92.7852 102.536C92.8398 102.304 92.8672 102.039 92.8672 101.739ZM99.5234 98.7589V104.446H98.3516L96.0664 100.634V104.446H94.8945V98.7589H96.0664L98.3555 102.575V98.7589H99.5234Z" fill="black"/>
<defs>
<filter id="filter0_i_1426_1213" x="51.969" y="11.6449" width="51.0144" height="96.0957" filterUnits="userSpaceOnUse" color-interpolation-filters="sRGB">
<feFlood flood-opacity="0" result="BackgroundImageFix"/>
<feBlend mode="normal" in="SourceGraphic" in2="BackgroundImageFix" result="shape"/>
<feColorMatrix in="SourceAlpha" type="matrix" values="0 0 0 0 0 0 0 0 0 0 0 0 0 0 0 0 0 0 127 0" result="hardAlpha"/>
<feOffset dy="22"/>
<feGaussianBlur stdDeviation="12.5"/>
<feComposite in2="hardAlpha" operator="arithmetic" k2="-1" k3="1"/>
<feColorMatrix type="matrix" values="0 0 0 0 0 0 0 0 0 0 0 0 0 0 0 0 0 0 0.38 0"/>
<feBlend mode="normal" in2="shape" result="effect1_innerShadow_1426_1213"/>
</filter>
<filter id="filter1_i_1426_1213" x="53.2844" y="78.7102" width="46.4309" height="11.3405" filterUnits="userSpaceOnUse" color-interpolation-filters="sRGB">
<feFlood flood-opacity="0" result="BackgroundImageFix"/>
<feBlend mode="normal" in="SourceGraphic" in2="BackgroundImageFix" result="shape"/>
<feColorMatrix in="SourceAlpha" type="matrix" values="0 0 0 0 0 0 0 0 0 0 0 0 0 0 0 0 0 0 127 0" result="hardAlpha"/>
<feOffset dy="-11"/>
<feGaussianBlur stdDeviation="3.5"/>
<feComposite in2="hardAlpha" operator="arithmetic" k2="-1" k3="1"/>
<feColorMatrix type="matrix" values="0 0 0 0 0 0 0 0 0 0 0 0 0 0 0 0 0 0 0.3 0"/>
<feBlend mode="normal" in2="shape" result="effect1_innerShadow_1426_1213"/>
</filter>
<filter id="filter2_i_1426_1213" x="34.3516" y="80.0458" width="83.9587" height="13.6776" filterUnits="userSpaceOnUse" color-interpolation-filters="sRGB">
<feFlood flood-opacity="0" result="BackgroundImageFix"/>
<feBlend mode="normal" in="SourceGraphic" in2="BackgroundImageFix" result="shape"/>
<feColorMatrix in="SourceAlpha" type="matrix" values="0 0 0 0 0 0 0 0 0 0 0 0 0 0 0 0 0 0 127 0" result="hardAlpha"/>
<feOffset dy="-11"/>
<feGaussianBlur stdDeviation="3.5"/>
<feComposite in2="hardAlpha" operator="arithmetic" k2="-1" k3="1"/>
<feColorMatrix type="matrix" values="0 0 0 0 0 0 0 0 0 0 0 0 0 0 0 0 0 0 0.3 0"/>
<feBlend mode="normal" in2="shape" result="effect1_innerShadow_1426_1213"/>
</filter>
<clipPath id="clip0_1426_1213">
<rect width="92.8617" height="94.8214" fill="white" transform="translate(30.0691 11.5892)"/>
</clipPath>
</defs>
</svg>
