<svg width="31" height="31" viewBox="0 0 31 31" fill="none" xmlns="http://www.w3.org/2000/svg">
<path d="M15.5 0C24.0607 0 31 6.939 31 15.4992C31 24.0594 24.0607 30.9984 15.5 30.9984C13.0262 31.0019 10.5878 30.4108 8.39016 29.2749L2.45986 30.9287C2.129 31.021 1.77954 31.0237 1.44728 30.9366C1.11503 30.8494 0.811927 30.6754 0.569033 30.4325C0.326139 30.1897 0.152187 29.8866 0.065 29.5543C-0.0221865 29.2221 -0.0194728 28.8727 0.0728629 28.5418L1.72826 22.6165C0.589558 20.417 -0.00320664 17.9759 1.30463e-05 15.4992C1.30463e-05 6.939 6.93936 0 15.5 0ZM15.5 2.32488C12.0058 2.32488 8.65467 3.71289 6.18388 6.18356C3.71309 8.65422 2.32501 12.0052 2.32501 15.4992C2.32501 17.7776 2.90316 19.9676 3.98816 21.9112L4.22066 22.3297L2.49706 28.5046L8.67691 26.7811L9.09541 27.0136C10.8537 27.9911 12.8125 28.553 14.8216 28.6562C16.8308 28.7594 18.8369 28.4011 20.6861 27.6089C22.5353 26.8167 24.1785 25.6115 25.4897 24.0858C26.8009 22.5601 27.7453 20.7544 28.2504 18.8072C28.7555 16.8599 28.808 14.8229 28.4038 12.8522C27.9996 10.8816 27.1495 9.02967 25.9185 7.43849C24.6876 5.8473 23.1087 4.55913 21.3027 3.67273C19.4968 2.78634 17.5118 2.32527 15.5 2.32488V2.32488ZM15.5 20.9239C15.9111 20.9239 16.3053 21.0872 16.596 21.3779C16.8867 21.6686 17.05 22.0628 17.05 22.4739C17.05 22.8849 16.8867 23.2792 16.596 23.5698C16.3053 23.8605 15.9111 24.0238 15.5 24.0238C15.0889 24.0238 14.6947 23.8605 14.404 23.5698C14.1133 23.2792 13.95 22.8849 13.95 22.4739C13.95 22.0628 14.1133 21.6686 14.404 21.3779C14.6947 21.0872 15.0889 20.9239 15.5 20.9239V20.9239ZM15.5 7.36213C16.6305 7.36213 17.7147 7.81119 18.514 8.61052C19.3134 9.40986 19.7625 10.494 19.7625 11.6244C19.7625 13.1898 19.3022 14.064 18.1335 15.2807L17.8715 15.5457C16.9074 16.5098 16.6625 16.9189 16.6625 17.8241C16.6625 18.1324 16.54 18.4281 16.322 18.6461C16.104 18.8641 15.8083 18.9865 15.5 18.9865C15.1917 18.9865 14.896 18.8641 14.678 18.6461C14.46 18.4281 14.3375 18.1324 14.3375 17.8241C14.3375 16.2587 14.7979 15.3845 15.9666 14.1678L16.2285 13.9028C17.1926 12.9387 17.4375 12.5296 17.4375 11.6244C17.4359 11.1289 17.2445 10.6528 16.9026 10.294C16.5607 9.93532 16.0943 9.72123 15.5994 9.69582C15.1044 9.67041 14.6186 9.83561 14.2417 10.1574C13.8649 10.4793 13.6257 10.9332 13.5734 11.426L13.5625 11.6244C13.5625 11.9327 13.44 12.2284 13.222 12.4464C13.004 12.6644 12.7083 12.7869 12.4 12.7869C12.0917 12.7869 11.796 12.6644 11.578 12.4464C11.36 12.2284 11.2375 11.9327 11.2375 11.6244C11.2375 10.494 11.6866 9.40986 12.486 8.61052C13.2853 7.81119 14.3695 7.36213 15.5 7.36213V7.36213Z" fill="#fff"/>
</svg>
