<svg width="62" height="51" viewBox="0 0 62 51" fill="none" xmlns="http://www.w3.org/2000/svg">
<path opacity="0.12" fill-rule="evenodd" clip-rule="evenodd" d="M39.4502 27.5153C39.8503 27.3631 40.1908 27.0226 40.8718 26.3416L42.3414 24.8719C43.0224 24.1909 43.3629 23.8504 43.5152 23.4504C43.6494 23.0977 43.6811 22.7143 43.6067 22.3444C43.5223 21.9248 43.2424 21.5329 42.6826 20.7492L41.161 18.619C40.8037 18.1187 40.7086 17.4841 40.8235 16.8802C40.9393 16.2713 41 15.6428 41 15.0001C41 14.3575 40.9393 13.729 40.8235 13.1201C40.7086 12.5162 40.8037 11.8816 41.161 11.3814L42.6826 9.25112C43.2424 8.46743 43.5223 8.07559 43.6067 7.65595C43.6811 7.28603 43.6494 6.90261 43.5152 6.54996C43.3629 6.14991 43.0224 5.80941 42.3414 5.12841L40.8718 3.65877C40.1908 2.97778 39.8503 2.63728 39.4502 2.485C39.0976 2.35077 38.7142 2.31904 38.3442 2.39347C37.9246 2.4779 37.5328 2.75779 36.7491 3.31757L34.6189 4.8391C34.1187 5.19642 33.4841 5.2915 32.8802 5.1766C32.2712 5.06075 31.6427 5.00012 31 5.00012C30.3573 5.00012 29.7288 5.06075 29.1198 5.17659C28.5159 5.29148 27.8813 5.1964 27.3811 4.83909L25.2509 3.31752C24.4672 2.75774 24.0754 2.47786 23.6557 2.39342C23.2858 2.31899 22.9024 2.35073 22.5498 2.48496C22.1497 2.63723 21.8092 2.97773 21.1282 3.65872L19.6586 5.12837L19.6586 5.12837C18.9776 5.80936 18.6371 6.14986 18.4848 6.54991C18.3506 6.90256 18.3188 7.28598 18.3933 7.6559C18.4777 8.07554 18.7576 8.46739 19.3174 9.25107L20.8389 11.3813C21.1962 11.8815 21.2913 12.5161 21.1764 13.12C21.0606 13.729 21 14.3575 21 15.0001C21 15.6428 21.0606 16.2713 21.1764 16.8803C21.2913 17.4842 21.1963 18.1188 20.8389 18.6191L19.3174 20.7493C18.7576 21.533 18.4777 21.9248 18.3933 22.3444C18.3188 22.7144 18.3506 23.0978 18.4848 23.4504C18.6371 23.8505 18.9776 24.191 19.6586 24.872L21.1282 26.3416L21.1282 26.3416C21.8092 27.0226 22.1497 27.3631 22.5498 27.5154C22.9024 27.6496 23.2858 27.6814 23.6557 27.6069C24.0754 27.5225 24.4672 27.2426 25.2509 26.6828L27.3812 25.1612C27.8814 24.8039 28.516 24.7088 29.1199 24.8237C29.7288 24.9395 30.3573 25.0001 31 25.0001C31.6426 25.0001 32.2711 24.9395 32.8801 24.8237C33.484 24.7088 34.1186 24.8039 34.6188 25.1612L36.7491 26.6828L36.7491 26.6828C37.5328 27.2426 37.9246 27.5224 38.3442 27.6069C38.7141 27.6813 39.0976 27.6496 39.4502 27.5153ZM31 18.75C33.0711 18.75 34.75 17.0711 34.75 15C34.75 12.9289 33.0711 11.25 31 11.25C28.9289 11.25 27.25 12.9289 27.25 15C27.25 17.0711 28.9289 18.75 31 18.75Z" fill="white"/>
<path d="M40.8718 26.3416L40.3414 25.8112L40.3414 25.8112L40.8718 26.3416ZM39.4502 27.5153L39.1834 26.8144L39.1834 26.8144L39.4502 27.5153ZM42.3414 24.8719L42.8717 25.4023L42.8717 25.4023L42.3414 24.8719ZM43.5152 23.4504L44.2161 23.7172L44.2161 23.7172L43.5152 23.4504ZM43.6067 22.3444L44.342 22.1965L44.342 22.1965L43.6067 22.3444ZM42.6826 20.7492L42.0723 21.1852L42.0723 21.1852L42.6826 20.7492ZM41.161 18.619L40.5507 19.0549L40.5507 19.0549L41.161 18.619ZM40.8235 16.8802L40.0867 16.7401L40.0867 16.7401L40.8235 16.8802ZM40.8235 13.1201L41.5603 12.9799L41.5603 12.9799L40.8235 13.1201ZM41.161 11.3814L40.5507 10.9454L40.5507 10.9454L41.161 11.3814ZM42.6826 9.25112L43.2929 9.68705L43.2929 9.68705L42.6826 9.25112ZM43.6067 7.65595L42.8715 7.508L42.8715 7.50801L43.6067 7.65595ZM43.5152 6.54996L42.8142 6.81676L42.8142 6.81677L43.5152 6.54996ZM42.3414 5.12841L41.8111 5.65874L41.8111 5.65874L42.3414 5.12841ZM40.8718 3.65877L40.3414 4.1891L40.3414 4.1891L40.8718 3.65877ZM39.4502 2.485L39.717 1.78406L39.717 1.78406L39.4502 2.485ZM38.3442 2.39347L38.1963 1.6582L38.1963 1.6582L38.3442 2.39347ZM36.7491 3.31757L36.3131 2.70727L36.3131 2.70727L36.7491 3.31757ZM34.6189 4.8391L34.183 4.2288L34.183 4.2288L34.6189 4.8391ZM32.8802 5.1766L33.0203 4.43982L33.0203 4.43982L32.8802 5.1766ZM29.1198 5.17659L29.26 5.91338L29.26 5.91338L29.1198 5.17659ZM27.3811 4.83909L26.9452 5.44939L26.9452 5.44939L27.3811 4.83909ZM25.2509 3.31752L24.815 3.92782L24.815 3.92782L25.2509 3.31752ZM23.6557 2.39342L23.8037 1.65816L23.8037 1.65816L23.6557 2.39342ZM22.5498 2.48496L22.8166 3.18589L22.8166 3.18589L22.5498 2.48496ZM21.1282 3.65872L21.6585 4.18905L21.6585 4.18905L21.1282 3.65872ZM19.6586 5.12837L19.1282 4.59804L19.1282 4.59804L19.6586 5.12837ZM19.6586 5.12837L19.1282 4.59804L19.1282 4.59804L19.6586 5.12837ZM18.4848 6.54991L17.7839 6.28311L17.7839 6.28311L18.4848 6.54991ZM18.3933 7.6559L17.658 7.80384L17.658 7.80384L18.3933 7.6559ZM19.3174 9.25107L19.9277 8.81514L19.9277 8.81514L19.3174 9.25107ZM20.8389 11.3813L20.2286 11.8172L20.2286 11.8172L20.8389 11.3813ZM21.1764 13.12L20.4396 12.9798L20.4396 12.9798L21.1764 13.12ZM21.1764 16.8803L21.9132 16.7401L21.9132 16.7401L21.1764 16.8803ZM20.8389 18.6191L21.4492 19.055L21.4492 19.055L20.8389 18.6191ZM19.3174 20.7493L18.7071 20.3133L18.7071 20.3133L19.3174 20.7493ZM18.3933 22.3444L17.658 22.1965L17.658 22.1965L18.3933 22.3444ZM18.4848 23.4504L17.7839 23.7172L17.7839 23.7172L18.4848 23.4504ZM19.6586 24.872L19.1282 25.4023L19.1282 25.4023L19.6586 24.872ZM21.1282 26.3416L21.7222 25.8837C21.7026 25.8582 21.6813 25.834 21.6585 25.8113L21.1282 26.3416ZM21.1282 26.3416L20.5342 26.7995C20.5539 26.825 20.5751 26.8492 20.5979 26.872L21.1282 26.3416ZM22.5498 27.5154L22.283 28.2163L22.283 28.2163L22.5498 27.5154ZM23.6557 27.6069L23.8037 28.3422L23.8037 28.3422L23.6557 27.6069ZM25.2509 26.6828L25.6868 27.2931L25.6868 27.2931L25.2509 26.6828ZM27.3812 25.1612L26.9453 24.5509L26.9453 24.5509L27.3812 25.1612ZM29.1199 24.8237L29.2601 24.0869L29.2601 24.0869L29.1199 24.8237ZM32.8801 24.8237L32.7399 24.0869L32.7399 24.0869L32.8801 24.8237ZM34.6188 25.1612L35.0547 24.5509L35.0547 24.5509L34.6188 25.1612ZM36.7491 26.6828L36.3131 27.2931C36.3197 27.2978 36.3263 27.3023 36.333 27.3068L36.7491 26.6828ZM36.7491 26.6828L37.185 26.0725C37.1784 26.0678 37.1718 26.0632 37.1651 26.0587L36.7491 26.6828ZM38.3442 27.6069L38.4922 26.8716L38.4922 26.8716L38.3442 27.6069ZM40.3414 25.8112C39.993 26.1597 39.7606 26.3914 39.5668 26.5579C39.3802 26.7183 39.2704 26.7813 39.1834 26.8144L39.717 28.2163C40.0301 28.0971 40.2906 27.9137 40.5445 27.6955C40.7912 27.4835 41.0696 27.2044 41.4021 26.8719L40.3414 25.8112ZM41.8111 24.3416L40.3414 25.8112L41.4021 26.8719L42.8717 25.4023L41.8111 24.3416ZM42.8142 23.1836C42.7811 23.2706 42.7181 23.3803 42.5577 23.567C42.3912 23.7608 42.1595 23.9931 41.8111 24.3416L42.8717 25.4023C43.2043 25.0697 43.4833 24.7914 43.6954 24.5446C43.9136 24.2907 44.097 24.0302 44.2161 23.7172L42.8142 23.1836ZM42.8714 22.4923C42.918 22.7235 42.8981 22.9632 42.8142 23.1836L44.2161 23.7172C44.4007 23.2323 44.4443 22.7051 44.342 22.1965L42.8714 22.4923ZM42.0723 21.1852C42.3588 21.5862 42.5491 21.8535 42.6815 22.072C42.809 22.2824 42.8531 22.4011 42.8714 22.4923L44.342 22.1965C44.2759 21.8681 44.1378 21.581 43.9644 21.2947C43.7958 21.0164 43.5662 20.696 43.2929 20.3133L42.0723 21.1852ZM40.5507 19.0549L42.0723 21.1852L43.2929 20.3133L41.7713 18.183L40.5507 19.0549ZM40.0867 16.7401C39.9411 17.5053 40.0526 18.3576 40.5507 19.0549L41.7713 18.183C41.5548 17.8799 41.4761 17.4629 41.5603 17.0204L40.0867 16.7401ZM40.25 15.0001C40.25 15.5955 40.1938 16.1771 40.0867 16.7401L41.5603 17.0204C41.6849 16.3655 41.75 15.6901 41.75 15.0001H40.25ZM40.0867 13.2602C40.1938 13.8232 40.25 14.4048 40.25 15.0001H41.75C41.75 14.3102 41.6849 13.6348 41.5603 12.9799L40.0867 13.2602ZM40.5507 10.9454C40.0526 11.6427 39.9411 12.495 40.0867 13.2602L41.5603 12.9799C41.4761 12.5374 41.5548 12.1204 41.7713 11.8173L40.5507 10.9454ZM42.0723 8.81519L40.5507 10.9454L41.7713 11.8173L43.2929 9.68705L42.0723 8.81519ZM42.8715 7.50801C42.8531 7.59927 42.809 7.7179 42.6815 7.92835C42.5491 8.14688 42.3588 8.41417 42.0723 8.81519L43.2929 9.68705C43.5663 9.30438 43.7958 8.98391 43.9644 8.70568C44.1378 8.41939 44.2759 8.13227 44.342 7.80388L42.8715 7.50801ZM42.8142 6.81677C42.8981 7.03717 42.918 7.27681 42.8715 7.508L44.342 7.80389C44.4443 7.29525 44.4007 6.76804 44.2161 6.28316L42.8142 6.81677ZM41.8111 5.65874C42.1596 6.00722 42.3912 6.23959 42.5578 6.43337C42.7181 6.62 42.7811 6.72976 42.8142 6.81676L44.2161 6.28316C44.097 5.97011 43.9136 5.7096 43.6954 5.45571C43.4833 5.20898 43.2043 4.93061 42.8717 4.59808L41.8111 5.65874ZM40.3414 4.1891L41.8111 5.65874L42.8717 4.59808L41.4021 3.12844L40.3414 4.1891ZM39.1834 3.18594C39.2704 3.21906 39.3802 3.28204 39.5668 3.44243C39.7606 3.60896 39.993 3.84063 40.3414 4.1891L41.4021 3.12844C41.0696 2.79592 40.7912 2.51684 40.5445 2.3048C40.2906 2.08662 40.0301 1.90322 39.717 1.78406L39.1834 3.18594ZM38.4922 3.12873C38.7234 3.08222 38.963 3.10205 39.1834 3.18594L39.717 1.78406C39.2321 1.5995 38.7049 1.55586 38.1963 1.6582L38.4922 3.12873ZM37.185 3.92787C37.586 3.64142 37.8533 3.45111 38.0718 3.3187C38.2823 3.19118 38.4009 3.1471 38.4922 3.12873L38.1963 1.6582C37.8679 1.72428 37.5808 1.86235 37.2945 2.03583C37.0163 2.20442 36.6958 2.43393 36.3131 2.70727L37.185 3.92787ZM35.0548 5.4494L37.185 3.92787L36.3131 2.70727L34.183 4.2288L35.0548 5.4494ZM32.74 5.91339C33.5053 6.05898 34.3575 5.9475 35.0548 5.4494L34.183 4.2288C33.8798 4.44535 33.4629 4.52401 33.0203 4.43982L32.74 5.91339ZM31 5.75012C31.5954 5.75012 32.177 5.80628 32.74 5.91339L33.0203 4.43982C32.3654 4.31522 31.6899 4.25012 31 4.25012V5.75012ZM29.26 5.91338C29.823 5.80628 30.4046 5.75012 31 5.75012V4.25012C30.31 4.25012 29.6346 4.31522 28.9797 4.4398L29.26 5.91338ZM26.9452 5.44939C27.6425 5.94747 28.4947 6.05896 29.26 5.91338L28.9797 4.4398C28.5371 4.52399 28.1202 4.44532 27.817 4.22879L26.9452 5.44939ZM24.815 3.92782L26.9452 5.44939L27.817 4.22879L25.6868 2.70722L24.815 3.92782ZM23.5078 3.12869C23.5991 3.14705 23.7177 3.19113 23.9281 3.31865C24.1467 3.45106 24.414 3.64138 24.815 3.92782L25.6868 2.70722C25.3042 2.43389 24.9837 2.20437 24.7055 2.03578C24.4192 1.86231 24.1321 1.72423 23.8037 1.65816L23.5078 3.12869ZM22.8166 3.18589C23.037 3.102 23.2766 3.08217 23.5078 3.12869L23.8037 1.65816C23.295 1.55582 22.7678 1.59945 22.2829 1.78402L22.8166 3.18589ZM21.6585 4.18905C22.007 3.84058 22.2394 3.60891 22.4332 3.44238C22.6198 3.282 22.7296 3.21901 22.8166 3.18589L22.2829 1.78402C21.9699 1.90318 21.7094 2.08658 21.4555 2.30476C21.2088 2.51679 20.9304 2.79587 20.5979 3.12839L21.6585 4.18905ZM20.1889 5.6587L21.6585 4.18905L20.5979 3.12839L19.1282 4.59804L20.1889 5.6587ZM20.1889 5.6587L20.1889 5.6587L19.1282 4.59804L19.1282 4.59804L20.1889 5.6587ZM19.1857 6.81672C19.2188 6.72972 19.2818 6.61995 19.4422 6.43332C19.6087 6.23954 19.8404 6.00717 20.1889 5.6587L19.1282 4.59804C18.7957 4.93056 18.5166 5.20894 18.3046 5.45567C18.0864 5.70955 17.903 5.97006 17.7839 6.28311L19.1857 6.81672ZM19.1285 7.50796C19.082 7.27676 19.1018 7.03712 19.1857 6.81672L17.7839 6.28311C17.5993 6.768 17.5557 7.2952 17.658 7.80384L19.1285 7.50796ZM19.9277 8.81514C19.6412 8.41412 19.4509 8.14683 19.3185 7.92831C19.191 7.71785 19.1469 7.59922 19.1285 7.50796L17.658 7.80384C17.7241 8.13222 17.8621 8.41934 18.0356 8.70563C18.2042 8.98386 18.4337 9.30433 18.7071 9.687L19.9277 8.81514ZM21.4492 10.9453L19.9277 8.81514L18.7071 9.687L20.2286 11.8172L21.4492 10.9453ZM21.9132 13.2602C22.0588 12.4949 21.9473 11.6427 21.4492 10.9453L20.2286 11.8172C20.4452 12.1203 20.5238 12.5373 20.4396 12.9798L21.9132 13.2602ZM21.75 15.0001C21.75 14.4047 21.8061 13.8231 21.9132 13.2602L20.4396 12.9798C20.3151 13.6348 20.25 14.3102 20.25 15.0001H21.75ZM21.9132 16.7401C21.8061 16.1771 21.75 15.5955 21.75 15.0001H20.25C20.25 15.6901 20.3151 16.3655 20.4397 17.0205L21.9132 16.7401ZM21.4492 19.055C21.9473 18.3577 22.0588 17.5054 21.9132 16.7401L20.4397 17.0205C20.5238 17.463 20.4452 17.88 20.2286 18.1831L21.4492 19.055ZM19.9277 21.1852L21.4492 19.055L20.2286 18.1831L18.7071 20.3133L19.9277 21.1852ZM19.1285 22.4924C19.1469 22.4011 19.191 22.2825 19.3185 22.072C19.4509 21.8535 19.6412 21.5862 19.9277 21.1852L18.7071 20.3133C18.4337 20.696 18.2042 21.0165 18.0356 21.2947C17.8622 21.581 17.7241 21.8681 17.658 22.1965L19.1285 22.4924ZM19.1857 23.1836C19.1018 22.9632 19.082 22.7236 19.1285 22.4924L17.658 22.1965C17.5557 22.7051 17.5993 23.2323 17.7839 23.7172L19.1857 23.1836ZM20.1889 24.3416C19.8404 23.9932 19.6088 23.7608 19.4422 23.567C19.2818 23.3804 19.2189 23.2706 19.1857 23.1836L17.7839 23.7172C17.903 24.0303 18.0864 24.2908 18.3046 24.5447C18.5166 24.7914 18.7957 25.0698 19.1282 25.4023L20.1889 24.3416ZM21.6585 25.8113L20.1889 24.3416L19.1282 25.4023L20.5979 26.8719L21.6585 25.8113ZM21.7222 25.8837L21.7222 25.8837L20.5342 26.7995L20.5342 26.7995L21.7222 25.8837ZM22.8166 26.8144C22.7296 26.7813 22.6198 26.7183 22.4332 26.558C22.2394 26.3914 22.007 26.1598 21.6585 25.8113L20.5979 26.872C20.9304 27.2045 21.2088 27.4836 21.4555 27.6956C21.7094 27.9138 21.9699 28.0972 22.283 28.2163L22.8166 26.8144ZM23.5078 26.8717C23.2766 26.9182 23.037 26.8983 22.8166 26.8144L22.283 28.2163C22.7678 28.4009 23.295 28.4445 23.8037 28.3422L23.5078 26.8717ZM24.815 26.0725C24.414 26.359 24.1467 26.5493 23.9281 26.6817C23.7177 26.8092 23.5991 26.8533 23.5078 26.8717L23.8037 28.3422C24.1321 28.2761 24.4192 28.138 24.7055 27.9646C24.9837 27.796 25.3042 27.5665 25.6868 27.2931L24.815 26.0725ZM26.9453 24.5509L24.815 26.0725L25.6868 27.2931L27.8171 25.7715L26.9453 24.5509ZM29.2601 24.0869C28.4948 23.9413 27.6426 24.0528 26.9453 24.5509L27.8171 25.7715C28.1203 25.5549 28.5372 25.4763 28.9798 25.5605L29.2601 24.0869ZM31 24.2501C30.4046 24.2501 29.823 24.194 29.2601 24.0869L28.9798 25.5605C29.6347 25.685 30.3101 25.7501 31 25.7501V24.2501ZM32.7399 24.0869C32.1769 24.194 31.5954 24.2501 31 24.2501V25.7501C31.6899 25.7501 32.3653 25.685 33.0202 25.5604L32.7399 24.0869ZM35.0547 24.5509C34.3574 24.0528 33.5052 23.9413 32.7399 24.0869L33.0202 25.5604C33.4628 25.4763 33.8797 25.5549 34.1829 25.7715L35.0547 24.5509ZM37.185 26.0725L35.0547 24.5509L34.1829 25.7715L36.3131 27.2931L37.185 26.0725ZM37.1651 26.0587L37.1651 26.0587L36.333 27.3068L36.3331 27.3068L37.1651 26.0587ZM38.4922 26.8716C38.4009 26.8532 38.2823 26.8092 38.0718 26.6816C37.8533 26.5492 37.586 26.3589 37.185 26.0725L36.3131 27.2931C36.6958 27.5664 37.0163 27.7959 37.2945 27.9645C37.5808 28.138 37.8679 28.2761 38.1963 28.3421L38.4922 26.8716ZM39.1834 26.8144C38.963 26.8983 38.7234 26.9181 38.4922 26.8716L38.1963 28.3421C38.7049 28.4445 39.2321 28.4008 39.717 28.2163L39.1834 26.8144ZM34 15C34 16.6569 32.6569 18 31 18V19.5C33.4853 19.5 35.5 17.4853 35.5 15H34ZM31 12C32.6569 12 34 13.3432 34 15H35.5C35.5 12.5147 33.4853 10.5 31 10.5V12ZM28 15C28 13.3432 29.3431 12 31 12V10.5C28.5147 10.5 26.5 12.5147 26.5 15H28ZM31 18C29.3431 18 28 16.6569 28 15H26.5C26.5 17.4853 28.5147 19.5 31 19.5V18Z" fill="white"/>
<path d="M4.9343 36.6914H3.84553C3.82564 36.5505 3.78504 36.4254 3.72372 36.3161C3.66241 36.205 3.58369 36.1106 3.48757 36.0327C3.39145 35.9548 3.28042 35.8951 3.15447 35.8537C3.03018 35.8123 2.89512 35.7915 2.74929 35.7915C2.4858 35.7915 2.25627 35.857 2.06072 35.9879C1.86518 36.1172 1.71354 36.3061 1.60582 36.5547C1.49811 36.8016 1.44425 37.1016 1.44425 37.4545C1.44425 37.8175 1.49811 38.1224 1.60582 38.3693C1.7152 38.6162 1.86766 38.8027 2.06321 38.9286C2.25876 39.0546 2.48497 39.1175 2.74183 39.1175C2.88601 39.1175 3.01941 39.0985 3.14205 39.0604C3.26634 39.0223 3.37654 38.9667 3.47266 38.8938C3.56877 38.8192 3.64832 38.7289 3.71129 38.6229C3.77592 38.5168 3.82067 38.3958 3.84553 38.2599L4.9343 38.2649C4.90613 38.4986 4.8357 38.724 4.72301 38.9411C4.61198 39.1565 4.462 39.3496 4.27308 39.5202C4.08582 39.6893 3.8621 39.8235 3.60192 39.9229C3.34339 40.0207 3.0509 40.0696 2.72443 40.0696C2.27036 40.0696 1.86435 39.9669 1.50639 39.7614C1.15009 39.5559 0.868371 39.2584 0.661222 38.869C0.455729 38.4795 0.352983 38.008 0.352983 37.4545C0.352983 36.8994 0.457386 36.4271 0.666193 36.0376C0.875 35.6482 1.15838 35.3516 1.51634 35.1477C1.87429 34.9422 2.27699 34.8395 2.72443 34.8395C3.01941 34.8395 3.29285 34.8809 3.54474 34.9638C3.7983 35.0466 4.02285 35.1676 4.2184 35.3267C4.41394 35.4841 4.57304 35.6772 4.69567 35.9059C4.81996 36.1346 4.8995 36.3964 4.9343 36.6914ZM10.3844 37.4545C10.3844 38.0097 10.2792 38.482 10.0687 38.8714C9.85991 39.2609 9.57487 39.5584 9.2136 39.7638C8.85399 39.9677 8.44963 40.0696 8.00053 40.0696C7.54812 40.0696 7.1421 39.9669 6.78249 39.7614C6.42288 39.5559 6.13867 39.2584 5.92987 38.869C5.72106 38.4795 5.61665 38.008 5.61665 37.4545C5.61665 36.8994 5.72106 36.4271 5.92987 36.0376C6.13867 35.6482 6.42288 35.3516 6.78249 35.1477C7.1421 34.9422 7.54812 34.8395 8.00053 34.8395C8.44963 34.8395 8.85399 34.9422 9.2136 35.1477C9.57487 35.3516 9.85991 35.6482 10.0687 36.0376C10.2792 36.4271 10.3844 36.8994 10.3844 37.4545ZM9.29315 37.4545C9.29315 37.0949 9.23929 36.7917 9.13157 36.5447C9.02551 36.2978 8.87553 36.1106 8.68164 35.983C8.48775 35.8554 8.26071 35.7915 8.00053 35.7915C7.74035 35.7915 7.51332 35.8554 7.31942 35.983C7.12553 36.1106 6.97473 36.2978 6.86701 36.5447C6.76095 36.7917 6.70792 37.0949 6.70792 37.4545C6.70792 37.8142 6.76095 38.1174 6.86701 38.3643C6.97473 38.6113 7.12553 38.7985 7.31942 38.9261C7.51332 39.0537 7.74035 39.1175 8.00053 39.1175C8.26071 39.1175 8.48775 39.0537 8.68164 38.9261C8.87553 38.7985 9.02551 38.6113 9.13157 38.3643C9.23929 38.1174 9.29315 37.8142 9.29315 37.4545ZM15.4399 34.9091V40H14.5102L12.2954 36.7958H12.2581V40H11.1817V34.9091H12.1263L14.3238 38.1108H14.3685V34.9091H15.4399ZM16.3292 40V34.9091H19.6999V35.7965H17.4055V37.0096H19.4762V37.897H17.4055V40H16.3292ZM21.5003 34.9091V40H20.4239V34.9091H21.5003ZM25.7615 36.5547C25.7267 36.4337 25.6779 36.3268 25.6149 36.234C25.5519 36.1396 25.4748 36.06 25.3837 35.9954C25.2942 35.9291 25.1915 35.8786 25.0755 35.8438C24.9611 35.8089 24.8343 35.7915 24.6951 35.7915C24.435 35.7915 24.2063 35.8562 24.0091 35.9854C23.8135 36.1147 23.661 36.3028 23.5517 36.5497C23.4423 36.795 23.3876 37.0949 23.3876 37.4496C23.3876 37.8042 23.4415 38.1058 23.5492 38.3544C23.6569 38.603 23.8094 38.7927 24.0066 38.9237C24.2038 39.0529 24.4366 39.1175 24.7051 39.1175C24.9487 39.1175 25.1567 39.0745 25.329 38.9883C25.503 38.9004 25.6356 38.777 25.7267 38.6179C25.8195 38.4588 25.8659 38.2707 25.8659 38.0536L26.0847 38.0859H24.7722V37.2756H26.9025V37.9169C26.9025 38.3643 26.8081 38.7488 26.6191 39.0703C26.4302 39.3902 26.17 39.6371 25.8386 39.8111C25.5072 39.9834 25.1277 40.0696 24.7001 40.0696C24.2228 40.0696 23.8036 39.9644 23.4423 39.7539C23.081 39.5418 22.7993 39.241 22.5971 38.8516C22.3966 38.4605 22.2963 37.9964 22.2963 37.4595C22.2963 37.0469 22.356 36.679 22.4753 36.3558C22.5963 36.031 22.7653 35.7559 22.9824 35.5305C23.1995 35.3052 23.4522 35.1336 23.7406 35.016C24.0289 34.8983 24.3413 34.8395 24.6777 34.8395C24.9661 34.8395 25.2346 34.8817 25.4831 34.9663C25.7317 35.0491 25.9521 35.1668 26.1444 35.3192C26.3382 35.4717 26.4965 35.6532 26.6191 35.8636C26.7418 36.0724 26.8205 36.3028 26.8553 36.5547H25.7615ZM30.8556 34.9091H31.9319V38.2152C31.9319 38.5864 31.8432 38.9112 31.6659 39.1896C31.4903 39.468 31.2442 39.6851 30.9276 39.8409C30.6111 39.995 30.2424 40.0721 29.8215 40.0721C29.3989 40.0721 29.0293 39.995 28.7128 39.8409C28.3963 39.6851 28.1502 39.468 27.9745 39.1896C27.7989 38.9112 27.711 38.5864 27.711 38.2152V34.9091H28.7874V38.1232C28.7874 38.3171 28.8296 38.4895 28.9142 38.6403C29.0003 38.7911 29.1213 38.9096 29.2771 38.9957C29.4329 39.0819 29.6143 39.125 29.8215 39.125C30.0303 39.125 30.2117 39.0819 30.3659 38.9957C30.5216 38.9096 30.6418 38.7911 30.7263 38.6403C30.8125 38.4895 30.8556 38.3171 30.8556 38.1232V34.9091ZM32.8175 40V34.9091H34.826C35.2105 34.9091 35.5386 34.9779 35.8104 35.1154C36.0838 35.2513 36.2918 35.4444 36.4343 35.6946C36.5785 35.9432 36.6506 36.2357 36.6506 36.5721C36.6506 36.9102 36.5777 37.201 36.4318 37.4446C36.286 37.6866 36.0747 37.8722 35.7979 38.0014C35.5228 38.1307 35.1897 38.1953 34.7987 38.1953H33.4538V37.3303H34.6246C34.8301 37.3303 35.0008 37.3021 35.1367 37.2457C35.2726 37.1894 35.3737 37.1049 35.44 36.9922C35.5079 36.8795 35.5419 36.7395 35.5419 36.5721C35.5419 36.4031 35.5079 36.2605 35.44 36.1445C35.3737 36.0285 35.2718 35.9407 35.1342 35.881C34.9983 35.8197 34.8268 35.7891 34.6197 35.7891H33.8938V40H32.8175ZM35.5668 37.6832L36.832 40H35.6438L34.4059 37.6832H35.5668ZM38.2887 40H37.1353L38.8928 34.9091H40.2798L42.0348 40H40.8814L39.6062 36.0724H39.5664L38.2887 40ZM38.2166 37.9989H40.9411V38.8391H38.2166V37.9989ZM46.9001 36.6914H45.8113C45.7915 36.5505 45.7509 36.4254 45.6895 36.3161C45.6282 36.205 45.5495 36.1106 45.4534 36.0327C45.3573 35.9548 45.2462 35.8951 45.1203 35.8537C44.996 35.8123 44.8609 35.7915 44.7151 35.7915C44.4516 35.7915 44.2221 35.857 44.0265 35.9879C43.831 36.1172 43.6794 36.3061 43.5716 36.5547C43.4639 36.8016 43.4101 37.1016 43.4101 37.4545C43.4101 37.8175 43.4639 38.1224 43.5716 38.3693C43.681 38.6162 43.8335 38.8027 44.029 38.9286C44.2246 39.0546 44.4508 39.1175 44.7077 39.1175C44.8518 39.1175 44.9852 39.0985 45.1079 39.0604C45.2322 39.0223 45.3424 38.9667 45.4385 38.8938C45.5346 38.8192 45.6141 38.7289 45.6771 38.6229C45.7417 38.5168 45.7865 38.3958 45.8113 38.2599L46.9001 38.2649C46.872 38.4986 46.8015 38.724 46.6888 38.9411C46.5778 39.1565 46.4278 39.3496 46.2389 39.5202C46.0516 39.6893 45.8279 39.8235 45.5677 39.9229C45.3092 40.0207 45.0167 40.0696 44.6903 40.0696C44.2362 40.0696 43.8302 39.9669 43.4722 39.7614C43.1159 39.5559 42.8342 39.2584 42.627 38.869C42.4215 38.4795 42.3188 38.008 42.3188 37.4545C42.3188 36.8994 42.4232 36.4271 42.632 36.0376C42.8408 35.6482 43.1242 35.3516 43.4822 35.1477C43.8401 34.9422 44.2428 34.8395 44.6903 34.8395C44.9852 34.8395 45.2587 34.8809 45.5106 34.9638C45.7641 35.0466 45.9887 35.1676 46.1842 35.3267C46.3798 35.4841 46.5389 35.6772 46.6615 35.9059C46.7858 36.1346 46.8653 36.3964 46.9001 36.6914ZM44.4243 39.9851H44.9115L44.8717 40.2013C45.0424 40.2279 45.1816 40.2917 45.2893 40.3928C45.3987 40.4938 45.4542 40.6314 45.4559 40.8054C45.4575 41.0523 45.3432 41.2487 45.1128 41.3945C44.8825 41.542 44.5593 41.6158 44.1434 41.6158L44.1334 41.1435C44.3422 41.1435 44.5055 41.1178 44.6231 41.0664C44.7425 41.0167 44.8046 40.9388 44.8096 40.8327C44.8129 40.7317 44.7739 40.6546 44.6927 40.6016C44.6115 40.5485 44.4848 40.5112 44.3124 40.4897L44.4243 39.9851ZM52.3502 37.4545C52.3502 38.0097 52.245 38.482 52.0345 38.8714C51.8257 39.2609 51.5407 39.5584 51.1794 39.7638C50.8198 39.9677 50.4155 40.0696 49.9664 40.0696C49.5139 40.0696 49.1079 39.9669 48.7483 39.7614C48.3887 39.5559 48.1045 39.2584 47.8957 38.869C47.6869 38.4795 47.5825 38.008 47.5825 37.4545C47.5825 36.8994 47.6869 36.4271 47.8957 36.0376C48.1045 35.6482 48.3887 35.3516 48.7483 35.1477C49.1079 34.9422 49.5139 34.8395 49.9664 34.8395C50.4155 34.8395 50.8198 34.9422 51.1794 35.1477C51.5407 35.3516 51.8257 35.6482 52.0345 36.0376C52.245 36.4271 52.3502 36.8994 52.3502 37.4545ZM51.259 37.4545C51.259 37.0949 51.2051 36.7917 51.0974 36.5447C50.9913 36.2978 50.8414 36.1106 50.6475 35.983C50.4536 35.8554 50.2265 35.7915 49.9664 35.7915C49.7062 35.7915 49.4791 35.8554 49.2852 35.983C49.0914 36.1106 48.9405 36.2978 48.8328 36.5447C48.7268 36.7917 48.6737 37.0949 48.6737 37.4545C48.6737 37.8142 48.7268 38.1174 48.8328 38.3643C48.9405 38.6113 49.0914 38.7985 49.2852 38.9261C49.4791 39.0537 49.7062 39.1175 49.9664 39.1175C50.2265 39.1175 50.4536 39.0537 50.6475 38.9261C50.8414 38.7985 50.9913 38.6113 51.0974 38.3643C51.2051 38.1174 51.259 37.8142 51.259 37.4545ZM49.2529 34.407L48.6663 34.3995C48.6663 34.083 48.7442 33.8402 48.8999 33.6712C49.0557 33.5021 49.2471 33.4168 49.4742 33.4151C49.5902 33.4151 49.6896 33.4342 49.7725 33.4723C49.8553 33.5088 49.9307 33.5518 49.9987 33.6016C50.0666 33.6513 50.1312 33.6952 50.1926 33.7333C50.2539 33.7698 50.3202 33.788 50.3914 33.788C50.4875 33.7863 50.5605 33.7507 50.6102 33.6811C50.6615 33.6098 50.6872 33.517 50.6872 33.4027L51.2664 33.4201C51.2631 33.7333 51.1836 33.9753 51.0278 34.146C50.872 34.315 50.6814 34.4003 50.4561 34.402C50.3334 34.4036 50.2298 34.3854 50.1453 34.3473C50.0625 34.3092 49.9896 34.2661 49.9266 34.218C49.8636 34.1683 49.8023 34.1244 49.7426 34.0863C49.683 34.0482 49.6159 34.0291 49.5413 34.0291C49.4551 34.0291 49.3855 34.0631 49.3325 34.131C49.2794 34.199 49.2529 34.291 49.2529 34.407ZM53.1475 40V34.9091H56.5779V35.7965H54.2239V37.0096H56.4015V37.897H54.2239V39.1126H56.5879V40H53.1475ZM60.1954 36.3732C60.1755 36.1727 60.0902 36.0169 59.9394 35.9059C59.7886 35.7949 59.5839 35.7393 59.3254 35.7393C59.1497 35.7393 59.0014 35.7642 58.8804 35.8139C58.7594 35.862 58.6666 35.9291 58.602 36.0153C58.539 36.1014 58.5075 36.1992 58.5075 36.3086C58.5042 36.3997 58.5233 36.4793 58.5647 36.5472C58.6078 36.6152 58.6666 36.674 58.7412 36.7237C58.8158 36.7718 58.902 36.814 58.9997 36.8505C59.0975 36.8853 59.2019 36.9151 59.3129 36.94L59.7703 37.0494C59.9924 37.0991 60.1962 37.1654 60.3818 37.2482C60.5674 37.3311 60.7282 37.433 60.8641 37.554C61 37.675 61.1052 37.8175 61.1798 37.9815C61.256 38.1456 61.295 38.3337 61.2966 38.5458C61.295 38.8574 61.2154 39.1275 61.058 39.3562C60.9022 39.5832 60.6768 39.7597 60.3818 39.8857C60.0885 40.0099 59.7347 40.0721 59.3204 40.0721C58.9094 40.0721 58.5515 40.0091 58.2465 39.8832C57.9433 39.7572 57.7063 39.5708 57.5356 39.3239C57.3666 39.0753 57.2779 38.7679 57.2696 38.4016H58.3112C58.3228 38.5723 58.3717 38.7148 58.4578 38.8292C58.5457 38.9419 58.6625 39.0272 58.8083 39.0852C58.9558 39.1416 59.1224 39.1697 59.308 39.1697C59.4903 39.1697 59.6485 39.1432 59.7828 39.0902C59.9186 39.0372 60.0239 38.9634 60.0985 38.869C60.173 38.7745 60.2103 38.666 60.2103 38.5433C60.2103 38.429 60.1763 38.3329 60.1084 38.255C60.0421 38.1771 59.9443 38.1108 59.8151 38.0561C59.6875 38.0014 59.5309 37.9517 59.3453 37.907L58.7909 37.7678C58.3617 37.6634 58.0228 37.5001 57.7742 37.2781C57.5257 37.056 57.4022 36.7569 57.4039 36.3807C57.4022 36.0724 57.4842 35.8031 57.6499 35.5728C57.8173 35.3424 58.0468 35.1626 58.3385 35.0334C58.6302 34.9041 58.9616 34.8395 59.3328 34.8395C59.7107 34.8395 60.0405 34.9041 60.3222 35.0334C60.6056 35.1626 60.826 35.3424 60.9834 35.5728C61.1408 35.8031 61.222 36.07 61.227 36.3732H60.1954Z" fill="white"/>
</svg>
