<svg width="36" height="37" viewBox="0 0 36 37" fill="none" xmlns="http://www.w3.org/2000/svg">
<path opacity="0.12" fill-rule="evenodd" clip-rule="evenodd" d="M16.718 4.17527C16.5 4.60309 16.5 5.16315 16.5 6.28325V12.2166C16.5 13.3367 16.5 13.8967 16.718 14.3246C16.9097 14.7009 17.2157 15.0069 17.592 15.1986C18.0198 15.4166 18.5799 15.4166 19.7 15.4166H25.3C26.4201 15.4166 26.9802 15.4166 27.408 15.1986C27.7843 15.0069 28.0903 14.7009 28.282 14.3246C28.5 13.8967 28.5 13.3367 28.5 12.2166V6.28325C28.5 5.16315 28.5 4.60309 28.282 4.17527C28.0903 3.79895 27.7843 3.49299 27.408 3.30124C26.9802 3.08325 26.4201 3.08325 25.3 3.08325H19.7C18.5799 3.08325 18.0198 3.08325 17.592 3.30124C17.2157 3.49299 16.9097 3.79895 16.718 4.17527ZM7.71799 22.6753C7.5 23.1031 7.5 23.6631 7.5 24.7832V30.7166C7.5 31.8367 7.5 32.3967 7.71799 32.8246C7.90973 33.2009 8.21569 33.5069 8.59202 33.6986C9.01984 33.9166 9.5799 33.9166 10.7 33.9166H16.3C17.4201 33.9166 17.9802 33.9166 18.408 33.6986C18.7843 33.5069 19.0903 33.2009 19.282 32.8246C19.5 32.3967 19.5 31.8367 19.5 30.7166V24.7833C19.5 23.6631 19.5 23.1031 19.282 22.6753C19.0903 22.2989 18.7843 21.993 18.408 21.8012C17.9802 21.5833 17.4201 21.5833 16.3 21.5833H10.7C9.5799 21.5833 9.01984 21.5833 8.59202 21.8012C8.21569 21.993 7.90973 22.2989 7.71799 22.6753Z" fill="white"/>
<path fill-rule="evenodd" clip-rule="evenodd" d="M19.6696 2.33325L19.7 2.33325H25.3L25.3304 2.33325C25.8646 2.33324 26.3104 2.33323 26.6747 2.36299C27.0546 2.39403 27.4112 2.46114 27.7485 2.63298C28.2659 2.89664 28.6866 3.31733 28.9503 3.83478C29.1221 4.17204 29.1892 4.5287 29.2203 4.90858C29.25 5.27281 29.25 5.71865 29.25 6.2528V6.28325V8.49992H33C33.4142 8.49992 33.75 8.83571 33.75 9.24992C33.75 9.66413 33.4142 9.99992 33 9.99992H29.25V12.2166V12.247C29.25 12.7812 29.25 13.227 29.2203 13.5913C29.1892 13.9711 29.1221 14.3278 28.9503 14.6651C28.6866 15.1825 28.2659 15.6032 27.7485 15.8669C27.4112 16.0387 27.0546 16.1058 26.6747 16.1368C26.3104 16.1666 25.8646 16.1666 25.3305 16.1666H25.3305H25.3H19.7H19.6695H19.6695C19.1354 16.1666 18.6896 16.1666 18.3253 16.1368C17.9454 16.1058 17.5888 16.0387 17.2515 15.8669C16.7341 15.6032 16.3134 15.1825 16.0497 14.6651C15.8779 14.3278 15.8108 13.9711 15.7797 13.5913C15.75 13.227 15.75 12.7812 15.75 12.247V12.2166V6.28325V6.25282C15.75 5.71866 15.75 5.27282 15.7797 4.90858C15.8108 4.5287 15.8779 4.17204 16.0497 3.83478C16.3134 3.31733 16.7341 2.89664 17.2515 2.63298C17.5888 2.46114 17.9454 2.39403 18.3253 2.36299C18.6896 2.33323 19.1354 2.33324 19.6696 2.33325ZM27.75 6.28325V9.24992V12.2166C27.75 12.789 27.7494 13.1732 27.7252 13.4691C27.7018 13.7562 27.6599 13.8935 27.6138 13.9841C27.4939 14.2193 27.3027 14.4105 27.0675 14.5303C26.9769 14.5765 26.8396 14.6184 26.5525 14.6418C26.2566 14.666 25.8724 14.6666 25.3 14.6666H19.7C19.1276 14.6666 18.7434 14.666 18.4475 14.6418C18.1604 14.6184 18.0231 14.5765 17.9325 14.5303C17.6973 14.4105 17.5061 14.2193 17.3862 13.9841C17.3401 13.8935 17.2982 13.7562 17.2748 13.4691C17.2506 13.1732 17.25 12.789 17.25 12.2166V6.28325C17.25 5.71082 17.2506 5.32661 17.2748 5.03073C17.2982 4.74361 17.3401 4.60633 17.3862 4.51576C17.5061 4.28056 17.6973 4.08934 17.9325 3.96949C18.0231 3.92335 18.1604 3.88147 18.4475 3.85801C18.7434 3.83384 19.1276 3.83325 19.7 3.83325H25.3C25.8724 3.83325 26.2566 3.83384 26.5525 3.85801C26.8396 3.88147 26.9769 3.92335 27.0675 3.96949C27.3027 4.08934 27.4939 4.28056 27.6138 4.51576C27.6599 4.60633 27.7018 4.74361 27.7252 5.03073C27.7494 5.32661 27.75 5.71082 27.75 6.28325ZM3 26.9999C2.58579 26.9999 2.25 27.3357 2.25 27.7499C2.25 28.1641 2.58579 28.4999 3 28.4999H6.75V30.7166L6.75 30.747V30.747C6.74999 31.2812 6.74998 31.727 6.77974 32.0913C6.81078 32.4711 6.87789 32.8278 7.04973 33.1651C7.31338 33.6825 7.73408 34.1032 8.25153 34.3669C8.58879 34.5387 8.94545 34.6058 9.32533 34.6368C9.6895 34.6666 10.1352 34.6666 10.6693 34.6666H10.6695H10.7H16.3H16.3305H16.3307C16.8647 34.6666 17.3105 34.6666 17.6747 34.6368C18.0546 34.6058 18.4112 34.5387 18.7485 34.3669C19.2659 34.1032 19.6866 33.6825 19.9503 33.1651C20.1221 32.8278 20.1892 32.4711 20.2203 32.0913C20.25 31.727 20.25 31.2812 20.25 30.747V30.7166V24.7833V24.7528C20.25 24.2187 20.25 23.7728 20.2203 23.4086C20.1892 23.0287 20.1221 22.672 19.9503 22.3348C19.6866 21.8173 19.2659 21.3966 18.7485 21.133C18.4112 20.9611 18.0546 20.894 17.6747 20.863C17.3104 20.8332 16.8646 20.8332 16.3304 20.8333H16.3H10.7H10.6696C10.1354 20.8332 9.68956 20.8332 9.32533 20.863C8.94545 20.894 8.58879 20.9611 8.25153 21.133C7.73408 21.3966 7.31338 21.8173 7.04973 22.3348C6.87789 22.672 6.81078 23.0287 6.77974 23.4086C6.74998 23.7728 6.74999 24.2187 6.75 24.7528V24.7528L6.75 24.7832V26.9999H3ZM8.25 27.7499V30.7166C8.25 31.289 8.25058 31.6732 8.27476 31.9691C8.29822 32.2562 8.3401 32.3935 8.38624 32.4841C8.50608 32.7193 8.69731 32.9105 8.93251 33.0303C9.02307 33.0765 9.16035 33.1184 9.44748 33.1418C9.74336 33.166 10.1276 33.1666 10.7 33.1666H16.3C16.8724 33.1666 17.2566 33.166 17.5525 33.1418C17.8396 33.1184 17.9769 33.0765 18.0675 33.0303C18.3027 32.9105 18.4939 32.7193 18.6138 32.4841C18.6599 32.3935 18.7018 32.2562 18.7252 31.9691C18.7494 31.6732 18.75 31.289 18.75 30.7166V24.7833C18.75 24.2108 18.7494 23.8266 18.7252 23.5307C18.7018 23.2436 18.6599 23.1063 18.6138 23.0158C18.4939 22.7806 18.3027 22.5893 18.0675 22.4695C17.9769 22.4233 17.8396 22.3815 17.5525 22.358C17.2566 22.3338 16.8724 22.3333 16.3 22.3333H10.7C10.1276 22.3333 9.74336 22.3338 9.44748 22.358C9.16035 22.3815 9.02307 22.4233 8.93251 22.4695C8.69731 22.5893 8.50608 22.7806 8.38624 23.0158C8.3401 23.1063 8.29822 23.2436 8.27476 23.5307C8.25058 23.8266 8.25 24.2108 8.25 24.7832V27.7499ZM23.25 27.7499C23.25 27.3357 23.5858 26.9999 24 26.9999H33C33.4142 26.9999 33.75 27.3357 33.75 27.7499C33.75 28.1641 33.4142 28.4999 33 28.4999H24C23.5858 28.4999 23.25 28.1641 23.25 27.7499ZM3 8.49992C2.58579 8.49992 2.25 8.83571 2.25 9.24992C2.25 9.66413 2.58579 9.99992 3 9.99992H12C12.4142 9.99992 12.75 9.66413 12.75 9.24992C12.75 8.83571 12.4142 8.49992 12 8.49992H3Z" fill="white"/>
</svg>
