<svg width="45" height="51" viewBox="0 0 45 51" fill="none" xmlns="http://www.w3.org/2000/svg">
<path opacity="0.12" d="M34.399 13.4034C33.6816 7.7766 29.2234 3.31837 23.5966 2.60101C23.111 2.53911 22.8683 2.50815 22.6268 2.6053C22.4309 2.68411 22.2299 2.86111 22.1269 3.04549C22 3.27275 22 3.5485 22 4.1V11.8C22 12.9201 22 13.4802 22.218 13.908C22.4097 14.2843 22.7157 14.5903 23.092 14.782C23.5198 15 24.0799 15 25.2 15H32.9C33.4515 15 33.7272 15 33.9545 14.8731C34.1389 14.7701 34.3159 14.5691 34.3947 14.3732C34.4918 14.1317 34.4609 13.889 34.399 13.4034Z" fill="white"/>
<path fill-rule="evenodd" clip-rule="evenodd" d="M23.6915 1.85698L23.6005 1.84516C23.2084 1.79376 22.7755 1.737 22.3469 1.90943C21.9919 2.05222 21.6586 2.34574 21.4721 2.67977C21.34 2.91622 21.2908 3.15438 21.2693 3.37987C21.2499 3.58227 21.25 3.82026 21.25 4.07138L21.25 4.09994V11.7999V11.8304C21.25 12.3645 21.25 12.8104 21.2797 13.1746C21.3108 13.5545 21.3779 13.9112 21.5497 14.2484C21.8134 14.7659 22.2341 15.1866 22.7515 15.4502C23.0888 15.6221 23.4454 15.6892 23.8253 15.7202C24.1895 15.75 24.6354 15.75 25.1695 15.7499H25.1695H25.2H32.9L32.9285 15.7499C33.1797 15.75 33.4177 15.75 33.6201 15.7307C33.8456 15.7092 34.0837 15.6599 34.3202 15.5279C34.6542 15.3413 34.9477 15.008 35.0905 14.6531C35.2629 14.2244 35.2062 13.7915 35.1548 13.3995L35.143 13.3085C34.3824 7.3427 29.6572 2.61756 23.6915 1.85698ZM22.9067 3.30105L22.9069 3.30094C22.9091 3.29983 22.9255 3.29155 23.0037 3.29327C23.1069 3.29554 23.2441 3.31209 23.5018 3.34493C28.7896 4.01907 32.9809 8.21039 33.655 13.4982C33.6879 13.7558 33.7044 13.893 33.7067 13.9963C33.7084 14.0745 33.7001 14.0908 33.699 14.093L33.6989 14.0933L33.6989 14.0933L33.6988 14.0934L33.6987 14.0937L33.6981 14.0951L33.6956 14.1C33.6934 14.1043 33.6902 14.1099 33.6859 14.1167C33.6771 14.1305 33.6654 14.1463 33.6513 14.1623C33.6373 14.1783 33.6231 14.1919 33.6105 14.2024C33.6043 14.2075 33.5991 14.2114 33.5951 14.2141L33.5905 14.2172L33.5893 14.218L33.589 14.2182L33.5889 14.2182L33.5888 14.2182L33.5888 14.2182L33.5886 14.2183L33.5881 14.2186C33.5871 14.2189 33.5837 14.2202 33.5768 14.2221C33.5621 14.226 33.5326 14.2322 33.4776 14.2375C33.3551 14.2492 33.1899 14.2499 32.9 14.2499H25.2C24.6276 14.2499 24.2434 14.2494 23.9475 14.2252C23.6604 14.2017 23.5231 14.1598 23.4325 14.1137C23.1973 13.9939 23.0061 13.8026 22.8862 13.5674C22.8401 13.4769 22.7982 13.3396 22.7748 13.0525C22.7506 12.7566 22.75 12.3724 22.75 11.7999V4.09994C22.75 3.81007 22.7508 3.64483 22.7625 3.52233C22.7677 3.4673 22.7739 3.4378 22.7779 3.42312C22.7797 3.41623 22.781 3.41285 22.7814 3.41189L22.7816 3.41131L22.7817 3.41116L22.7817 3.41115L22.7817 3.4111L22.7817 3.41109L22.7817 3.41107L22.7818 3.41099L22.782 3.41066L22.7827 3.4094L22.7858 3.40481C22.7886 3.40084 22.7924 3.39565 22.7976 3.38949C22.8081 3.37686 22.8217 3.36269 22.8376 3.34862C22.8536 3.33455 22.8694 3.32285 22.8833 3.31403C22.89 3.30972 22.8957 3.30653 22.8999 3.3043L22.9049 3.30185L22.9062 3.30125L22.9066 3.3011L22.9067 3.30106L22.9067 3.30105L22.9067 3.30105ZM18.4747 3.78799C18.8699 3.66387 19.0897 3.2429 18.9655 2.84772C18.8414 2.45254 18.4204 2.2328 18.0253 2.35692C12.6503 4.0451 8.75 9.06619 8.75 15.0002C8.75 22.318 14.6822 28.2502 22 28.2502C27.934 28.2502 32.9551 24.3499 34.6433 18.9749C34.7674 18.5798 34.5477 18.1588 34.1525 18.0347C33.7573 17.9105 33.3363 18.1303 33.2122 18.5255C31.7147 23.2932 27.2601 26.7502 22 26.7502C15.5107 26.7502 10.25 21.4895 10.25 15.0002C10.25 9.74011 13.707 5.28546 18.4747 3.78799Z" fill="white"/>
<path d="M2.24716 40H0.442472V34.9091H2.26207C2.77415 34.9091 3.21496 35.011 3.58452 35.2148C3.95407 35.417 4.23828 35.7079 4.43715 36.0874C4.63767 36.4669 4.73793 36.9209 4.73793 37.4496C4.73793 37.9799 4.63767 38.4356 4.43715 38.8168C4.23828 39.1979 3.95241 39.4904 3.57955 39.6942C3.20833 39.8981 2.7642 40 2.24716 40ZM1.51882 39.0778H2.20241C2.5206 39.0778 2.78823 39.0214 3.00533 38.9087C3.22408 38.7944 3.38814 38.6179 3.49751 38.3793C3.60855 38.139 3.66406 37.8291 3.66406 37.4496C3.66406 37.0734 3.60855 36.766 3.49751 36.5273C3.38814 36.2887 3.22491 36.113 3.00781 36.0004C2.79072 35.8877 2.52308 35.8313 2.2049 35.8313H1.51882V39.0778ZM6.12562 40H4.97221L6.72967 34.9091H8.11674L9.87172 40H8.71831L7.44309 36.0724H7.40332L6.12562 40ZM6.05353 37.9989H8.77797V38.8391H6.05353V37.9989ZM13.13 36.3732C13.1101 36.1727 13.0247 36.0169 12.8739 35.9059C12.7231 35.7949 12.5185 35.7393 12.2599 35.7393C12.0843 35.7393 11.936 35.7642 11.815 35.8139C11.694 35.862 11.6012 35.9291 11.5366 36.0153C11.4736 36.1014 11.4421 36.1992 11.4421 36.3086C11.4388 36.3997 11.4579 36.4793 11.4993 36.5472C11.5424 36.6152 11.6012 36.674 11.6758 36.7237C11.7504 36.7718 11.8365 36.814 11.9343 36.8505C12.0321 36.8853 12.1365 36.9151 12.2475 36.94L12.7049 37.0494C12.927 37.0991 13.1308 37.1654 13.3164 37.2482C13.502 37.3311 13.6628 37.433 13.7987 37.554C13.9345 37.675 14.0398 37.8175 14.1143 37.9815C14.1906 38.1456 14.2295 38.3337 14.2312 38.5458C14.2295 38.8574 14.15 39.1275 13.9925 39.3562C13.8368 39.5832 13.6114 39.7597 13.3164 39.8857C13.0231 40.0099 12.6693 40.0721 12.255 40.0721C11.844 40.0721 11.486 40.0091 11.1811 39.8832C10.8778 39.7572 10.6409 39.5708 10.4702 39.3239C10.3011 39.0753 10.2125 38.7679 10.2042 38.4016H11.2457C11.2573 38.5723 11.3062 38.7148 11.3924 38.8292C11.4802 38.9419 11.5971 39.0272 11.7429 39.0852C11.8904 39.1416 12.0569 39.1697 12.2425 39.1697C12.4248 39.1697 12.5831 39.1432 12.7173 39.0902C12.8532 39.0372 12.9585 38.9634 13.033 38.869C13.1076 38.7745 13.1449 38.666 13.1449 38.5433C13.1449 38.429 13.1109 38.3329 13.043 38.255C12.9767 38.1771 12.8789 38.1108 12.7496 38.0561C12.622 38.0014 12.4654 37.9517 12.2798 37.907L11.7255 37.7678C11.2963 37.6634 10.9574 37.5001 10.7088 37.2781C10.4602 37.056 10.3368 36.7569 10.3384 36.3807C10.3368 36.0724 10.4188 35.8031 10.5845 35.5728C10.7519 35.3424 10.9814 35.1626 11.2731 35.0334C11.5647 34.9041 11.8962 34.8395 12.2674 34.8395C12.6452 34.8395 12.975 34.9041 13.2567 35.0334C13.5401 35.1626 13.7605 35.3424 13.918 35.5728C14.0754 35.8031 14.1566 36.07 14.1616 36.3732H13.13ZM14.9552 40V34.9091H16.0315V37.0096H18.2165V34.9091H19.2904V40H18.2165V37.897H16.0315V40H14.9552ZM20.1778 40V34.9091H22.2162C22.5907 34.9091 22.9031 34.9646 23.1533 35.0756C23.4036 35.1867 23.5916 35.3408 23.7176 35.538C23.8435 35.7335 23.9065 35.9589 23.9065 36.2141C23.9065 36.413 23.8667 36.5878 23.7872 36.7386C23.7077 36.8878 23.5983 37.0104 23.4591 37.1065C23.3215 37.201 23.1641 37.2681 22.9868 37.3079V37.3576C23.1807 37.3659 23.3621 37.4206 23.5312 37.5217C23.7019 37.6228 23.8402 37.7644 23.9463 37.9467C24.0523 38.1274 24.1054 38.3428 24.1054 38.593C24.1054 38.8632 24.0383 39.1043 23.904 39.3164C23.7715 39.5269 23.5751 39.6934 23.3149 39.8161C23.0547 39.9387 22.734 40 22.3529 40H20.1778ZM21.2542 39.12H22.1317C22.4316 39.12 22.6504 39.0629 22.7879 38.9485C22.9255 38.8325 22.9942 38.6784 22.9942 38.4862C22.9942 38.3453 22.9603 38.221 22.8923 38.1133C22.8244 38.0056 22.7274 37.921 22.6015 37.8597C22.4772 37.7984 22.3289 37.7678 22.1565 37.7678H21.2542V39.12ZM21.2542 37.0394H22.0521C22.1996 37.0394 22.3305 37.0137 22.4449 36.9624C22.5609 36.9093 22.652 36.8348 22.7183 36.7386C22.7863 36.6425 22.8202 36.5273 22.8202 36.3931C22.8202 36.2092 22.7548 36.0608 22.6238 35.9482C22.4946 35.8355 22.3106 35.7791 22.072 35.7791H21.2542V37.0394ZM29.484 37.4545C29.484 38.0097 29.3788 38.482 29.1683 38.8714C28.9595 39.2609 28.6745 39.5584 28.3132 39.7638C27.9536 39.9677 27.5492 40.0696 27.1001 40.0696C26.6477 40.0696 26.2417 39.9669 25.8821 39.7614C25.5225 39.5559 25.2383 39.2584 25.0295 38.869C24.8207 38.4795 24.7163 38.008 24.7163 37.4545C24.7163 36.8994 24.8207 36.4271 25.0295 36.0376C25.2383 35.6482 25.5225 35.3516 25.8821 35.1477C26.2417 34.9422 26.6477 34.8395 27.1001 34.8395C27.5492 34.8395 27.9536 34.9422 28.3132 35.1477C28.6745 35.3516 28.9595 35.6482 29.1683 36.0376C29.3788 36.4271 29.484 36.8994 29.484 37.4545ZM28.3928 37.4545C28.3928 37.0949 28.3389 36.7917 28.2312 36.5447C28.1251 36.2978 27.9751 36.1106 27.7812 35.983C27.5874 35.8554 27.3603 35.7915 27.1001 35.7915C26.84 35.7915 26.6129 35.8554 26.419 35.983C26.2251 36.1106 26.0743 36.2978 25.9666 36.5447C25.8606 36.7917 25.8075 37.0949 25.8075 37.4545C25.8075 37.8142 25.8606 38.1174 25.9666 38.3643C26.0743 38.6113 26.2251 38.7985 26.419 38.9261C26.6129 39.0537 26.84 39.1175 27.1001 39.1175C27.3603 39.1175 27.5874 39.0537 27.7812 38.9261C27.9751 38.7985 28.1251 38.6113 28.2312 38.3643C28.3389 38.1174 28.3928 37.8142 28.3928 37.4545ZM30.8717 40H29.7183L31.4758 34.9091H32.8628L34.6178 40H33.4644L32.1892 36.0724H32.1494L30.8717 40ZM30.7996 37.9989H33.5241V38.8391H30.7996V37.9989ZM35.2306 40V34.9091H37.2391C37.6236 34.9091 37.9517 34.9779 38.2235 35.1154C38.4969 35.2513 38.7049 35.4444 38.8474 35.6946C38.9916 35.9432 39.0637 36.2357 39.0637 36.5721C39.0637 36.9102 38.9907 37.201 38.8449 37.4446C38.6991 37.6866 38.4878 37.8722 38.211 38.0014C37.9359 38.1307 37.6028 38.1953 37.2117 38.1953H35.8669V37.3303H37.0377C37.2432 37.3303 37.4139 37.3021 37.5498 37.2457C37.6857 37.1894 37.7868 37.1049 37.8531 36.9922C37.921 36.8795 37.955 36.7395 37.955 36.5721C37.955 36.4031 37.921 36.2605 37.8531 36.1445C37.7868 36.0285 37.6849 35.9407 37.5473 35.881C37.4114 35.8197 37.2399 35.7891 37.0328 35.7891H36.3069V40H35.2306ZM37.9798 37.6832L39.2451 40H38.0569L36.819 37.6832H37.9798ZM41.629 40H39.8243V34.9091H41.6439C42.156 34.9091 42.5968 35.011 42.9664 35.2148C43.3359 35.417 43.6201 35.7079 43.819 36.0874C44.0195 36.4669 44.1198 36.9209 44.1198 37.4496C44.1198 37.9799 44.0195 38.4356 43.819 38.8168C43.6201 39.1979 43.3343 39.4904 42.9614 39.6942C42.5902 39.8981 42.146 40 41.629 40ZM40.9007 39.0778H41.5843C41.9024 39.0778 42.1701 39.0214 42.3872 38.9087C42.6059 38.7944 42.77 38.6179 42.8794 38.3793C42.9904 38.139 43.0459 37.8291 43.0459 37.4496C43.0459 37.0734 42.9904 36.766 42.8794 36.5273C42.77 36.2887 42.6067 36.113 42.3896 36.0004C42.1726 35.8877 41.9049 35.8313 41.5867 35.8313H40.9007V39.0778Z" fill="white"/>
</svg>
