<svg width="84" height="51" viewBox="0 0 84 51" fill="none" xmlns="http://www.w3.org/2000/svg">
<path d="M1.31996 40H0.166548L1.92401 34.9091H3.31108L5.06605 40H3.91264L2.63743 36.0724H2.59766L1.31996 40ZM1.24787 37.9989H3.9723V38.8391H1.24787V37.9989ZM7.48349 40H5.6788V34.9091H7.4984C8.01048 34.9091 8.45129 35.011 8.82085 35.2148C9.1904 35.417 9.47461 35.7079 9.67347 36.0874C9.87399 36.4669 9.97425 36.9209 9.97425 37.4496C9.97425 37.9799 9.87399 38.4356 9.67347 38.8168C9.47461 39.1979 9.18874 39.4904 8.81587 39.6942C8.44466 39.8981 8.00053 40 7.48349 40ZM6.75515 39.0778H7.43874C7.75692 39.0778 8.02456 39.0214 8.24165 38.9087C8.4604 38.7944 8.62447 38.6179 8.73384 38.3793C8.84487 38.139 8.90039 37.8291 8.90039 37.4496C8.90039 37.0734 8.84487 36.766 8.73384 36.5273C8.62447 36.2887 8.46123 36.113 8.24414 36.0004C8.02705 35.8877 7.75941 35.8313 7.44123 35.8313H6.75515V39.0778ZM12.5763 40H10.7716V34.9091H12.5912C13.1032 34.9091 13.5441 35.011 13.9136 35.2148C14.2832 35.417 14.5674 35.7079 14.7662 36.0874C14.9668 36.4669 15.067 36.9209 15.067 37.4496C15.067 37.9799 14.9668 38.4356 14.7662 38.8168C14.5674 39.1979 14.2815 39.4904 13.9086 39.6942C13.5374 39.8981 13.0933 40 12.5763 40ZM11.8479 39.0778H12.5315C12.8497 39.0778 13.1173 39.0214 13.3344 38.9087C13.5532 38.7944 13.7172 38.6179 13.8266 38.3793C13.9376 38.139 13.9932 37.8291 13.9932 37.4496C13.9932 37.0734 13.9376 36.766 13.8266 36.5273C13.7172 36.2887 13.554 36.113 13.3369 36.0004C13.1198 35.8877 12.8522 35.8313 12.534 35.8313H11.8479V39.0778ZM16.1421 40.0646C15.9781 40.0646 15.8372 40.0066 15.7195 39.8906C15.6035 39.773 15.5455 39.6321 15.5455 39.468C15.5455 39.3056 15.6035 39.1664 15.7195 39.0504C15.8372 38.9344 15.9781 38.8764 16.1421 38.8764C16.3012 38.8764 16.4404 38.9344 16.5597 39.0504C16.6791 39.1664 16.7387 39.3056 16.7387 39.468C16.7387 39.5774 16.7106 39.6777 16.6542 39.7688C16.5995 39.8583 16.5274 39.9304 16.4379 39.9851C16.3485 40.0381 16.2499 40.0646 16.1421 40.0646ZM19.0089 34.9091H20.3363L21.7383 38.3295H21.7979L23.1999 34.9091H24.5273V40H23.4833V36.6864H23.4411L22.1236 39.9751H21.4126L20.0952 36.674H20.0529V40H19.0089V34.9091ZM30.0924 37.4545C30.0924 38.0097 29.9872 38.482 29.7767 38.8714C29.5679 39.2609 29.2829 39.5584 28.9216 39.7638C28.562 39.9677 28.1576 40.0696 27.7085 40.0696C27.2561 40.0696 26.8501 39.9669 26.4905 39.7614C26.1309 39.5559 25.8467 39.2584 25.6379 38.869C25.4291 38.4795 25.3247 38.008 25.3247 37.4545C25.3247 36.8994 25.4291 36.4271 25.6379 36.0376C25.8467 35.6482 26.1309 35.3516 26.4905 35.1477C26.8501 34.9422 27.2561 34.8395 27.7085 34.8395C28.1576 34.8395 28.562 34.9422 28.9216 35.1477C29.2829 35.3516 29.5679 35.6482 29.7767 36.0376C29.9872 36.4271 30.0924 36.8994 30.0924 37.4545ZM29.0012 37.4545C29.0012 37.0949 28.9473 36.7917 28.8396 36.5447C28.7335 36.2978 28.5835 36.1106 28.3896 35.983C28.1958 35.8554 27.9687 35.7915 27.7085 35.7915C27.4484 35.7915 27.2213 35.8554 27.0274 35.983C26.8335 36.1106 26.6827 36.2978 26.575 36.5447C26.469 36.7917 26.4159 37.0949 26.4159 37.4545C26.4159 37.8142 26.469 38.1174 26.575 38.3643C26.6827 38.6113 26.8335 38.7985 27.0274 38.9261C27.2213 39.0537 27.4484 39.1175 27.7085 39.1175C27.9687 39.1175 28.1958 39.0537 28.3896 38.9261C28.5835 38.7985 28.7335 38.6113 28.8396 38.3643C28.9473 38.1174 29.0012 37.8142 29.0012 37.4545ZM35.1479 34.9091V40H34.2182L32.0034 36.7958H31.9661V40H30.8897V34.9091H31.8343L34.0318 38.1108H34.0765V34.9091H35.1479ZM37.1135 34.9091V40H36.0372V34.9091H37.1135ZM37.8052 35.7965V34.9091H41.9863V35.7965H40.4277V40H39.3638V35.7965H37.8052ZM47.1207 37.4545C47.1207 38.0097 47.0155 38.482 46.805 38.8714C46.5962 39.2609 46.3112 39.5584 45.9499 39.7638C45.5903 39.9677 45.186 40.0696 44.7369 40.0696C44.2844 40.0696 43.8784 39.9669 43.5188 39.7614C43.1592 39.5559 42.875 39.2584 42.6662 38.869C42.4574 38.4795 42.353 38.008 42.353 37.4545C42.353 36.8994 42.4574 36.4271 42.6662 36.0376C42.875 35.6482 43.1592 35.3516 43.5188 35.1477C43.8784 34.9422 44.2844 34.8395 44.7369 34.8395C45.186 34.8395 45.5903 34.9422 45.9499 35.1477C46.3112 35.3516 46.5962 35.6482 46.805 36.0376C47.0155 36.4271 47.1207 36.8994 47.1207 37.4545ZM46.0295 37.4545C46.0295 37.0949 45.9756 36.7917 45.8679 36.5447C45.7618 36.2978 45.6119 36.1106 45.418 35.983C45.2241 35.8554 44.997 35.7915 44.7369 35.7915C44.4767 35.7915 44.2496 35.8554 44.0558 35.983C43.8619 36.1106 43.7111 36.2978 43.6033 36.5447C43.4973 36.7917 43.4442 37.0949 43.4442 37.4545C43.4442 37.8142 43.4973 38.1174 43.6033 38.3643C43.7111 38.6113 43.8619 38.7985 44.0558 38.9261C44.2496 39.0537 44.4767 39.1175 44.7369 39.1175C44.997 39.1175 45.2241 39.0537 45.418 38.9261C45.6119 38.7985 45.7618 38.6113 45.8679 38.3643C45.9756 38.1174 46.0295 37.8142 46.0295 37.4545ZM47.9181 40V34.9091H49.9266C50.3111 34.9091 50.6392 34.9779 50.911 35.1154C51.1844 35.2513 51.3924 35.4444 51.5349 35.6946C51.6791 35.9432 51.7512 36.2357 51.7512 36.5721C51.7512 36.9102 51.6782 37.201 51.5324 37.4446C51.3866 37.6866 51.1753 37.8722 50.8985 38.0014C50.6234 38.1307 50.2903 38.1953 49.8992 38.1953H48.5544V37.3303H49.7252C49.9307 37.3303 50.1014 37.3021 50.2373 37.2457C50.3732 37.1894 50.4743 37.1049 50.5406 36.9922C50.6085 36.8795 50.6425 36.7395 50.6425 36.5721C50.6425 36.4031 50.6085 36.2605 50.5406 36.1445C50.4743 36.0285 50.3724 35.9407 50.2348 35.881C50.0989 35.8197 49.9274 35.7891 49.7203 35.7891H48.9944V40H47.9181ZM50.6673 37.6832L51.9326 40H50.7444L49.5065 37.6832H50.6673ZM53.3893 40H52.2359L53.9933 34.9091H55.3804L57.1354 40H55.982L54.7068 36.0724H54.667L53.3893 40ZM53.3172 37.9989H56.0416V38.8391H53.3172V37.9989ZM57.7481 34.9091H59.0756L60.4775 38.3295H60.5372L61.9392 34.9091H63.2666V40H62.2226V36.6864H62.1803L60.8628 39.9751H60.1519L58.8344 36.674H58.7922V40H57.7481V34.9091ZM64.1534 40V34.9091H67.5838V35.7965H65.2298V37.0096H67.4073V37.897H65.2298V39.1126H67.5938V40H64.1534ZM72.6977 34.9091V40H71.768L69.5532 36.7958H69.5159V40H68.4395V34.9091H69.3841L71.5816 38.1108H71.6263V34.9091H72.6977ZM73.3931 35.7965V34.9091H77.5742V35.7965H76.0156V40H74.9517V35.7965H73.3931ZM82.7086 37.4545C82.7086 38.0097 82.6034 38.482 82.3929 38.8714C82.1841 39.2609 81.8991 39.5584 81.5378 39.7638C81.1782 39.9677 80.7739 40.0696 80.3248 40.0696C79.8723 40.0696 79.4663 39.9669 79.1067 39.7614C78.7471 39.5559 78.4629 39.2584 78.2541 38.869C78.0453 38.4795 77.9409 38.008 77.9409 37.4545C77.9409 36.8994 78.0453 36.4271 78.2541 36.0376C78.4629 35.6482 78.7471 35.3516 79.1067 35.1477C79.4663 34.9422 79.8723 34.8395 80.3248 34.8395C80.7739 34.8395 81.1782 34.9422 81.5378 35.1477C81.8991 35.3516 82.1841 35.6482 82.3929 36.0376C82.6034 36.4271 82.7086 36.8994 82.7086 37.4545ZM81.6174 37.4545C81.6174 37.0949 81.5635 36.7917 81.4558 36.5447C81.3497 36.2978 81.1998 36.1106 81.0059 35.983C80.812 35.8554 80.5849 35.7915 80.3248 35.7915C80.0646 35.7915 79.8375 35.8554 79.6436 35.983C79.4498 36.1106 79.2989 36.2978 79.1912 36.5447C79.0852 36.7917 79.0321 37.0949 79.0321 37.4545C79.0321 37.8142 79.0852 38.1174 79.1912 38.3643C79.2989 38.6113 79.4498 38.7985 79.6436 38.9261C79.8375 39.0537 80.0646 39.1175 80.3248 39.1175C80.5849 39.1175 80.812 39.0537 81.0059 38.9261C81.1998 38.7985 81.3497 38.6113 81.4558 38.3643C81.5635 38.1174 81.6174 37.8142 81.6174 37.4545Z" fill="white"/>
<rect opacity="0.12" x="27.8333" y="2.33337" width="28.3333" height="23.3333" rx="5" fill="white"/>
<path fill-rule="evenodd" clip-rule="evenodd" d="M35.7998 1.58337L35.8333 1.58337H48.1667L48.2002 1.58337C49.5719 1.58337 50.6474 1.58337 51.5117 1.65399C52.3919 1.7259 53.119 1.87475 53.7771 2.21009C54.859 2.76136 55.7387 3.641 56.29 4.72293C56.6253 5.38106 56.7741 6.10817 56.8461 6.98831C56.9167 7.85266 56.9167 8.92809 56.9167 10.2998V10.3334V17.6667V17.7003C56.9167 19.072 56.9167 20.1474 56.8461 21.0118C56.7741 21.8919 56.6253 22.619 56.29 23.2772C55.7387 24.3591 54.859 25.2387 53.7771 25.79C53.119 26.1253 52.3919 26.2742 51.5117 26.3461C50.6474 26.4167 49.572 26.4167 48.2002 26.4167H48.1667H35.8333H35.7998C34.4281 26.4167 33.3526 26.4167 32.4883 26.3461C31.6081 26.2742 30.881 26.1253 30.2229 25.79C29.141 25.2387 28.2613 24.3591 27.71 23.2772C27.3747 22.619 27.2259 21.8919 27.1539 21.0118C27.0833 20.1474 27.0833 19.072 27.0833 17.7003L27.0833 17.6667V10.3334L27.0833 10.2998C27.0833 8.9281 27.0833 7.85266 27.1539 6.98831C27.2259 6.10817 27.3747 5.38106 27.71 4.72293C28.2613 3.641 29.141 2.76136 30.2229 2.21009C30.881 1.87475 31.6081 1.7259 32.4883 1.65399C33.3526 1.58337 34.4281 1.58337 35.7998 1.58337ZM32.6104 3.149C31.823 3.21334 31.3153 3.33696 30.9039 3.5466C30.1042 3.95406 29.454 4.60423 29.0466 5.40391C28.8369 5.81534 28.7133 6.32308 28.649 7.11046C28.5839 7.9066 28.5833 8.92087 28.5833 10.3334V17.6667C28.5833 19.0792 28.5839 20.0935 28.649 20.8896C28.7133 21.677 28.8369 22.1847 29.0466 22.5962C29.454 23.3959 30.1042 24.046 30.9039 24.4535C31.3153 24.6631 31.823 24.7867 32.6104 24.8511C33.4066 24.9161 34.4208 24.9167 35.8333 24.9167H48.1667C49.5792 24.9167 50.5934 24.9161 51.3896 24.8511C52.177 24.7867 52.6847 24.6631 53.0961 24.4535C53.8958 24.046 54.546 23.3959 54.9534 22.5962C55.1631 22.1847 55.2867 21.677 55.351 20.8896C55.4161 20.0935 55.4167 19.0792 55.4167 17.6667V10.3334C55.4167 8.92087 55.4161 7.90659 55.351 7.11046C55.2867 6.32308 55.1631 5.81534 54.9534 5.40391C54.546 4.60423 53.8958 3.95406 53.0961 3.5466C52.6847 3.33696 52.177 3.21334 51.3896 3.149C50.5934 3.08396 49.5792 3.08337 48.1667 3.08337H35.8333C34.4208 3.08337 33.4066 3.08396 32.6104 3.149Z" fill="white"/>
<path d="M49.5 14L34 14" stroke="white" stroke-width="2" stroke-linecap="round"/>
<path d="M42 7V21" stroke="white" stroke-width="2" stroke-linecap="round"/>
</svg>
