<svg width="40" height="40" viewBox="0 0 40 40" fill="none" xmlns="http://www.w3.org/2000/svg">
<path opacity="0.12" d="M36.591 18.4017C35.8367 10.4727 29.5272 4.16326 21.5982 3.40889C21.0932 3.36084 20.8407 3.33682 20.6061 3.43733C20.412 3.5205 20.2235 3.69197 20.1223 3.87733C20 4.10131 20 4.37862 20 4.93325V16.7999C20 17.92 20 18.4801 20.218 18.9079C20.4097 19.2842 20.7157 19.5902 21.092 19.7819C21.5198 19.9999 22.0799 19.9999 23.2 19.9999H35.0667C35.6213 19.9999 35.8986 19.9999 36.1226 19.8776C36.3079 19.7765 36.4794 19.5879 36.5626 19.3938C36.6631 19.1592 36.6391 18.9067 36.591 18.4017Z" fill="white"/>
<path fill-rule="evenodd" clip-rule="evenodd" d="M21.6122 2.15408L21.6122 2.15408C21.2288 2.11469 20.6565 2.05588 20.1138 2.28843C19.6622 2.48197 19.2606 2.84714 19.0252 3.27844C18.8519 3.59579 18.7944 3.90755 18.7705 4.1672C18.7499 4.39218 18.75 4.65132 18.75 4.89488L18.75 4.93331V16.8L18.75 16.8458C18.75 17.3666 18.75 17.8304 18.7814 18.2154C18.815 18.6262 18.8905 19.0559 19.1043 19.4754C19.4159 20.087 19.913 20.5842 20.5246 20.8957C20.9441 21.1095 21.3738 21.185 21.7847 21.2186C22.1696 21.25 22.6334 21.25 23.1542 21.25H23.2H35.0667L35.1051 21.25C35.3487 21.25 35.6078 21.2501 35.8328 21.2295C36.0925 21.2057 36.4042 21.1481 36.7216 20.9749C37.1529 20.7394 37.518 20.3378 37.7116 19.8862C37.9441 19.3435 37.8853 18.7712 37.8459 18.3878L37.8459 18.3871C37.8421 18.3507 37.8386 18.3161 37.8354 18.2833C37.0243 9.7576 30.2424 2.97571 21.7167 2.16457C21.6837 2.16143 21.6488 2.15784 21.6122 2.15408ZM21.25 4.93331C21.25 4.81303 21.2501 4.71618 21.2511 4.63214C21.3161 4.63776 21.3903 4.6448 21.4799 4.65333C28.8121 5.35092 34.6491 11.1879 35.3467 18.5201C35.3552 18.6097 35.3623 18.684 35.3679 18.7489C35.2838 18.7499 35.187 18.75 35.0667 18.75H23.2C22.6194 18.75 22.259 18.749 21.9882 18.7269C21.7338 18.7061 21.6687 18.6729 21.6597 18.6683L21.6595 18.6682C21.5184 18.5963 21.4037 18.4816 21.3318 18.3405L21.3317 18.3403C21.3271 18.3313 21.2939 18.2663 21.2731 18.0118C21.251 17.741 21.25 17.3807 21.25 16.8V4.93331ZM15.3746 5.28922C16.0332 5.08235 16.3995 4.38073 16.1926 3.72209C15.9857 3.06346 15.2841 2.69723 14.6255 2.90409C7.35763 5.18679 2.08337 11.976 2.08337 20.0003C2.08337 29.8954 10.1049 37.917 20 37.917C28.0244 37.917 34.8136 32.6427 37.0963 25.3749C37.3031 24.7162 36.9369 24.0146 36.2783 23.8078C35.6196 23.6009 34.918 23.9671 34.7111 24.6258C32.7463 30.8816 26.9012 35.417 20 35.417C11.4857 35.417 4.58337 28.5147 4.58337 20.0003C4.58337 13.0992 9.11876 7.25406 15.3746 5.28922Z" fill="white"/>
</svg>
