<svg width="19" height="19" viewBox="0 0 19 19" fill="none" xmlns="http://www.w3.org/2000/svg">
<g clip-path="url(#clip0_240_1225)">
<path d="M12.5613 11.2167C12.874 11.2167 13.1275 11.4618 13.1275 11.7636C13.1275 12.0658 12.874 12.3105 12.5613 12.3105H4.17202C3.85928 12.3105 3.60582 12.0658 3.60582 11.7636C3.60582 11.4618 3.85928 11.2167 4.17202 11.2167H12.5613ZM16.7329 2.27248H17.4526C17.8786 2.27248 18.2658 2.4423 18.5459 2.71556L18.582 2.75412C18.8408 3.02478 19 3.38666 19 3.78228V17.4902C19 17.9044 18.8256 18.2818 18.5448 18.5558C18.2658 18.8302 17.8786 19 17.4526 19H3.81406C3.39036 19 3.0039 18.8302 2.72308 18.5569L2.7208 18.5551C2.44036 18.2796 2.26708 17.9032 2.26708 17.4902V16.7275H1.54736C1.12366 16.7275 0.7372 16.5577 0.45638 16.2848L0.4541 16.2826C0.17366 16.0075 0 15.6308 0 15.2181V1.5098C0 1.09638 0.17404 0.719304 0.4541 0.445301L0.45638 0.443076C0.73834 0.169444 1.12404 0 1.54736 0H15.1859C15.6119 0 15.9991 0.169815 16.2792 0.443076L16.3149 0.481637C16.5737 0.752303 16.7329 1.11418 16.7329 1.5098V2.27248ZM2.69192 15.6174C2.73894 15.6054 2.78735 15.5995 2.83594 15.5996C2.88572 15.5996 2.9336 15.6056 2.97958 15.6174H15.1859C15.2977 15.6174 15.4003 15.5722 15.4744 15.4995C15.5496 15.4287 15.5952 15.3286 15.5952 15.2181V1.5098C15.5952 1.40857 15.5572 1.31662 15.4953 1.24692L15.4744 1.22801C15.4003 1.15534 15.2977 1.1101 15.1859 1.1101H1.54736C1.43412 1.1101 1.33152 1.15459 1.25856 1.22578L1.25628 1.22801C1.21849 1.26505 1.18856 1.30902 1.16821 1.35737C1.14787 1.40573 1.13751 1.45753 1.13772 1.5098V15.2181C1.13772 15.3286 1.18332 15.4287 1.25628 15.4995L1.25856 15.5017C1.29655 15.5386 1.34161 15.5678 1.39116 15.5876C1.44072 15.6075 1.49379 15.6176 1.54736 15.6174H2.69192ZM3.4048 16.7275V17.4902C3.4048 17.6011 3.4504 17.7012 3.52336 17.772L3.52564 17.7742C3.59822 17.8454 3.70082 17.8899 3.81406 17.8899H17.4526C17.5644 17.8899 17.667 17.8447 17.7414 17.772C17.8167 17.7012 17.8623 17.6011 17.8623 17.4902V3.78228C17.8623 3.68106 17.8243 3.5891 17.762 3.5194L17.7414 3.50049C17.667 3.42782 17.5644 3.38258 17.4526 3.38258H16.7329V15.2181C16.7329 15.6319 16.5585 16.0093 16.2781 16.2837C15.9991 16.5577 15.6119 16.7275 15.1859 16.7275H3.4048ZM12.5613 4.41704C12.874 4.41704 13.1275 4.66213 13.1275 4.96394C13.1275 5.26612 12.874 5.5112 12.5613 5.5112H4.17202C3.85928 5.5112 3.60582 5.26612 3.60582 4.96394C3.60582 4.66213 3.85928 4.41704 4.17202 4.41704H12.5613ZM12.5613 7.81705C12.874 7.81705 13.1275 8.06176 13.1275 8.36395C13.1275 8.66613 12.874 8.91084 12.5613 8.91084H4.17202C3.85928 8.91084 3.60582 8.66613 3.60582 8.36395C3.60582 8.06176 3.85928 7.81705 4.17202 7.81705H12.5613Z" fill="#004994"/>
</g>
<defs>
<clipPath id="clip0_240_1225">
<rect width="19" height="19" fill="white"/>
</clipPath>
</defs>
</svg>
