<svg width="824" height="852" viewBox="0 0 824 852" fill="none" xmlns="http://www.w3.org/2000/svg">
<path d="M548.092 491.569L546.997 492.664" stroke="black" stroke-width="3" stroke-linecap="round"/>
<g filter="url(#filter0_i_262_1265)">
<path d="M642.673 353.501C617.173 268.001 541.674 154.001 541.674 154.001C541.674 154.001 567.673 234.001 432.173 385.001C372.673 453.001 321.173 507.001 321.173 554.501C321.173 596.501 338.411 627.858 374.674 652.501C402.673 671.529 458.656 668.815 508.174 652.501C553.673 634.001 596.124 606.658 626.673 554.001C665.761 486.626 662.655 420.501 642.673 353.501Z" fill="#004994"/>
<path d="M643.581 362.292C620.428 280.096 551.878 170.5 551.878 170.5C551.878 170.5 575.484 247.409 452.456 392.575C398.433 457.948 351.673 509.862 351.673 555.527C351.673 595.904 367.324 626.049 400.249 649.74C425.671 668.033 476.502 665.423 521.461 649.74C562.773 631.955 601.316 605.668 629.053 555.046C664.544 490.274 661.724 426.704 643.581 362.292Z" fill="#074380"/>
<path d="M645.255 371.377C625.062 293.858 565.278 190.5 565.278 190.5C565.278 190.5 585.865 263.032 478.569 399.937C431.454 461.589 390.673 510.549 390.673 553.615C390.673 591.694 404.323 620.124 433.038 642.467C455.209 659.718 499.54 657.257 538.75 642.467C574.779 625.693 608.394 600.903 632.585 553.161C663.537 492.075 661.078 432.123 645.255 371.377Z" fill="#0A3969"/>
<path d="M649.727 379.948C634.724 305.126 575.279 208.5 575.279 208.5C575.279 208.5 593.626 277.593 498.005 408.007C456.016 466.736 419.673 513.374 419.673 554.398C419.673 590.672 431.838 617.754 457.428 639.037C477.187 655.471 516.694 653.126 551.638 639.037C583.746 623.059 613.703 599.444 635.262 553.966C662.846 495.777 663.829 437.814 649.727 379.948Z" fill="#082E54"/>
<path d="M351.173 430.001C247.173 545.001 282.173 609.001 282.173 609.001C282.173 609.001 215.615 566.001 207.173 463.501C200.173 378.501 225.673 350.001 252.673 306.001C306.673 232.501 335.173 208.001 375.173 149.501C423.673 74.5015 431.173 0.00146484 431.173 0.00146484C431.173 0.00146484 477.028 49.2105 491.673 85.5015C519.113 153.501 504.673 202.501 491.673 237.001C475.173 289.001 412.673 358.501 351.173 430.001Z" fill="#377ABE"/>
<path d="M335.867 449.899C254.06 552.436 281.591 609.5 281.591 609.5C281.591 609.5 229.236 571.16 222.596 479.768C217.089 403.98 237.148 378.569 258.386 339.337C300.863 273.803 331.391 250 369.173 195.5C425.673 114 431.173 0 431.173 0C431.173 0 482.153 56.6421 493.673 89C519.173 161 504.673 216 477.173 269C449.673 322 384.243 386.148 335.867 449.899Z" fill="#2B659F"/>
<path d="M340.673 443C253.963 548 280.673 609 280.673 609C280.673 609 240.673 563.591 240.673 472C240.673 397 261.173 379.5 287.173 336.5C333.575 274 348.173 265.5 393.673 200.5C443.173 126 430.673 0.5 430.673 0.5C430.673 0.5 481.242 54 494.173 91.5C519.173 164 503.173 214 479.673 265.5C454.673 310 404.673 365.5 340.673 443Z" fill="#1F558A"/>
</g>
<g filter="url(#filter1_i_262_1265)">
<path d="M410.379 705C777.871 705 545.59 666 545.59 666C545.59 666 710.467 696.616 410.379 696.616C110.292 696.616 283.14 666 283.14 666C283.14 666 42.8861 705 410.379 705Z" fill="#396C21"/>
</g>
<g filter="url(#filter2_i_262_1265)">
<path d="M407.57 738C1072.09 738 652.065 678 652.065 678C652.065 678 950.202 725.101 407.57 725.101C-135.064 725.101 177.488 678 177.488 678C177.488 678 -256.952 738 407.57 738Z" fill="#1B5500"/>
</g>
<path d="M117.245 839L119.378 829.283H138.18L140.313 839H151.215L139.128 785.28H118.43L106.343 839H117.245ZM130.675 794.286L136.126 819.803H121.432L126.883 794.286H130.675ZM178.277 839.948C174.169 839.948 170.693 839.421 167.849 838.368C165.005 837.262 162.714 835.577 160.976 833.312C159.238 831.047 157.974 828.177 157.184 824.701C156.394 821.225 155.999 817.117 155.999 812.377C155.999 807.637 156.394 803.529 157.184 800.053C157.974 796.524 159.238 793.601 160.976 791.284C162.767 788.914 165.058 787.176 167.849 786.07C170.693 784.911 174.169 784.332 178.277 784.332C182.385 784.332 185.835 784.911 188.626 786.07C191.47 787.176 193.761 788.914 195.499 791.284C197.29 793.601 198.58 796.524 199.37 800.053C200.16 803.582 200.555 807.716 200.555 812.456C200.555 824.148 197.79 832.022 192.26 836.077L198.817 846.663L188.863 851.324L181.753 839.711C181.227 839.869 180.068 839.948 178.277 839.948ZM169.587 826.36C171.062 829.099 173.959 830.468 178.277 830.468C180.437 830.468 182.201 830.152 183.57 829.52C184.992 828.835 186.125 827.782 186.967 826.36C187.863 824.938 188.468 823.095 188.784 820.83C189.153 818.513 189.337 815.721 189.337 812.456C189.337 809.191 189.153 806.399 188.784 804.082C188.416 801.712 187.81 799.763 186.967 798.236C186.125 796.709 184.992 795.603 183.57 794.918C182.148 794.181 180.384 793.812 178.277 793.812C176.171 793.812 174.406 794.181 172.984 794.918C171.562 795.603 170.43 796.709 169.587 798.236C168.745 799.763 168.139 801.712 167.77 804.082C167.402 806.399 167.217 809.191 167.217 812.456C167.217 818.934 168.007 823.569 169.587 826.36ZM220.333 785.28V821.067C220.333 827.334 223.519 830.468 229.892 830.468C236.264 830.468 239.451 827.334 239.451 821.067V785.28H250.353V820.83C250.353 827.466 248.667 832.311 245.297 835.366C241.926 838.421 236.791 839.948 229.892 839.948C222.992 839.948 217.857 838.421 214.487 835.366C211.116 832.311 209.431 827.466 209.431 820.83V785.28H220.333ZM267.993 839L270.126 829.283H288.928L291.061 839H301.963L289.876 785.28H269.178L257.091 839H267.993ZM281.423 794.286L286.874 819.803H272.18L277.631 794.286H281.423ZM332.875 839L335.008 829.283H353.81L355.943 839H366.845L354.758 785.28H334.06L321.973 839H332.875ZM346.305 794.286L351.756 819.803H337.062L342.513 794.286H346.305ZM384.901 839V794.76H385.691L399.121 839H417.054V785.28H406.152V829.52H405.362L392.406 785.28H373.999V839H384.901ZM435.174 839L437.307 829.283H456.109L458.242 839H469.144L457.057 785.28H436.359L424.272 839H435.174ZM448.604 794.286L454.055 819.803H439.361L444.812 794.286H448.604ZM506.871 829.362H487.2V785.28H476.298V839H506.871V829.362ZM535.207 817.275L551.639 785.28H539.552L529.677 806.689L519.802 785.28H507.715L524.305 817.275V839H535.207V817.275ZM567.094 794.918V839H577.996V794.918H592.216V785.28H552.716V794.918H567.094ZM610.02 839V785.28H599.118V839H610.02ZM655.535 829.204L655.772 838.131C652.928 838.71 650.268 839.158 647.793 839.474C645.318 839.79 642.948 839.948 640.683 839.948C636.206 839.948 632.625 839.395 629.939 838.289C627.253 837.183 625.146 835.419 623.619 832.996C622.092 830.573 621.038 827.729 620.459 824.464C619.88 821.199 619.59 817.091 619.59 812.14C619.59 806.926 619.906 802.555 620.538 799.026C621.223 795.497 622.355 792.653 623.935 790.494C625.515 788.282 627.622 786.702 630.255 785.754C632.888 784.806 636.18 784.332 640.13 784.332C644.712 784.332 649.952 785.043 655.851 786.465L655.535 795.155C650.321 794.365 646.002 793.97 642.579 793.97C640.841 793.97 639.366 794.075 638.155 794.286C636.996 794.497 635.996 794.865 635.153 795.392C634.363 795.866 633.705 796.551 633.178 797.446C632.704 798.289 632.283 799.342 631.914 800.606C631.545 801.923 631.256 803.661 631.045 805.82C630.887 807.979 630.808 810.639 630.808 813.799C630.808 816.906 630.966 819.513 631.282 821.62C631.598 823.727 632.151 825.438 632.941 826.755C633.784 828.019 634.916 828.941 636.338 829.52C637.76 830.047 639.551 830.31 641.71 830.31C643.922 830.31 646.16 830.231 648.425 830.073C650.69 829.862 653.06 829.573 655.535 829.204ZM681.128 793.812C675.388 793.812 672.517 795.708 672.517 799.5C672.517 801.185 673.228 802.476 674.65 803.371C675.388 803.792 676.573 804.345 678.205 805.03C679.838 805.662 681.997 806.399 684.683 807.242C687.317 808.085 689.529 808.954 691.319 809.849C693.11 810.744 694.558 811.798 695.664 813.009C696.77 814.168 697.56 815.537 698.034 817.117C698.561 818.697 698.824 820.593 698.824 822.805C698.824 825.649 698.377 828.151 697.481 830.31C696.586 832.417 695.322 834.181 693.689 835.603C692.057 837.025 690.108 838.105 687.843 838.842C685.579 839.579 683.051 839.948 680.259 839.948C676.151 839.948 671.122 839.316 665.17 838.052L662.326 837.499L663.432 829.046C670.49 829.994 675.888 830.468 679.627 830.468C685.21 830.468 688.001 828.151 688.001 823.516C688.001 821.831 687.369 820.514 686.105 819.566C684.736 818.618 682.155 817.591 678.363 816.485C675.309 815.59 672.702 814.668 670.542 813.72C668.436 812.719 666.724 811.587 665.407 810.323C664.091 809.006 663.143 807.532 662.563 805.899C661.984 804.266 661.694 802.397 661.694 800.29C661.694 794.865 663.301 790.863 666.513 788.282C669.779 785.649 674.282 784.332 680.022 784.332C681.971 784.332 684.183 784.464 686.658 784.727C689.134 784.99 691.872 785.385 694.874 785.912L697.718 786.465L696.849 795.076C693.11 794.655 689.924 794.339 687.29 794.128C684.71 793.917 682.656 793.812 681.128 793.812Z" fill="#082E54"/>
<path d="M127.245 829L129.378 819.283H148.18L150.313 829H161.215L149.128 775.28H128.43L116.343 829H127.245ZM140.675 784.286L146.126 809.803H131.432L136.883 784.286H140.675ZM188.277 829.948C184.169 829.948 180.693 829.421 177.849 828.368C175.005 827.262 172.714 825.577 170.976 823.312C169.238 821.047 167.974 818.177 167.184 814.701C166.394 811.225 165.999 807.117 165.999 802.377C165.999 797.637 166.394 793.529 167.184 790.053C167.974 786.524 169.238 783.601 170.976 781.284C172.767 778.914 175.058 777.176 177.849 776.07C180.693 774.911 184.169 774.332 188.277 774.332C192.385 774.332 195.835 774.911 198.626 776.07C201.47 777.176 203.761 778.914 205.499 781.284C207.29 783.601 208.58 786.524 209.37 790.053C210.16 793.582 210.555 797.716 210.555 802.456C210.555 814.148 207.79 822.022 202.26 826.077L208.817 836.663L198.863 841.324L191.753 829.711C191.227 829.869 190.068 829.948 188.277 829.948ZM179.587 816.36C181.062 819.099 183.959 820.468 188.277 820.468C190.437 820.468 192.201 820.152 193.57 819.52C194.992 818.835 196.125 817.782 196.967 816.36C197.863 814.938 198.468 813.095 198.784 810.83C199.153 808.513 199.337 805.721 199.337 802.456C199.337 799.191 199.153 796.399 198.784 794.082C198.416 791.712 197.81 789.763 196.967 788.236C196.125 786.709 194.992 785.603 193.57 784.918C192.148 784.181 190.384 783.812 188.277 783.812C186.171 783.812 184.406 784.181 182.984 784.918C181.562 785.603 180.43 786.709 179.587 788.236C178.745 789.763 178.139 791.712 177.77 794.082C177.402 796.399 177.217 799.191 177.217 802.456C177.217 808.934 178.007 813.569 179.587 816.36ZM230.333 775.28V811.067C230.333 817.334 233.519 820.468 239.892 820.468C246.264 820.468 249.451 817.334 249.451 811.067V775.28H260.353V810.83C260.353 817.466 258.667 822.311 255.297 825.366C251.926 828.421 246.791 829.948 239.892 829.948C232.992 829.948 227.857 828.421 224.487 825.366C221.116 822.311 219.431 817.466 219.431 810.83V775.28H230.333ZM277.993 829L280.126 819.283H298.928L301.061 829H311.963L299.876 775.28H279.178L267.091 829H277.993ZM291.423 784.286L296.874 809.803H282.18L287.631 784.286H291.423ZM342.875 829L345.008 819.283H363.81L365.943 829H376.845L364.758 775.28H344.06L331.973 829H342.875ZM356.305 784.286L361.756 809.803H347.062L352.513 784.286H356.305ZM394.901 829V784.76H395.691L409.121 829H427.054V775.28H416.152V819.52H415.362L402.406 775.28H383.999V829H394.901ZM445.174 829L447.307 819.283H466.109L468.242 829H479.144L467.057 775.28H446.359L434.272 829H445.174ZM458.604 784.286L464.055 809.803H449.361L454.812 784.286H458.604ZM516.871 819.362H497.2V775.28H486.298V829H516.871V819.362ZM545.207 807.275L561.639 775.28H549.552L539.677 796.689L529.802 775.28H517.715L534.305 807.275V829H545.207V807.275ZM577.094 784.918V829H587.996V784.918H602.216V775.28H562.716V784.918H577.094ZM620.02 829V775.28H609.118V829H620.02ZM665.535 819.204L665.772 828.131C662.928 828.71 660.268 829.158 657.793 829.474C655.318 829.79 652.948 829.948 650.683 829.948C646.206 829.948 642.625 829.395 639.939 828.289C637.253 827.183 635.146 825.419 633.619 822.996C632.092 820.573 631.038 817.729 630.459 814.464C629.88 811.199 629.59 807.091 629.59 802.14C629.59 796.926 629.906 792.555 630.538 789.026C631.223 785.497 632.355 782.653 633.935 780.494C635.515 778.282 637.622 776.702 640.255 775.754C642.888 774.806 646.18 774.332 650.13 774.332C654.712 774.332 659.952 775.043 665.851 776.465L665.535 785.155C660.321 784.365 656.002 783.97 652.579 783.97C650.841 783.97 649.366 784.075 648.155 784.286C646.996 784.497 645.996 784.865 645.153 785.392C644.363 785.866 643.705 786.551 643.178 787.446C642.704 788.289 642.283 789.342 641.914 790.606C641.545 791.923 641.256 793.661 641.045 795.82C640.887 797.979 640.808 800.639 640.808 803.799C640.808 806.906 640.966 809.513 641.282 811.62C641.598 813.727 642.151 815.438 642.941 816.755C643.784 818.019 644.916 818.941 646.338 819.52C647.76 820.047 649.551 820.31 651.71 820.31C653.922 820.31 656.16 820.231 658.425 820.073C660.69 819.862 663.06 819.573 665.535 819.204ZM691.128 783.812C685.388 783.812 682.517 785.708 682.517 789.5C682.517 791.185 683.228 792.476 684.65 793.371C685.388 793.792 686.573 794.345 688.205 795.03C689.838 795.662 691.997 796.399 694.683 797.242C697.317 798.085 699.529 798.954 701.319 799.849C703.11 800.744 704.558 801.798 705.664 803.009C706.77 804.168 707.56 805.537 708.034 807.117C708.561 808.697 708.824 810.593 708.824 812.805C708.824 815.649 708.377 818.151 707.481 820.31C706.586 822.417 705.322 824.181 703.689 825.603C702.057 827.025 700.108 828.105 697.843 828.842C695.579 829.579 693.051 829.948 690.259 829.948C686.151 829.948 681.122 829.316 675.17 828.052L672.326 827.499L673.432 819.046C680.49 819.994 685.888 820.468 689.627 820.468C695.21 820.468 698.001 818.151 698.001 813.516C698.001 811.831 697.369 810.514 696.105 809.566C694.736 808.618 692.155 807.591 688.363 806.485C685.309 805.59 682.702 804.668 680.542 803.72C678.436 802.719 676.724 801.587 675.407 800.323C674.091 799.006 673.143 797.532 672.563 795.899C671.984 794.266 671.694 792.397 671.694 790.29C671.694 784.865 673.301 780.863 676.513 778.282C679.779 775.649 684.282 774.332 690.022 774.332C691.971 774.332 694.183 774.464 696.658 774.727C699.134 774.99 701.872 775.385 704.874 775.912L707.718 776.465L706.849 785.076C703.11 784.655 699.924 784.339 697.29 784.128C694.71 783.917 692.656 783.812 691.128 783.812Z" fill="#004994"/>
<path d="M121.349 835L124.272 823.387H145.049L147.972 835H156.82L143.39 780.885H125.931L112.58 835H121.349ZM136.675 788.232L143.311 815.645H126.01L132.725 788.232H136.675ZM184.204 835.869C180.096 835.869 176.62 835.342 173.776 834.289C170.985 833.183 168.72 831.498 166.982 829.233C165.297 826.968 164.059 824.098 163.269 820.622C162.532 817.146 162.163 813.012 162.163 808.219C162.163 803.426 162.558 799.266 163.348 795.737C164.138 792.208 165.402 789.285 167.14 786.968C168.878 784.598 171.143 782.86 173.934 781.754C176.725 780.595 180.149 780.016 184.204 780.016C188.259 780.016 191.683 780.595 194.474 781.754C197.265 782.86 199.53 784.598 201.268 786.968C203.006 789.285 204.244 792.208 204.981 795.737C205.771 799.266 206.166 803.426 206.166 808.219C206.166 814.592 205.481 819.727 204.112 823.624C202.795 827.469 200.61 830.418 197.555 832.472L204.191 843.137L196.054 846.929L189.023 835.395C188.022 835.711 186.416 835.869 184.204 835.869ZM173.934 823.545C175.777 826.652 179.201 828.206 184.204 828.206C186.732 828.206 188.812 827.864 190.445 827.179C192.13 826.442 193.447 825.283 194.395 823.703C195.396 822.123 196.08 820.069 196.449 817.541C196.87 815.013 197.081 811.932 197.081 808.298C197.081 804.664 196.87 801.557 196.449 798.976C196.028 796.395 195.317 794.262 194.316 792.577C193.368 790.892 192.051 789.654 190.366 788.864C188.733 788.074 186.679 787.679 184.204 787.679C181.729 787.679 179.648 788.074 177.963 788.864C176.33 789.654 175.014 790.892 174.013 792.577C173.012 794.262 172.301 796.395 171.88 798.976C171.459 801.557 171.248 804.638 171.248 808.219C171.248 815.382 172.143 820.49 173.934 823.545ZM224.751 780.885V817.699C224.751 824.704 228.437 828.206 235.811 828.206C243.184 828.206 246.871 824.704 246.871 817.699V780.885H255.719V817.541C255.719 823.914 254.06 828.575 250.742 831.524C247.424 834.421 242.447 835.869 235.811 835.869C229.122 835.869 224.119 834.421 220.801 831.524C217.535 828.575 215.903 823.914 215.903 817.541V780.885H224.751ZM271.866 835L274.789 823.387H295.566L298.489 835H307.337L293.907 780.885H276.448L263.097 835H271.866ZM287.192 788.232L293.828 815.645H276.527L283.242 788.232H287.192ZM336.516 835L339.439 823.387H360.216L363.139 835H371.987L358.557 780.885H341.098L327.747 835H336.516ZM351.842 788.232L358.478 815.645H341.177L347.892 788.232H351.842ZM388.469 835V788.548H389.575L406.402 835H421.412V780.885H412.643V827.258H411.458L395.026 780.885H379.7V835H388.469ZM437.966 835L440.889 823.387H461.666L464.589 835H473.437L460.007 780.885H442.548L429.197 835H437.966ZM453.292 788.232L459.928 815.645H442.627L449.342 788.232H453.292ZM511.486 827.179H489.919V780.885H481.15V835H511.486V827.179ZM538.552 812.722L555.379 780.885H545.583L534.049 804.111L522.594 780.885H512.719L529.704 812.722V835H538.552V812.722ZM572.193 788.706V835H581.041V788.706H596.288V780.885H556.788V788.706H572.193ZM612.354 835V780.885H603.585V835H612.354ZM642.971 835.869C639.021 835.869 635.729 835.342 633.096 834.289C630.515 833.236 628.435 831.577 626.855 829.312C625.327 827.047 624.248 824.151 623.616 820.622C622.984 817.041 622.668 812.748 622.668 807.745C622.668 802.742 622.984 798.502 623.616 795.026C624.248 791.497 625.327 788.627 626.855 786.415C628.435 784.203 630.515 782.597 633.096 781.596C635.729 780.543 639.021 780.016 642.971 780.016C645.341 780.016 647.79 780.174 650.318 780.49C652.898 780.806 655.611 781.306 658.455 781.991L658.139 789.101C653.557 788.258 648.817 787.837 643.919 787.837C641.549 787.837 639.574 788.153 637.994 788.785C636.466 789.417 635.229 790.523 634.281 792.103C633.333 793.63 632.674 795.684 632.306 798.265C631.937 800.793 631.753 804.006 631.753 807.903C631.753 811.8 631.937 815.039 632.306 817.62C632.674 820.201 633.306 822.281 634.202 823.861C635.097 825.388 636.308 826.468 637.836 827.1C639.416 827.732 641.391 828.048 643.761 828.048C648.553 828.048 653.346 827.653 658.139 826.863L658.376 834.131C653.056 835.29 647.921 835.869 642.971 835.869ZM683.651 787.679C676.963 787.679 673.618 790.023 673.618 794.71C673.618 797.08 674.408 798.792 675.988 799.845C677.568 800.898 681.071 802.162 686.495 803.637C689.181 804.374 691.446 805.164 693.289 806.007C695.185 806.85 696.713 807.85 697.871 809.009C699.03 810.168 699.873 811.563 700.399 813.196C700.926 814.776 701.189 816.672 701.189 818.884C701.189 824.625 699.557 828.891 696.291 831.682C693.079 834.473 688.681 835.869 683.098 835.869C680.834 835.869 678.464 835.737 675.988 835.474C673.566 835.211 670.985 834.816 668.246 834.289L665.402 833.736L666.271 826.705C673.381 827.653 678.806 828.127 682.545 828.127C689.076 828.127 692.341 825.23 692.341 819.437C692.341 817.172 691.604 815.487 690.129 814.381C688.655 813.328 685.337 812.143 680.175 810.826C677.595 810.194 675.33 809.457 673.381 808.614C671.485 807.771 669.905 806.744 668.641 805.533C667.377 804.322 666.429 802.847 665.797 801.109C665.165 799.318 664.849 797.212 664.849 794.789C664.849 789.838 666.429 786.125 669.589 783.65C672.749 781.175 677.173 779.937 682.861 779.937C686.917 779.937 691.709 780.411 697.239 781.359L700.004 781.833L699.293 788.943C695.607 788.522 692.447 788.206 689.813 787.995C687.233 787.784 685.179 787.679 683.651 787.679Z" fill="white"/>
<path d="M642.62 600.741C635.898 611.494 632.045 629.929 632.045 629.929C632.045 629.929 637.71 619.489 664.093 614.568C675.845 612.23 685.538 610.714 690.214 605.752C694.349 601.365 695.971 596.708 695.314 591.229C694.808 586.998 689.782 582.798 683.967 580.536C678.278 578.824 671.978 578.28 664.197 581.334C654.242 585.241 647.517 592.141 642.62 600.741Z" fill="#07417D"/>
<path d="M182.193 612.942C189.096 614.203 199.571 612.112 199.571 612.112C199.571 612.112 193.022 611.365 185.736 597.867C182.414 591.888 179.892 586.862 176.428 585.407C173.365 584.121 170.604 584.29 167.81 585.91C165.652 587.161 164.311 590.911 164.139 594.653C164.237 598.2 165.063 601.817 168.063 605.43C171.902 610.053 176.758 612.199 182.193 612.942Z" fill="#07417D"/>
<defs>
<filter id="filter0_i_262_1265" x="206" y="0" width="452.673" height="687.774" filterUnits="userSpaceOnUse" color-interpolation-filters="sRGB">
<feFlood flood-opacity="0" result="BackgroundImageFix"/>
<feBlend mode="normal" in="SourceGraphic" in2="BackgroundImageFix" result="shape"/>
<feColorMatrix in="SourceAlpha" type="matrix" values="0 0 0 0 0 0 0 0 0 0 0 0 0 0 0 0 0 0 127 0" result="hardAlpha"/>
<feOffset dy="22"/>
<feGaussianBlur stdDeviation="12.5"/>
<feComposite in2="hardAlpha" operator="arithmetic" k2="-1" k3="1"/>
<feColorMatrix type="matrix" values="0 0 0 0 0 0 0 0 0 0 0 0 0 0 0 0 0 0 0.38 0"/>
<feBlend mode="normal" in2="shape" result="effect1_innerShadow_262_1265"/>
</filter>
<filter id="filter1_i_262_1265" x="206" y="659" width="412" height="46" filterUnits="userSpaceOnUse" color-interpolation-filters="sRGB">
<feFlood flood-opacity="0" result="BackgroundImageFix"/>
<feBlend mode="normal" in="SourceGraphic" in2="BackgroundImageFix" result="shape"/>
<feColorMatrix in="SourceAlpha" type="matrix" values="0 0 0 0 0 0 0 0 0 0 0 0 0 0 0 0 0 0 127 0" result="hardAlpha"/>
<feOffset dy="-11"/>
<feGaussianBlur stdDeviation="3.5"/>
<feComposite in2="hardAlpha" operator="arithmetic" k2="-1" k3="1"/>
<feColorMatrix type="matrix" values="0 0 0 0 0 0 0 0 0 0 0 0 0 0 0 0 0 0 0.3 0"/>
<feBlend mode="normal" in2="shape" result="effect1_innerShadow_262_1265"/>
</filter>
<filter id="filter2_i_262_1265" x="38" y="671" width="745" height="67" filterUnits="userSpaceOnUse" color-interpolation-filters="sRGB">
<feFlood flood-opacity="0" result="BackgroundImageFix"/>
<feBlend mode="normal" in="SourceGraphic" in2="BackgroundImageFix" result="shape"/>
<feColorMatrix in="SourceAlpha" type="matrix" values="0 0 0 0 0 0 0 0 0 0 0 0 0 0 0 0 0 0 127 0" result="hardAlpha"/>
<feOffset dy="-11"/>
<feGaussianBlur stdDeviation="3.5"/>
<feComposite in2="hardAlpha" operator="arithmetic" k2="-1" k3="1"/>
<feColorMatrix type="matrix" values="0 0 0 0 0 0 0 0 0 0 0 0 0 0 0 0 0 0 0.3 0"/>
<feBlend mode="normal" in2="shape" result="effect1_innerShadow_262_1265"/>
</filter>
</defs>
</svg>
