<svg width="65" height="51" viewBox="0 0 65 51" fill="none" xmlns="http://www.w3.org/2000/svg">
<path opacity="0.12" d="M25.0199 8.71438L21.1689 15.5912C18.9761 19.507 17.8796 21.465 18.063 23.0683C18.223 24.467 18.9654 25.7335 20.1076 26.5566C21.4169 27.5 23.6609 27.5 28.149 27.5H35.851C40.3391 27.5 42.5831 27.5 43.8924 26.5566C45.0346 25.7335 45.777 24.467 45.937 23.0683C46.1204 21.465 45.0239 19.507 42.8311 15.5912L38.98 8.71437C36.6988 4.64063 35.5581 2.60377 34.0576 1.92625C32.7495 1.33558 31.2505 1.33558 29.9424 1.92625C28.4419 2.60377 27.3012 4.64064 25.0199 8.71438Z" fill="#E8EAED"/>
<path fill-rule="evenodd" clip-rule="evenodd" d="M33.749 2.60983C32.637 2.10776 31.363 2.10776 30.251 2.60983C29.6929 2.86184 29.1289 3.39905 28.3921 4.47146C27.6584 5.53948 26.8222 7.03104 25.6743 9.08086L21.8233 15.9577C20.7197 17.9285 19.918 19.3616 19.41 20.5021C18.9007 21.6456 18.7397 22.3846 18.8082 22.983C18.9442 24.172 19.5751 25.2485 20.5461 25.9481C21.0347 26.3003 21.7582 26.5209 23.0048 26.6352C24.248 26.7493 25.8902 26.75 28.149 26.75H35.851C38.1098 26.75 39.752 26.7493 40.9952 26.6352C42.2418 26.5209 42.9653 26.3003 43.4539 25.9481C44.4249 25.2485 45.0558 24.172 45.1918 22.983C45.2603 22.3846 45.0993 21.6456 44.59 20.5021C44.082 19.3616 43.2803 17.9285 42.1767 15.9576L38.3257 9.08085C37.1778 7.03104 36.3416 5.53948 35.6079 4.47146C34.8711 3.39905 34.3071 2.86184 33.749 2.60983ZM29.6337 1.24273C31.1381 0.56346 32.8619 0.56346 34.3662 1.24273C35.3086 1.66823 36.0652 2.48822 36.8442 3.62205C37.6215 4.75351 38.4906 6.30543 39.6142 8.31186L39.6143 8.31204L39.6144 8.31211L39.6344 8.34795L43.4854 15.2247L43.5054 15.2604L43.5054 15.2604C44.585 17.1882 45.4209 18.681 45.9602 19.8918C46.5015 21.1071 46.7971 22.1486 46.6821 23.1535C46.4981 24.7621 45.6444 26.2186 44.3308 27.1651C43.5102 27.7564 42.4571 28.0075 41.1322 28.129C39.8123 28.25 38.1014 28.25 35.8919 28.25H35.8918H35.8918H35.851H28.149H28.1082H28.1082H28.1081C25.8986 28.25 24.1877 28.25 22.8677 28.129C21.5429 28.0075 20.4898 27.7564 19.6692 27.1651C18.3556 26.2186 17.5019 24.7621 17.3179 23.1535C17.2029 22.1486 17.4985 21.1071 18.0398 19.8918C18.5791 18.681 19.415 17.1882 20.4946 15.2603L20.5146 15.2247L24.3656 8.34795L24.3857 8.31206C25.5093 6.30553 26.3784 4.75355 27.1558 3.62205C27.9348 2.48822 28.6914 1.66823 29.6337 1.24273ZM32 10.5C32.4142 10.5 32.75 10.8358 32.75 11.25V16.25C32.75 16.6642 32.4142 17 32 17C31.5858 17 31.25 16.6642 31.25 16.25V11.25C31.25 10.8358 31.5858 10.5 32 10.5ZM32 21.25C32.6904 21.25 33.25 20.6904 33.25 20C33.25 19.3097 32.6904 18.75 32 18.75C31.3096 18.75 30.75 19.3097 30.75 20C30.75 20.6904 31.3096 21.25 32 21.25Z" fill="#E8EAED"/>
<path d="M0.442472 34.9091H1.76989L3.17188 38.3295H3.23153L4.63352 34.9091H5.96094V40H4.9169V36.6864H4.87465L3.55717 39.9751H2.84624L1.52876 36.674H1.48651V40H0.442472V34.9091ZM11.526 37.4545C11.526 38.0097 11.4208 38.482 11.2103 38.8714C11.0015 39.2609 10.7165 39.5584 10.3552 39.7638C9.99559 39.9677 9.59123 40.0696 9.14213 40.0696C8.68972 40.0696 8.28371 39.9669 7.92409 39.7614C7.56448 39.5559 7.28027 39.2584 7.07147 38.869C6.86266 38.4795 6.75826 38.008 6.75826 37.4545C6.75826 36.8994 6.86266 36.4271 7.07147 36.0376C7.28027 35.6482 7.56448 35.3516 7.92409 35.1477C8.28371 34.9422 8.68972 34.8395 9.14213 34.8395C9.59123 34.8395 9.99559 34.9422 10.3552 35.1477C10.7165 35.3516 11.0015 35.6482 11.2103 36.0376C11.4208 36.4271 11.526 36.8994 11.526 37.4545ZM10.4347 37.4545C10.4347 37.0949 10.3809 36.7917 10.2732 36.5447C10.1671 36.2978 10.0171 36.1106 9.82324 35.983C9.62935 35.8554 9.40231 35.7915 9.14213 35.7915C8.88195 35.7915 8.65492 35.8554 8.46103 35.983C8.26713 36.1106 8.11633 36.2978 8.00861 36.5447C7.90255 36.7917 7.84952 37.0949 7.84952 37.4545C7.84952 37.8142 7.90255 38.1174 8.00861 38.3643C8.11633 38.6113 8.26713 38.7985 8.46103 38.9261C8.65492 39.0537 8.88195 39.1175 9.14213 39.1175C9.40231 39.1175 9.62935 39.0537 9.82324 38.9261C10.0171 38.7985 10.1671 38.6113 10.2732 38.3643C10.3809 38.1174 10.4347 37.8142 10.4347 37.4545ZM16.5815 34.9091V40H15.6518L13.437 36.7958H13.3997V40H12.3233V34.9091H13.2679L15.4654 38.1108H15.5101V34.9091H16.5815ZM18.5471 34.9091V40H17.4708V34.9091H18.5471ZM19.2388 35.7965V34.9091H23.4199V35.7965H21.8613V40H20.7974V35.7965H19.2388ZM28.5543 37.4545C28.5543 38.0097 28.4491 38.482 28.2386 38.8714C28.0298 39.2609 27.7448 39.5584 27.3835 39.7638C27.0239 39.9677 26.6196 40.0696 26.1705 40.0696C25.718 40.0696 25.312 39.9669 24.9524 39.7614C24.5928 39.5559 24.3086 39.2584 24.0998 38.869C23.891 38.4795 23.7866 38.008 23.7866 37.4545C23.7866 36.8994 23.891 36.4271 24.0998 36.0376C24.3086 35.6482 24.5928 35.3516 24.9524 35.1477C25.312 34.9422 25.718 34.8395 26.1705 34.8395C26.6196 34.8395 27.0239 34.9422 27.3835 35.1477C27.7448 35.3516 28.0298 35.6482 28.2386 36.0376C28.4491 36.4271 28.5543 36.8994 28.5543 37.4545ZM27.4631 37.4545C27.4631 37.0949 27.4092 36.7917 27.3015 36.5447C27.1954 36.2978 27.0455 36.1106 26.8516 35.983C26.6577 35.8554 26.4306 35.7915 26.1705 35.7915C25.9103 35.7915 25.6832 35.8554 25.4893 35.983C25.2955 36.1106 25.1446 36.2978 25.0369 36.5447C24.9309 36.7917 24.8778 37.0949 24.8778 37.4545C24.8778 37.8142 24.9309 38.1174 25.0369 38.3643C25.1446 38.6113 25.2955 38.7985 25.4893 38.9261C25.6832 39.0537 25.9103 39.1175 26.1705 39.1175C26.4306 39.1175 26.6577 39.0537 26.8516 38.9261C27.0455 38.7985 27.1954 38.6113 27.3015 38.3643C27.4092 38.1174 27.4631 37.8142 27.4631 37.4545ZM29.3517 40V34.9091H31.3602C31.7446 34.9091 32.0728 34.9779 32.3445 35.1154C32.618 35.2513 32.826 35.4444 32.9685 35.6946C33.1127 35.9432 33.1847 36.2357 33.1847 36.5721C33.1847 36.9102 33.1118 37.201 32.966 37.4446C32.8202 37.6866 32.6089 37.8722 32.3321 38.0014C32.057 38.1307 31.7239 38.1953 31.3328 38.1953H29.988V37.3303H31.1588C31.3643 37.3303 31.535 37.3021 31.6709 37.2457C31.8068 37.1894 31.9079 37.1049 31.9742 36.9922C32.0421 36.8795 32.0761 36.7395 32.0761 36.5721C32.0761 36.4031 32.0421 36.2605 31.9742 36.1445C31.9079 36.0285 31.806 35.9407 31.6684 35.881C31.5325 35.8197 31.361 35.7891 31.1539 35.7891H30.428V40H29.3517ZM32.1009 37.6832L33.3662 40H32.178L30.9401 37.6832H32.1009ZM34.8229 40H33.6695L35.4269 34.9091H36.814L38.569 40H37.4156L36.1404 36.0724H36.1006L34.8229 40ZM34.7508 37.9989H37.4752V38.8391H34.7508V37.9989ZM39.1817 34.9091H40.5091L41.9111 38.3295H41.9708L43.3728 34.9091H44.7002V40H43.6562V36.6864H43.6139L42.2964 39.9751H41.5855L40.268 36.674H40.2258V40H39.1817V34.9091ZM45.587 40V34.9091H49.0174V35.7965H46.6634V37.0096H48.8409V37.897H46.6634V39.1126H49.0273V40H45.587ZM54.1313 34.9091V40H53.2016L50.9868 36.7958H50.9495V40H49.8731V34.9091H50.8177L53.0152 38.1108H53.0599V34.9091H54.1313ZM54.8267 35.7965V34.9091H59.0078V35.7965H57.4492V40H56.3853V35.7965H54.8267ZM64.1422 37.4545C64.1422 38.0097 64.037 38.482 63.8265 38.8714C63.6177 39.2609 63.3327 39.5584 62.9714 39.7638C62.6118 39.9677 62.2074 40.0696 61.7583 40.0696C61.3059 40.0696 60.8999 39.9669 60.5403 39.7614C60.1807 39.5559 59.8965 39.2584 59.6877 38.869C59.4789 38.4795 59.3745 38.008 59.3745 37.4545C59.3745 36.8994 59.4789 36.4271 59.6877 36.0376C59.8965 35.6482 60.1807 35.3516 60.5403 35.1477C60.8999 34.9422 61.3059 34.8395 61.7583 34.8395C62.2074 34.8395 62.6118 34.9422 62.9714 35.1477C63.3327 35.3516 63.6177 35.6482 63.8265 36.0376C64.037 36.4271 64.1422 36.8994 64.1422 37.4545ZM63.051 37.4545C63.051 37.0949 62.9971 36.7917 62.8894 36.5447C62.7833 36.2978 62.6333 36.1106 62.4395 35.983C62.2456 35.8554 62.0185 35.7915 61.7583 35.7915C61.4982 35.7915 61.2711 35.8554 61.0772 35.983C60.8833 36.1106 60.7325 36.2978 60.6248 36.5447C60.5188 36.7917 60.4657 37.0949 60.4657 37.4545C60.4657 37.8142 60.5188 38.1174 60.6248 38.3643C60.7325 38.6113 60.8833 38.7985 61.0772 38.9261C61.2711 39.0537 61.4982 39.1175 61.7583 39.1175C62.0185 39.1175 62.2456 39.0537 62.4395 38.9261C62.6333 38.7985 62.7833 38.6113 62.8894 38.3643C62.9971 38.1174 63.051 37.8142 63.051 37.4545Z" fill="white"/>
</svg>
