<svg width="31" height="42" viewBox="0 0 31 42" fill="none" xmlns="http://www.w3.org/2000/svg">
<path d="M29.5 25.4969C29.5 33.2498 23.229 39.5294 15.5 39.5294C7.77098 39.5294 1.5 33.2498 1.5 25.4969C1.5 21.732 3.92529 17.1714 7.21255 12.606C9.37933 9.59684 11.7499 6.80125 13.8143 4.36686C14.4053 3.66991 14.9712 3.00256 15.5 2.36828C16.0288 3.00256 16.5947 3.66991 17.1857 4.36687C19.2501 6.80126 21.6207 9.59684 23.7874 12.606C27.0747 17.1714 29.5 21.732 29.5 25.4969Z" fill="white" fill-opacity="0.3" stroke="white" stroke-width="3"/>
<line x1="15.481" y1="19.5034" x2="15.481" y2="27.1574" stroke="white" stroke-width="2" stroke-linecap="round"/>
<line x1="19.1125" y1="23.5259" x2="11.4585" y2="23.5259" stroke="white" stroke-width="2" stroke-linecap="round"/>
</svg>
