<svg width="41" height="51" viewBox="0 0 41 51" fill="none" xmlns="http://www.w3.org/2000/svg">
<path opacity="0.12" d="M30 13.75C30 19.9632 24.9632 25 18.75 25C12.5368 25 7.5 19.9632 7.5 13.75C7.5 7.5368 12.5368 2.5 18.75 2.5C24.9632 2.5 30 7.5368 30 13.75Z" fill="white"/>
<path fill-rule="evenodd" clip-rule="evenodd" d="M8.25 13.75C8.25 7.95101 12.951 3.25 18.75 3.25C24.549 3.25 29.25 7.95101 29.25 13.75C29.25 19.549 24.549 24.25 18.75 24.25C12.951 24.25 8.25 19.549 8.25 13.75ZM18.75 1.75C12.1226 1.75 6.75 7.12258 6.75 13.75C6.75 20.3774 12.1226 25.75 18.75 25.75C21.7938 25.75 24.5729 24.6167 26.6885 22.7491L30.7197 26.7803C31.0126 27.0732 31.4874 27.0732 31.7803 26.7803C32.0732 26.4874 32.0732 26.0126 31.7803 25.7197L27.7491 21.6885C29.6167 19.5729 30.75 16.7938 30.75 13.75C30.75 7.12258 25.3774 1.75 18.75 1.75Z" fill="white"/>
<path d="M0.442472 40V34.9091H2.45099C2.83712 34.9091 3.16607 34.9828 3.43786 35.1303C3.70964 35.2762 3.91679 35.4792 4.0593 35.7393C4.20348 35.9979 4.27557 36.2962 4.27557 36.6342C4.27557 36.9723 4.20265 37.2706 4.05682 37.5291C3.91099 37.7876 3.69969 37.989 3.42294 38.1332C3.14785 38.2773 2.81475 38.3494 2.42365 38.3494H1.14347V37.4869H2.24964C2.45679 37.4869 2.62749 37.4512 2.76172 37.38C2.89761 37.3071 2.9987 37.2068 3.06499 37.0792C3.13293 36.9499 3.1669 36.8016 3.1669 36.6342C3.1669 36.4652 3.13293 36.3177 3.06499 36.1918C2.9987 36.0642 2.89761 35.9656 2.76172 35.896C2.62583 35.8247 2.45348 35.7891 2.24467 35.7891H1.51882V40H0.442472ZM4.9747 40V34.9091H8.4051V35.7965H6.05105V37.0096H8.2286V37.897H6.05105V39.1126H8.41504V40H4.9747ZM12.0225 36.3732C12.0027 36.1727 11.9173 36.0169 11.7665 35.9059C11.6157 35.7949 11.411 35.7393 11.1525 35.7393C10.9769 35.7393 10.8285 35.7642 10.7076 35.8139C10.5866 35.862 10.4938 35.9291 10.4292 36.0153C10.3662 36.1014 10.3347 36.1992 10.3347 36.3086C10.3314 36.3997 10.3504 36.4793 10.3919 36.5472C10.435 36.6152 10.4938 36.674 10.5684 36.7237C10.6429 36.7718 10.7291 36.814 10.8269 36.8505C10.9247 36.8853 11.0291 36.9151 11.1401 36.94L11.5975 37.0494C11.8195 37.0991 12.0234 37.1654 12.209 37.2482C12.3946 37.3311 12.5553 37.433 12.6912 37.554C12.8271 37.675 12.9324 37.8175 13.0069 37.9815C13.0832 38.1456 13.1221 38.3337 13.1238 38.5458C13.1221 38.8574 13.0426 39.1275 12.8851 39.3562C12.7293 39.5832 12.504 39.7597 12.209 39.8857C11.9157 40.0099 11.5618 40.0721 11.1475 40.0721C10.7366 40.0721 10.3786 40.0091 10.0737 39.8832C9.77042 39.7572 9.53344 39.5708 9.36275 39.3239C9.19371 39.0753 9.10505 38.7679 9.09677 38.4016H10.1383C10.1499 38.5723 10.1988 38.7148 10.285 38.8292C10.3728 38.9419 10.4896 39.0272 10.6355 39.0852C10.783 39.1416 10.9495 39.1697 11.1351 39.1697C11.3174 39.1697 11.4757 39.1432 11.6099 39.0902C11.7458 39.0372 11.851 38.9634 11.9256 38.869C12.0002 38.7745 12.0375 38.666 12.0375 38.5433C12.0375 38.429 12.0035 38.3329 11.9355 38.255C11.8693 38.1771 11.7715 38.1108 11.6422 38.0561C11.5146 38.0014 11.358 37.9517 11.1724 37.907L10.6181 37.7678C10.1889 37.6634 9.84996 37.5001 9.60138 37.2781C9.35281 37.056 9.22934 36.7569 9.231 36.3807C9.22934 36.0724 9.31138 35.8031 9.4771 35.5728C9.64447 35.3424 9.87399 35.1626 10.1657 35.0334C10.4573 34.9041 10.7888 34.8395 11.16 34.8395C11.5378 34.8395 11.8676 34.9041 12.1493 35.0334C12.4327 35.1626 12.6531 35.3424 12.8105 35.5728C12.968 35.8031 13.0492 36.07 13.0542 36.3732H12.0225ZM15.7693 38.2301H16.684L17.1439 38.8217L17.5963 39.3487L18.449 40.4176H17.4447L16.858 39.6967L16.5573 39.2692L15.7693 38.2301ZM18.526 37.4545C18.526 38.0097 18.4208 38.482 18.2103 38.8714C18.0015 39.2609 17.7165 39.5584 17.3552 39.7638C16.9956 39.9677 16.5912 40.0696 16.1421 40.0696C15.6897 40.0696 15.2837 39.9669 14.9241 39.7614C14.5645 39.5559 14.2803 39.2584 14.0715 38.869C13.8627 38.4795 13.7583 38.008 13.7583 37.4545C13.7583 36.8994 13.8627 36.4271 14.0715 36.0376C14.2803 35.6482 14.5645 35.3516 14.9241 35.1477C15.2837 34.9422 15.6897 34.8395 16.1421 34.8395C16.5912 34.8395 16.9956 34.9422 17.3552 35.1477C17.7165 35.3516 18.0015 35.6482 18.2103 36.0376C18.4208 36.4271 18.526 36.8994 18.526 37.4545ZM17.4347 37.4545C17.4347 37.0949 17.3809 36.7917 17.2732 36.5447C17.1671 36.2978 17.0171 36.1106 16.8232 35.983C16.6294 35.8554 16.4023 35.7915 16.1421 35.7915C15.882 35.7915 15.6549 35.8554 15.461 35.983C15.2671 36.1106 15.1163 36.2978 15.0086 36.5447C14.9026 36.7917 14.8495 37.0949 14.8495 37.4545C14.8495 37.8142 14.9026 38.1174 15.0086 38.3643C15.1163 38.6113 15.2671 38.7985 15.461 38.9261C15.6549 39.0537 15.882 39.1175 16.1421 39.1175C16.4023 39.1175 16.6294 39.0537 16.8232 38.9261C17.0171 38.7985 17.1671 38.6113 17.2732 38.3643C17.3809 38.1174 17.4347 37.8142 17.4347 37.4545ZM22.4679 34.9091H23.5442V38.2152C23.5442 38.5864 23.4556 38.9112 23.2782 39.1896C23.1026 39.468 22.8565 39.6851 22.54 39.8409C22.2234 39.995 21.8547 40.0721 21.4338 40.0721C21.0112 40.0721 20.6416 39.995 20.3251 39.8409C20.0086 39.6851 19.7625 39.468 19.5868 39.1896C19.4112 38.9112 19.3233 38.5864 19.3233 38.2152V34.9091H20.3997V38.1232C20.3997 38.3171 20.4419 38.4895 20.5265 38.6403C20.6126 38.7911 20.7336 38.9096 20.8894 38.9957C21.0452 39.0819 21.2266 39.125 21.4338 39.125C21.6426 39.125 21.824 39.0819 21.9782 38.9957C22.1339 38.9096 22.2541 38.7911 22.3386 38.6403C22.4248 38.4895 22.4679 38.3171 22.4679 38.1232V34.9091ZM25.5061 34.9091V40H24.4298V34.9091H25.5061ZM29.1534 36.3732C29.1335 36.1727 29.0482 36.0169 28.8974 35.9059C28.7466 35.7949 28.5419 35.7393 28.2834 35.7393C28.1077 35.7393 27.9594 35.7642 27.8384 35.8139C27.7174 35.862 27.6246 35.9291 27.56 36.0153C27.497 36.1014 27.4656 36.1992 27.4656 36.3086C27.4622 36.3997 27.4813 36.4793 27.5227 36.5472C27.5658 36.6152 27.6246 36.674 27.6992 36.7237C27.7738 36.7718 27.86 36.814 27.9577 36.8505C28.0555 36.8853 28.1599 36.9151 28.271 36.94L28.7283 37.0494C28.9504 37.0991 29.1542 37.1654 29.3398 37.2482C29.5254 37.3311 29.6862 37.433 29.8221 37.554C29.958 37.675 30.0632 37.8175 30.1378 37.9815C30.214 38.1456 30.253 38.3337 30.2546 38.5458C30.253 38.8574 30.1734 39.1275 30.016 39.3562C29.8602 39.5832 29.6348 39.7597 29.3398 39.8857C29.0465 40.0099 28.6927 40.0721 28.2784 40.0721C27.8674 40.0721 27.5095 40.0091 27.2045 39.8832C26.9013 39.7572 26.6643 39.5708 26.4936 39.3239C26.3246 39.0753 26.2359 38.7679 26.2276 38.4016H27.2692C27.2808 38.5723 27.3297 38.7148 27.4158 38.8292C27.5037 38.9419 27.6205 39.0272 27.7663 39.0852C27.9138 39.1416 28.0804 39.1697 28.266 39.1697C28.4483 39.1697 28.6065 39.1432 28.7408 39.0902C28.8767 39.0372 28.9819 38.9634 29.0565 38.869C29.131 38.7745 29.1683 38.666 29.1683 38.5433C29.1683 38.429 29.1344 38.3329 29.0664 38.255C29.0001 38.1771 28.9023 38.1108 28.7731 38.0561C28.6455 38.0014 28.4889 37.9517 28.3033 37.907L27.7489 37.7678C27.3197 37.6634 26.9808 37.5001 26.7322 37.2781C26.4837 37.056 26.3602 36.7569 26.3619 36.3807C26.3602 36.0724 26.4422 35.8031 26.608 35.5728C26.7753 35.3424 27.0049 35.1626 27.2965 35.0334C27.5882 34.9041 27.9196 34.8395 28.2908 34.8395C28.6687 34.8395 28.9985 34.9041 29.2802 35.0334C29.5636 35.1626 29.784 35.3424 29.9414 35.5728C30.0988 35.8031 30.18 36.07 30.185 36.3732H29.1534ZM31.7399 40H30.5865L32.3439 34.9091H33.731L35.486 40H34.3326L33.0574 36.0724H33.0176L31.7399 40ZM31.6678 37.9989H34.3922V38.8391H31.6678V37.9989ZM36.0987 40V34.9091H38.1072C38.4917 34.9091 38.8198 34.9779 39.0916 35.1154C39.3651 35.2513 39.573 35.4444 39.7156 35.6946C39.8597 35.9432 39.9318 36.2357 39.9318 36.5721C39.9318 36.9102 39.8589 37.201 39.7131 37.4446C39.5672 37.6866 39.3559 37.8722 39.0792 38.0014C38.8041 38.1307 38.471 38.1953 38.0799 38.1953H36.7351V37.3303H37.9059C38.1114 37.3303 38.2821 37.3021 38.418 37.2457C38.5539 37.1894 38.6549 37.1049 38.7212 36.9922C38.7892 36.8795 38.8232 36.7395 38.8232 36.5721C38.8232 36.4031 38.7892 36.2605 38.7212 36.1445C38.6549 36.0285 38.553 35.9407 38.4155 35.881C38.2796 35.8197 38.1081 35.7891 37.9009 35.7891H37.1751V40H36.0987ZM38.848 37.6832L40.1133 40H38.9251L37.6871 37.6832H38.848Z" fill="white"/>
</svg>
