<svg width="44" height="57" viewBox="0 0 44 57" fill="none" xmlns="http://www.w3.org/2000/svg">
<path d="M41.5667 35.4214C41.5667 46.5135 32.5945 55.5 21.5333 55.5C10.4722 55.5 1.5 46.5135 1.5 35.4214C1.5 29.9871 4.97827 23.5156 9.5462 17.1717C12.568 12.9751 15.8948 9.05142 18.7717 5.65826C19.7548 4.49875 20.6854 3.4012 21.5333 2.37589C22.3813 3.4012 23.3118 4.49875 24.2949 5.65825C27.1719 9.05142 30.4987 12.9751 33.5205 17.1717C38.0884 23.5156 41.5667 29.9871 41.5667 35.4214Z" fill="white" fill-opacity="0.3" stroke="white" stroke-width="3"/>
<line x1="21.1176" y1="26.7059" x2="21.1176" y2="38.1177" stroke="white" stroke-width="2" stroke-linecap="round"/>
<line x1="26.9412" y1="32.2941" x2="15.5294" y2="32.2941" stroke="white" stroke-width="2" stroke-linecap="round"/>
</svg>
