<svg width="23" height="28" viewBox="0 0 23 28" fill="none" xmlns="http://www.w3.org/2000/svg">
<path d="M21 14L15.5714 8.66667M21 14L15.5714 19.3333M21 14H7.42857M14.2143 26C12.6103 26 11.022 25.6896 9.54008 25.0866C8.05818 24.4835 6.71168 23.5996 5.57748 22.4853C4.44328 21.371 3.54358 20.0481 2.92976 18.5922C2.31593 17.1363 2 15.5759 2 14C2 12.4241 2.31593 10.8637 2.92976 9.4078C3.54358 7.95189 4.44328 6.62902 5.57748 5.51472C6.71168 4.40042 8.05818 3.5165 9.54008 2.91345C11.022 2.31039 12.6103 2 14.2143 2" stroke="#DA1414" stroke-width="2.5" stroke-linecap="round" stroke-linejoin="round"/>
</svg>
