<svg width="7" height="14" viewBox="0 0 7 14" fill="none" xmlns="http://www.w3.org/2000/svg">
<path d="M0.267679 13.6918C0.0962844 13.4945 0 13.2268 0 12.9477C0 12.6686 0.0962844 12.401 0.267679 12.2036L4.7932 6.99365L0.267679 1.78371C0.101142 1.5852 0.00899076 1.31933 0.0110736 1.04337C0.0131569 0.767402 0.109307 0.503418 0.278816 0.308273C0.448325 0.113129 0.67763 0.00243855 0.917342 4.1008e-05C1.15705 -0.00235748 1.388 0.103729 1.56042 0.295453L6.73232 6.24952C6.90372 6.44689 7 6.71456 7 6.99365C7 7.27273 6.90372 7.5404 6.73232 7.73777L1.56042 13.6918C1.38898 13.8892 1.15648 14 0.914052 14C0.671626 14 0.439126 13.8892 0.267679 13.6918Z" fill="#00274F" fill-opacity="0.5"/>
</svg>
