<svg width="22" height="23" viewBox="0 0 22 23" fill="none" xmlns="http://www.w3.org/2000/svg">
<path fill-rule="evenodd" clip-rule="evenodd" d="M14.5657 20.2501C14.5659 20.8409 14.3428 21.4101 13.941 21.8433C13.5392 22.2766 12.9885 22.542 12.3993 22.5863L12.2236 22.5922H9.88152C9.29064 22.5923 8.72152 22.3692 8.28825 21.9674C7.85498 21.5656 7.58959 21.0149 7.54527 20.4257L7.53942 20.2501H14.5657ZM11.0526 0.342163C13.178 0.342128 15.2204 1.16763 16.7488 2.64454C18.2773 4.12145 19.1724 6.13429 19.2453 8.25848L19.2499 8.53953V12.9474L21.3836 17.2147C21.4767 17.4009 21.5233 17.6069 21.5194 17.815C21.5155 18.0232 21.4612 18.2273 21.3612 18.4098C21.2611 18.5924 21.1183 18.748 20.945 18.8633C20.7717 18.9787 20.573 19.0502 20.366 19.072L20.2313 19.079H1.87387C1.66561 19.0791 1.46045 19.0286 1.27595 18.932C1.09146 18.8354 0.933134 18.6955 0.814551 18.5243C0.695969 18.3531 0.620661 18.1557 0.595081 17.9491C0.569502 17.7424 0.594414 17.5326 0.667682 17.3377L0.72155 17.2147L2.85521 12.9474V8.53953C2.85521 6.36545 3.71886 4.28042 5.25616 2.74312C6.79347 1.20581 8.8785 0.342163 11.0526 0.342163ZM11.0526 2.68427C9.54372 2.68436 8.09314 3.26692 7.00334 4.31046C5.91354 5.35401 5.26865 6.77798 5.20317 8.28541L5.19731 8.53953V12.9474C5.19733 13.2378 5.14332 13.5257 5.03805 13.7964L4.95022 13.9955L3.58009 16.7369H18.5262L17.1561 13.9943C17.0261 13.7346 16.9455 13.4531 16.9184 13.164L16.9078 12.9474V8.53953C16.9078 6.98662 16.2909 5.49731 15.1929 4.39924C14.0948 3.30116 12.6055 2.68427 11.0526 2.68427Z" fill="#00274F"/>
</svg>
