<svg width="8" height="8" viewBox="0 0 8 8" fill="none" xmlns="http://www.w3.org/2000/svg">
<g clip-path="url(#clip0_422_1309)">
<path d="M7.5 4.5H6C5.86743 4.49987 5.74033 4.44715 5.64659 4.35341C5.55285 4.25967 5.50013 4.13257 5.5 4V1.5C5.50013 1.36743 5.55285 1.24033 5.64659 1.14659C5.74033 1.05285 5.86743 1.00013 6 1H7.5V1.5H6V4H7.5V4.5Z" fill="#004D9C"/>
<path d="M4.5 1.5C4.77614 1.5 5 1.27614 5 1C5 0.723858 4.77614 0.5 4.5 0.5C4.22386 0.5 4 0.723858 4 1C4 1.27614 4.22386 1.5 4.5 1.5Z" fill="#004D9C"/>
<path d="M2.5 5.046V3H2V5.046C1.8332 5.10497 1.69261 5.22102 1.60309 5.37362C1.51357 5.52622 1.48088 5.70556 1.5108 5.87993C1.54072 6.05431 1.63132 6.21249 1.76659 6.32653C1.90185 6.44056 2.07308 6.50311 2.25 6.50311C2.42692 6.50311 2.59815 6.44056 2.73342 6.32653C2.86868 6.21249 2.95928 6.05431 2.9892 5.87993C3.01912 5.70556 2.98643 5.52622 2.89691 5.37362C2.80739 5.22102 2.66681 5.10497 2.5 5.046V5.046Z" fill="#004D9C"/>
<path d="M2.24997 7.5C1.90547 7.50039 1.56853 7.39898 1.28146 7.20852C0.994391 7.01805 0.769997 6.74701 0.636452 6.42944C0.502907 6.11188 0.466165 5.76193 0.530841 5.42355C0.595516 5.08517 0.758725 4.77344 0.999973 4.5275V1.75C0.999973 1.41848 1.13167 1.10054 1.36609 0.866117C1.60051 0.631696 1.91845 0.5 2.24997 0.5C2.58149 0.5 2.89944 0.631696 3.13386 0.866117C3.36828 1.10054 3.49997 1.41848 3.49997 1.75V4.5275C3.74122 4.77344 3.90443 5.08517 3.96911 5.42355C4.03378 5.76193 3.99704 6.11188 3.8635 6.42944C3.72995 6.74701 3.50556 7.01805 3.21849 7.20852C2.93142 7.39898 2.59448 7.50039 2.24997 7.5ZM2.24997 1C2.05112 1.0002 1.86047 1.07928 1.71986 1.21989C1.57925 1.3605 1.50017 1.55115 1.49997 1.75V4.74575L1.41697 4.8205C1.22819 4.98923 1.0951 5.21131 1.03532 5.45734C0.975534 5.70338 0.991875 5.96177 1.08218 6.19831C1.17248 6.43486 1.33249 6.6384 1.54102 6.782C1.74955 6.9256 1.99678 7.00249 2.24997 7.00249C2.50317 7.00249 2.75039 6.9256 2.95893 6.782C3.16746 6.6384 3.32747 6.43486 3.41777 6.19831C3.50807 5.96177 3.52441 5.70338 3.46463 5.45734C3.40484 5.21131 3.27175 4.98923 3.08297 4.8205L2.99997 4.74575V1.75C2.99978 1.55115 2.92069 1.3605 2.78008 1.21989C2.63948 1.07928 2.44882 1.0002 2.24997 1V1Z" fill="#004D9C"/>
</g>
<defs>
<clipPath id="clip0_422_1309">
<rect width="8" height="8" fill="white"/>
</clipPath>
</defs>
</svg>
