<svg width="31" height="43" viewBox="0 0 31 43" fill="none" xmlns="http://www.w3.org/2000/svg">
<path opacity="0.12" fill-rule="evenodd" clip-rule="evenodd" d="M15.5 12.5C18.3534 12.5 20.6666 10.2614 20.6666 7.5C20.6666 4.73858 18.3534 2.5 15.5 2.5C12.6465 2.5 10.3333 4.73858 10.3333 7.5C10.3333 10.2614 12.6465 12.5 15.5 12.5ZM11.1666 17.5C7.85292 17.5 5.16663 20.1863 5.16663 23.5C5.16663 25.7091 6.95748 27.5 9.16662 27.5H21.8333C24.0424 27.5 25.8333 25.7091 25.8333 23.5C25.8333 20.1863 23.147 17.5 19.8333 17.5H11.1666Z" fill="white"/>
<path fill-rule="evenodd" clip-rule="evenodd" d="M11.0833 7.5C11.0833 5.17578 13.0373 3.25 15.5 3.25C17.9626 3.25 19.9166 5.17578 19.9166 7.5C19.9166 9.82422 17.9626 11.75 15.5 11.75C13.0373 11.75 11.0833 9.82422 11.0833 7.5ZM15.5 1.75C12.2556 1.75 9.58329 4.30137 9.58329 7.5C9.58329 10.6986 12.2556 13.25 15.5 13.25C18.7443 13.25 21.4166 10.6986 21.4166 7.5C21.4166 4.30137 18.7443 1.75 15.5 1.75ZM11.1666 16.75C7.4387 16.75 4.41663 19.7721 4.41663 23.5C4.41663 26.1234 6.54327 28.25 9.16662 28.25H21.8333C24.4566 28.25 26.5833 26.1234 26.5833 23.5C26.5833 19.7721 23.5612 16.75 19.8333 16.75H11.1666ZM5.91663 23.5C5.91663 20.6005 8.26713 18.25 11.1666 18.25H19.8333C22.7328 18.25 25.0833 20.6005 25.0833 23.5C25.0833 25.2949 23.6282 26.75 21.8333 26.75H9.16662C7.3717 26.75 5.91663 25.2949 5.91663 23.5Z" fill="white"/>
<path d="M4.44247 40V34.9091H6.45099C6.83712 34.9091 7.16607 34.9828 7.43786 35.1303C7.70964 35.2762 7.91679 35.4792 8.0593 35.7393C8.20348 35.9979 8.27557 36.2962 8.27557 36.6342C8.27557 36.9723 8.20265 37.2706 8.05682 37.5291C7.91099 37.7876 7.69969 37.989 7.42294 38.1332C7.14785 38.2773 6.81475 38.3494 6.42365 38.3494H5.14347V37.4869H6.24964C6.45679 37.4869 6.62749 37.4512 6.76172 37.38C6.89761 37.3071 6.9987 37.2068 7.06499 37.0792C7.13293 36.9499 7.1669 36.8016 7.1669 36.6342C7.1669 36.4652 7.13293 36.3177 7.06499 36.1918C6.9987 36.0642 6.89761 35.9656 6.76172 35.896C6.62583 35.8247 6.45348 35.7891 6.24467 35.7891H5.51882V40H4.44247ZM8.9747 40V34.9091H12.4051V35.7965H10.051V37.0096H12.2286V37.897H10.051V39.1126H12.415V40H8.9747ZM13.2608 40V34.9091H15.2694C15.6538 34.9091 15.9819 34.9779 16.2537 35.1154C16.5272 35.2513 16.7351 35.4444 16.8777 35.6946C17.0218 35.9432 17.0939 36.2357 17.0939 36.5721C17.0939 36.9102 17.021 37.201 16.8752 37.4446C16.7293 37.6866 16.5181 37.8722 16.2413 38.0014C15.9662 38.1307 15.6331 38.1953 15.242 38.1953H13.8972V37.3303H15.068C15.2735 37.3303 15.4442 37.3021 15.5801 37.2457C15.716 37.1894 15.8171 37.1049 15.8833 36.9922C15.9513 36.8795 15.9853 36.7395 15.9853 36.5721C15.9853 36.4031 15.9513 36.2605 15.8833 36.1445C15.8171 36.0285 15.7151 35.9407 15.5776 35.881C15.4417 35.8197 15.2702 35.7891 15.063 35.7891H14.3372V40H13.2608ZM16.0101 37.6832L17.2754 40H16.0872L14.8493 37.6832H16.0101ZM17.8546 40V34.9091H21.2253V35.7965H18.9309V37.0096H21.0016V37.897H18.9309V40H17.8546ZM23.0257 34.9091V40H21.9493V34.9091H23.0257ZM23.9112 40V34.9091H24.9876V39.1126H27.1701V40H23.9112Z" fill="white"/>
</svg>
