<svg width="31" height="30" viewBox="0 0 31 30" fill="none" xmlns="http://www.w3.org/2000/svg">
<path opacity="0.12" fill-rule="evenodd" clip-rule="evenodd" d="M15.5 12.5C18.3534 12.5 20.6666 10.2614 20.6666 7.5C20.6666 4.73858 18.3534 2.5 15.5 2.5C12.6465 2.5 10.3333 4.73858 10.3333 7.5C10.3333 10.2614 12.6465 12.5 15.5 12.5ZM11.1666 17.5C7.85292 17.5 5.16663 20.1863 5.16663 23.5C5.16663 25.7091 6.95748 27.5 9.16662 27.5H21.8333C24.0424 27.5 25.8333 25.7091 25.8333 23.5C25.8333 20.1863 23.147 17.5 19.8333 17.5H11.1666Z" fill="white"/>
<path fill-rule="evenodd" clip-rule="evenodd" d="M11.0833 7.5C11.0833 5.17578 13.0373 3.25 15.5 3.25C17.9626 3.25 19.9166 5.17578 19.9166 7.5C19.9166 9.82422 17.9626 11.75 15.5 11.75C13.0373 11.75 11.0833 9.82422 11.0833 7.5ZM15.5 1.75C12.2556 1.75 9.58329 4.30137 9.58329 7.5C9.58329 10.6986 12.2556 13.25 15.5 13.25C18.7443 13.25 21.4166 10.6986 21.4166 7.5C21.4166 4.30137 18.7443 1.75 15.5 1.75ZM11.1666 16.75C7.4387 16.75 4.41663 19.7721 4.41663 23.5C4.41663 26.1234 6.54327 28.25 9.16662 28.25H21.8333C24.4566 28.25 26.5833 26.1234 26.5833 23.5C26.5833 19.7721 23.5612 16.75 19.8333 16.75H11.1666ZM5.91663 23.5C5.91663 20.6005 8.26713 18.25 11.1666 18.25H19.8333C22.7328 18.25 25.0833 20.6005 25.0833 23.5C25.0833 25.2949 23.6282 26.75 21.8333 26.75H9.16662C7.3717 26.75 5.91663 25.2949 5.91663 23.5Z" fill="white"/>
</svg>
