<svg width="38" height="38" viewBox="0 0 38 38" fill="none" xmlns="http://www.w3.org/2000/svg">
<rect opacity="0.12" x="3.16675" y="3.16675" width="31.6667" height="31.6667" rx="5" fill="white"/>
<path fill-rule="evenodd" clip-rule="evenodd" d="M11.1667 2.41675L11.1332 2.41675C9.76147 2.41674 8.68603 2.41674 7.82168 2.48736C6.94154 2.55927 6.21443 2.70813 5.5563 3.04346C4.47437 3.59473 3.59473 4.47437 3.04346 5.5563C2.70813 6.21443 2.55927 6.94154 2.48736 7.82168C2.41674 8.68603 2.41674 9.76147 2.41675 11.1332L2.41675 11.1667V26.8334L2.41675 26.867C2.41674 28.2387 2.41674 29.3141 2.48736 30.1785C2.55927 31.0586 2.70813 31.7857 3.04346 32.4439C3.59473 33.5258 4.47437 34.4054 5.5563 34.9567C6.21443 35.292 6.94154 35.4409 7.82168 35.5128C8.68602 35.5834 9.76143 35.5834 11.1331 35.5834H11.1332H11.1667H26.8334H26.867H26.867C28.2387 35.5834 29.3141 35.5834 30.1785 35.5128C31.0586 35.4409 31.7857 35.292 32.4439 34.9567C33.5258 34.4054 34.4054 33.5258 34.9567 32.4439C35.292 31.7857 35.4409 31.0586 35.5128 30.1785C35.5834 29.3141 35.5834 28.2387 35.5834 26.867V26.867V26.8334V11.1667V11.1332V11.1331C35.5834 9.76143 35.5834 8.68602 35.5128 7.82168C35.4409 6.94154 35.292 6.21443 34.9567 5.5563C34.4054 4.47437 33.5258 3.59473 32.4439 3.04346C31.7857 2.70813 31.0586 2.55927 30.1785 2.48736C29.3141 2.41674 28.2387 2.41674 26.867 2.41675L26.8334 2.41675H11.1667ZM6.23729 4.37997C6.64872 4.17034 7.15645 4.04671 7.94383 3.98238C8.73997 3.91733 9.75424 3.91675 11.1667 3.91675H26.8334C28.2459 3.91675 29.2602 3.91733 30.0563 3.98238C30.8437 4.04671 31.3514 4.17034 31.7629 4.37997C32.5626 4.78743 33.2127 5.4376 33.6202 6.23729C33.8298 6.64872 33.9535 7.15645 34.0178 7.94383C34.0828 8.73997 34.0834 9.75424 34.0834 11.1667V26.8334C34.0834 28.2459 34.0828 29.2602 34.0178 30.0563C33.9535 30.8437 33.8298 31.3514 33.6202 31.7629C33.2127 32.5626 32.5626 33.2127 31.7629 33.6202C31.3514 33.8298 30.8437 33.9535 30.0563 34.0178C29.2602 34.0828 28.2459 34.0834 26.8334 34.0834H11.1667C9.75424 34.0834 8.73996 34.0828 7.94383 34.0178C7.15645 33.9535 6.64872 33.8298 6.23729 33.6202C5.4376 33.2127 4.78743 32.5626 4.37997 31.7629C4.17034 31.3514 4.04671 30.8437 3.98238 30.0563C3.91733 29.2602 3.91675 28.2459 3.91675 26.8334V11.1667C3.91675 9.75424 3.91733 8.73996 3.98238 7.94383C4.04671 7.15645 4.17034 6.64872 4.37997 6.23729C4.78743 5.4376 5.4376 4.78743 6.23729 4.37997ZM17.9471 13.1969C18.24 12.904 18.24 12.4291 17.9471 12.1362C17.6542 11.8434 17.1793 11.8434 16.8864 12.1363L10.5531 18.4697C10.2602 18.7626 10.2602 19.2375 10.5531 19.5303L16.8864 25.8637C17.1793 26.1566 17.6542 26.1566 17.9471 25.8637C18.24 25.5708 18.24 25.0959 17.9471 24.803L12.8941 19.75H26.9167C27.331 19.75 27.6667 19.4142 27.6667 19C27.6667 18.5858 27.331 18.25 26.9167 18.25H12.8941L17.9471 13.1969Z" fill="white"/>
</svg>
